<?xml version="1.0" encoding="utf-8"?>
<!-- Generator: Adobe Illustrator 23.0.2, SVG Export Plug-In . SVG Version: 6.00 Build 0)  -->
<svg version="1.1" id="Capa_1" xmlns="http://www.w3.org/2000/svg" xmlns:xlink="http://www.w3.org/1999/xlink" x="0px" y="0px"
	 viewBox="0 0 512 512" style="enable-background:new 0 0 512 512;" xml:space="preserve">
<style type="text/css">
	.st0{fill:#3E93C1;}
</style>
<g>
	<path class="st0" d="M256,93.9c-89.5,0-162.1,72.6-162.1,162.1S166.5,418.1,256,418.1S418.1,345.5,418.1,256
		C418,166.5,345.5,94,256,93.9z M264.5,400.6V384c0-4.7-3.8-8.5-8.5-8.5c-4.7,0-8.5,3.8-8.5,8.5v16.6
		c-73.3-4.4-131.7-62.8-136.1-136.1H128c4.7,0,8.5-3.8,8.5-8.5c0-4.7-3.8-8.5-8.5-8.5h-16.6c4.4-73.3,62.8-131.7,136.1-136.1V128
		c0,4.7,3.8,8.5,8.5,8.5c4.7,0,8.5-3.8,8.5-8.5v-16.6c73.3,4.4,131.7,62.8,136.1,136.1H384c-4.7,0-8.5,3.8-8.5,8.5
		c0,4.7,3.8,8.5,8.5,8.5h16.6C396.2,337.8,337.8,396.2,264.5,400.6z"/>
	<path class="st0" d="M361.1,282l-46.4-15.5c5.9-32.4-15.6-63.6-48-69.5c-32.5-5.9-63.6,15.6-69.5,48c-3,16.4,1,33.3,11,46.6
		l-9.5,9.5c-3.4,3.3-3.5,8.7-0.2,12.1s8.7,3.5,12.1,0.2c0.1-0.1,0.1-0.1,0.2-0.2l9.5-9.4c26.2,19.8,63.5,14.5,83.3-11.7
		c2.2-2.9,4.1-6,5.7-9.3l46.4,15.5c4.5,1.5,9.3-0.9,10.8-5.4C368,288.4,365.6,283.5,361.1,282z M256,298.7c-8.4,0-16.5-2.5-23.5-7.1
		l19.1-19.1c5.5,1.6,11.4,0.2,15.6-3.7l25.5,8.5C285.2,290.5,271.2,298.6,256,298.7z M298.2,261.1l-25.4-8.5
		c-1.9-9.2-10.9-15.2-20.2-13.3c-7.9,1.6-13.6,8.6-13.6,16.7c0,1.5,0.2,2.9,0.6,4.4l-19.1,19.1c-13-19.6-7.7-46.1,12-59.1
		s46.1-7.7,59.1,12c4.7,7,7.1,15.2,7.1,23.7C298.6,257.7,298.4,259.4,298.2,261.1z"/>
	<path class="st0" d="M256,0C114.6,0,0,114.6,0,256c0,65.7,25.3,129,70.6,176.6c3.2,3.4,8.7,3.5,12.1,0.3s3.5-8.7,0.3-12.1
		C-8,325.2-4.4,174,91.2,83C186.7-8,337.9-4.4,429,91.2c85.5,89.7,88.2,229.9,6.2,322.8v-21.4c0-4.7-3.8-8.5-8.5-8.5
		s-8.5,3.8-8.5,8.5v42.7c0,4.7,3.8,8.5,8.5,8.5h42.7c4.7,0,8.5-3.8,8.5-8.5s-3.8-8.5-8.5-8.5h-22.6
		c94.3-105.3,85.4-267.1-19.9-361.4C379.8,23.2,319,0,256,0z"/>
	<path class="st0" d="M165.9,468.5c2.9-1.5,4.7-4.4,4.7-7.7v-25.6c0-4.7-3.8-8.5-8.5-8.5H128c-4.7,0-8.5,3.8-8.5,8.5v17.1
		c0,4.7,3.8,8.5,8.5,8.5s8.5-3.8,8.5-8.5v-8.5h17.1v11.8l-29.4,14.7c-2.9,1.4-4.7,4.4-4.7,7.6v25.6c0,4.7,3.8,8.5,8.5,8.5h34.1
		c4.7,0,8.5-3.8,8.5-8.5s-3.8-8.5-8.5-8.5h-25.6v-11.8L165.9,468.5z"/>
	<path class="st0" d="M230.4,512c4.7,0,8.5-3.8,8.5-8.5v-17.1h8.5c4.7,0,8.5-3.8,8.5-8.5s-3.8-8.5-8.5-8.5h-8.5v-25.6
		c0-4.7-3.8-8.5-8.5-8.5s-8.5,3.8-8.5,8.5v25.6h-17.1v-34.1c0-4.7-3.8-8.5-8.5-8.5s-8.5,3.8-8.5,8.5V478c0,4.7,3.8,8.5,8.5,8.5h25.6
		v17.1C221.9,508.2,225.7,512,230.4,512z"/>
	<path class="st0" d="M290.7,432.2l-25.6,68.3c-1.7,4.4,0.6,9.3,5,11l0,0c1,0.4,2,0.5,3,0.5c3.6,0,6.7-2.2,8-5.5l25.6-68.3
		c1.6-4.4-0.6-9.3-5-11C297.2,425.6,292.3,427.8,290.7,432.2L290.7,432.2z"/>
	<path class="st0" d="M334.2,498.7c-2.6,3.9-1.6,9.2,2.4,11.8c3.9,2.6,9.2,1.6,11.8-2.4l34.1-51.2c0.9-1.4,1.4-3.1,1.4-4.7v-17.1
		c0-4.7-3.8-8.5-8.5-8.5h-42.7c-4.7,0-8.5,3.8-8.5,8.5v17.1c0,4.7,3.8,8.5,8.5,8.5s8.5-3.8,8.5-8.5v-8.5h25.6v6L334.2,498.7z"/>
</g>
</svg>
