<?xml version="1.0" encoding="utf-8"?>
<!-- Generator: Adobe Illustrator 23.0.2, SVG Export Plug-In . SVG Version: 6.00 Build 0)  -->
<svg version="1.1" id="Capa_1" xmlns="http://www.w3.org/2000/svg" xmlns:xlink="http://www.w3.org/1999/xlink" x="0px" y="0px"
	 viewBox="0 0 512 512" style="enable-background:new 0 0 512 512;" xml:space="preserve">
<style type="text/css">
	.st0{fill:#3E93C1;}
</style>
<g>
	<path class="st0" d="M195.3,275.2c-18.6,0-33.7,15.2-33.7,33.7s15.2,33.7,33.7,33.7c18.6,0,33.7-15.2,33.7-33.7
		C229.1,290.3,214,275.2,195.3,275.2z M195.3,318.3c-5.1,0-9.3-4.2-9.3-9.3s4.2-9.3,9.3-9.3c5.1,0,9.3,4.2,9.3,9.3
		S200.5,318.3,195.3,318.3z"/>
	<path class="st0" d="M334.6,159.4H169.2l-2.4-13.4c-2.7-15-14.5-26.9-29.6-29.6l-12.7-2.2c-6.6-1.2-13,3.3-14.2,9.9
		c-1.2,6.6,3.3,13,9.9,14.2l12.7,2.2c5,0.9,8.9,4.8,9.8,9.8l17.2,97.1c2.7,15.2,15.8,26.2,31.2,26.2h102.1
		c13.9,0.1,26.3-9,30.3-22.5l22.9-75.7c1.1-3.7,0.4-7.7-1.8-10.9C342.2,161.4,338.5,159.5,334.6,159.4z M300,243.8
		c-0.9,3.1-3.7,5.1-6.8,5.1H191.1c-3.5,0-6.5-2.6-7.1-6l-10.5-59.1h144.6L300,243.8z"/>
	<path class="st0" d="M287.6,275.2c-18.6,0-33.7,15.2-33.7,33.7s15.2,33.7,33.7,33.7c18.6,0,33.7-15.2,33.7-33.7
		C321.4,290.3,306.2,275.2,287.6,275.2z M287.6,318.3c-5.1,0-9.3-4.2-9.3-9.3s4.2-9.3,9.3-9.3c5.1,0,9.3,4.2,9.3,9.3
		S292.8,318.3,287.6,318.3z"/>
	<path class="st0" d="M398.5,381.2c81.2-90.4,77.5-228.5-8.4-314.3C301-22.3,156-22.3,66.8,66.8c-87.5,87.5-89.5,229-4.3,318.9
		s226.6,95.5,318.6,12.7l110,110c2.3,2.3,5.4,3.5,8.7,3.5c3.3,0,6.4-1.3,8.7-3.5c2.3-2.3,3.5-5.4,3.5-8.6s-1.3-6.4-3.5-8.6
		L398.5,381.2z M228.5,432.5c-97.3,0-181.2-68.8-200.1-164.3S60.5,77.1,150.5,39.8c90-37.2,193.7-5.7,247.8,75.2
		c54,80.9,43.4,188.9-25.4,257.7C334.6,411.1,282.6,432.7,228.5,432.5z"/>
</g>
</svg>
