<?xml version="1.0" encoding="utf-8"?>
<!-- Generator: Adobe Illustrator 23.0.2, SVG Export Plug-In . SVG Version: 6.00 Build 0)  -->
<svg version="1.1" id="Capa_1" xmlns="http://www.w3.org/2000/svg" xmlns:xlink="http://www.w3.org/1999/xlink" x="0px" y="0px"
	 viewBox="0 0 35 35" style="enable-background:new 0 0 35 35;" xml:space="preserve">
<style type="text/css">
	.st0{fill:url(#SVGID_1_);}
	.st1{fill:#FFFFFF;}
</style>
<g>
	
		<linearGradient id="SVGID_1_" gradientUnits="userSpaceOnUse" x1="-271.4382" y1="-116.799" x2="-270.8216" y2="-117.4617" gradientTransform="matrix(0 -42.2827 -39.3387 0 -4590.2065 -11446.5879)">
		<stop  offset="0" style="stop-color:#FFDD55"/>
		<stop  offset="0.5" style="stop-color:#FF543E"/>
		<stop  offset="1" style="stop-color:#C837AB"/>
	</linearGradient>
	<path class="st0" d="M4.5,4.6C2.1,7,2.6,9.6,2.6,17.5c0,6.5-1.1,13.1,4.8,14.6c1.9,0.5,18.4,0.5,20.3,0c2.5-0.6,4.5-2.6,4.8-6.2
		c0-0.5,0-16.4,0-16.9c-0.3-3.8-2.6-5.9-5.6-6.4c-0.7-0.1-0.8-0.1-4.4-0.1C9.8,2.6,7,2,4.5,4.6L4.5,4.6z"/>
	<path class="st1" d="M17.6,6.5c-4.5,0-8.8-0.4-10.5,3.8c-0.7,1.7-0.6,4-0.6,7.2c0,2.8-0.1,5.5,0.6,7.2c1.6,4.2,6,3.8,10.5,3.8
		c4.3,0,8.8,0.5,10.5-3.8c0.7-1.8,0.6-4,0.6-7.2c0-4.3,0.2-7.1-1.8-9.2C24.6,6.2,21.8,6.5,17.6,6.5L17.6,6.5z M16.6,8.4
		c9.4,0,10.6-1.1,10,13.5c-0.2,5.2-4.2,4.6-9,4.6c-8.8,0-9.1-0.3-9.1-9.1C8.5,8.6,9.2,8.5,16.6,8.4L16.6,8.4z M23.4,10.3
		c-0.7,0-1.3,0.6-1.3,1.3s0.6,1.3,1.3,1.3c0.7,0,1.3-0.6,1.3-1.3S24.2,10.3,23.4,10.3z M17.6,11.8c-3.2,0-5.7,2.5-5.7,5.7
		s2.5,5.7,5.7,5.7s5.7-2.5,5.7-5.7S20.7,11.8,17.6,11.8L17.6,11.8z M17.6,13.8c4.9,0,4.9,7.4,0,7.4C12.7,21.2,12.7,13.8,17.6,13.8z"
		/>
</g>
</svg>
