<?xml version="1.0" encoding="utf-8"?>
<!-- Generator: Adobe Illustrator 23.0.2, SVG Export Plug-In . SVG Version: 6.00 Build 0)  -->
<svg version="1.1" id="Capa_1" xmlns="http://www.w3.org/2000/svg" xmlns:xlink="http://www.w3.org/1999/xlink" x="0px" y="0px"
	 viewBox="0 0 150 40" style="enable-background:new 0 0 150 40;" xml:space="preserve">
<style type="text/css">
	.st0{fill:#00245B;}
	.st1{fill:#FFE100;}
	.st2{fill:#FFFFFF;}
</style>
<g>
	<path class="st0" d="M53.4,19.4c0-8.9-11.1-16.2-24.8-16.2S3.8,10.4,3.8,19.4c0,0.2,0,0.9,0,0.9c0,9.5,9.7,17.2,24.8,17.2
		c15.2,0,24.8-7.7,24.8-17.2L53.4,19.4z"/>
	<path class="st1" d="M52.5,19.4c0,8.4-10.7,15.3-23.8,15.3S4.8,27.8,4.8,19.4S15.4,4.1,28.6,4.1S52.5,11,52.5,19.4z"/>
	<path class="st2" d="M20.7,14.6c0,0-0.3,0.3-0.1,0.5c0.4,0.5,1.5,0.8,2.7,0.5c0.7-0.2,1.6-0.9,2.5-1.6c0.9-0.8,1.9-1.5,2.8-1.8
		c0.7-0.2,1.4-0.3,2.1-0.1c0.5,0.1,1,0.4,1.9,1.1c1.6,1.2,8.2,7,9.3,7.9c3.4-1.5,6.9-2.6,10.5-3.4c-0.5-2.9-2.3-5.6-5-7.8
		c-3.8,1.6-8.4,2.4-12.9,0.2c0,0-2.5-1.2-4.9-1.1c-3.6,0.1-5.1,1.6-6.8,3.3L20.7,14.6z"/>
	<path class="st2" d="M41.6,21.8c-0.1-0.1-7.7-6.8-9.4-8.1c-1-0.8-1.6-0.9-2.1-1c-0.3,0-0.7,0-1,0.1c-0.8,0.2-1.9,0.9-2.8,1.7
		c-0.9,0.7-1.9,1.5-2.7,1.7c-1.1,0.2-2.4,0-3-0.5c-0.2-0.1-0.4-0.3-0.5-0.5c-0.2-0.5,0.2-0.9,0.3-1l2.1-2.3c0.2-0.2,0.5-0.5,0.7-0.7
		c-0.7,0.1-1.3,0.2-1.9,0.4c-0.7,0.2-1.5,0.4-2.2,0.4c-0.8-0.1-1.5-0.2-2.3-0.4c-2.1-0.5-4.1-1.3-6.1-2.2c-3,2.2-5,5-5.6,8.1
		c0.4,0.1,1.1,0.3,1.4,0.4c6.8,1.5,8.9,3.1,9.3,3.4c0.8-0.9,2.2-1,3.2-0.2c0.1,0.1,0.3,0.3,0.4,0.4c0.5-0.4,1-0.6,1.6-0.6
		c0.3,0,0.7,0.1,1,0.2c0.6,0.2,1.1,0.6,1.4,1.2c0.3-0.1,0.6-0.2,0.9-0.2c0.4,0,0.8,0.1,1.1,0.3c1.3,0.5,1.4,1.8,1.3,2.7
		c0.1,0,0.2,0,0.3,0c1.5,0,2.7,1.2,2.7,2.7c0,0.4-0.1,0.9-0.3,1.3c0.4,0.2,1.4,0.7,2.3,0.6c0.7-0.1,1-0.3,1.1-0.5
		c0.1-0.1,0.1-0.2,0.1-0.3l-1.9-2.1c0,0-0.3-0.3-0.2-0.4c0.1-0.1,0.3,0.1,0.4,0.2c1,0.8,2.2,2,2.2,2s0.1,0.2,0.5,0.2
		c0.5,0.1,1.1,0,1.5-0.4c0.1-0.1,0.2-0.2,0.3-0.3l0,0c0.5-0.6-0.1-1.3-0.1-1.3l-2.2-2.5c0,0-0.3-0.3-0.2-0.4s0.3,0.1,0.4,0.2
		c0.7,0.6,1.7,1.6,2.7,2.5c0.2,0.1,1,0.7,2.1-0.1c0.7-0.4,0.8-1,0.8-1.4c0-0.4-0.2-0.7-0.5-0.9l-3.1-3.1c0,0-0.3-0.3-0.2-0.4
		s0.3,0.1,0.4,0.2c1,0.8,3.6,3.2,3.6,3.2c0.6,0.4,1.5,0.4,2.1,0c0.4-0.2,0.6-0.6,0.7-1.1C42.1,22.6,41.9,22.1,41.6,21.8z"/>
	<path class="st2" d="M26.8,25.7c-0.5,0-1,0.3-1.1,0.2c-0.1,0,0-0.2,0.1-0.3c0-0.1,0.7-2-0.9-2.6c-1.2-0.5-1.9,0.1-2.1,0.3
		c-0.1,0.1-0.1,0.1-0.1,0c0-0.7-0.5-1.3-1.2-1.6c-1-0.3-2,0.1-2.6,0.9c-0.1-0.9-0.9-1.5-1.9-1.4c-0.9,0.1-1.5,0.9-1.4,1.9
		c0.1,0.9,0.9,1.5,1.9,1.4c0.4,0,0.7-0.2,0.9-0.4c0,0,0,0,0,0.1c-0.1,0.4-0.2,1.9,1.4,2.5c0.5,0.2,1.2,0.1,1.6-0.3
		c0.1-0.1,0.2-0.1,0.1,0.1c-0.1,0.4,0,1.2,1.2,1.7c0.6,0.3,1.3,0.2,1.7-0.3c0.1-0.1,0.2-0.1,0.2,0.1c0,1.2,1,2.1,2.2,2
		c1.2,0,2.1-1,2-2.2C28.9,26.5,27.9,25.7,26.8,25.7L26.8,25.7z"/>
	<path class="st0" d="M41.9,21c-2.4-2.1-7.8-6.8-9.3-7.9c-0.8-0.6-1.4-1-1.9-1.1c-0.3-0.1-0.6-0.1-0.9-0.1c-0.4,0-0.8,0.1-1.2,0.2
		c-1,0.3-1.9,1.1-2.8,1.8l0,0c-0.9,0.7-1.7,1.4-2.4,1.5c-0.3,0.1-0.6,0.1-0.9,0.1c-0.7,0-1.4-0.2-1.7-0.5c0-0.1,0-0.1,0.1-0.3v0
		l2.1-2.2c1.6-1.6,3.2-3.2,6.7-3.2h0.2c2.2,0,4.4,1,4.6,1.1c2,1,4.1,1.5,6.3,1.5c2.2,0,4.5-0.5,6.9-1.7c-0.3-0.2-0.5-0.4-0.8-0.7
		c-2.1,0.9-4.1,1.4-6.1,1.4c-2.1,0-4.1-0.5-5.9-1.4c-0.1,0-2.5-1.2-5-1.2h-0.2c-3,0.1-4.6,1.1-5.8,2c-1,0.1-1.9,0.2-2.9,0.5
		c-0.7,0.2-1.3,0.3-2,0.4c-0.3,0-0.7,0-0.8,0c-0.7,0-4.4-0.9-7.3-2c-0.3,0.2-0.6,0.4-0.9,0.6c3,1.2,6.7,2.2,7.9,2.3
		c0.3,0,0.7,0.1,1,0.1c0.8,0,1.5-0.2,2.3-0.4c0.4-0.1,0.9-0.3,1.4-0.4c-0.1,0.1-0.3,0.3-0.4,0.4l-2.1,2.3c-0.3,0.3-0.4,0.8-0.3,1.2
		c0.1,0.3,0.3,0.5,0.6,0.6c0.5,0.3,1.4,0.6,2.2,0.6c0.3,0,0.6,0,0.9-0.1c0.9-0.2,1.8-0.9,2.8-1.7c0.8-0.6,1.9-1.4,2.7-1.6
		c0.2-0.1,0.5-0.1,0.8-0.1c0.1,0,0.1,0,0.2,0c0.6,0.1,1.1,0.3,2.1,1c1.7,1.3,9.4,8,9.4,8c0.3,0.3,0.5,0.7,0.5,1.1
		c0,0.4-0.3,0.8-0.6,1c-0.3,0.2-0.6,0.3-1,0.3c-0.3,0-0.6-0.1-0.9-0.3c0,0-2.6-2.4-3.6-3.2c-0.1-0.1-0.3-0.2-0.5-0.2
		c-0.1,0-0.2,0-0.2,0.1c-0.2,0.2,0,0.4,0.2,0.6l3.1,3.1c0.2,0.2,0.4,0.5,0.4,0.8c0,0.5-0.3,1-0.7,1.3c-0.3,0.2-0.7,0.3-1.1,0.4
		c-0.3,0-0.6-0.1-0.9-0.3l-0.4-0.4c-0.8-0.8-1.6-1.6-2.2-2.1c-0.1-0.1-0.3-0.2-0.5-0.2c-0.1,0-0.1,0-0.2,0.1
		c-0.1,0.1-0.1,0.2,0.1,0.4c0,0.1,0.1,0.1,0.2,0.2l2.2,2.5c0,0,0.5,0.5,0,1.1l-0.1,0.1c-0.1,0.1-0.1,0.1-0.2,0.2
		c-0.3,0.2-0.7,0.4-1.1,0.3c-0.1,0-0.2,0-0.3,0c-0.2,0-0.3-0.1-0.4-0.2l0,0c-0.1-0.1-1.2-1.3-2.2-2.1c-0.1-0.1-0.3-0.2-0.4-0.2
		c-0.1,0-0.2,0-0.2,0.1c-0.2,0.2,0.1,0.5,0.2,0.6l1.9,2.1c0,0,0,0.1-0.1,0.1c-0.1,0.1-0.3,0.3-1,0.4c-0.1,0-0.2,0-0.3,0
		c-0.7,0-1.3-0.2-1.9-0.6c0.7-1.4,0.1-3.1-1.4-3.8c-0.4-0.2-0.8-0.3-1.2-0.3h-0.1c0.1-0.7,0-2.1-1.4-2.7c-0.4-0.2-0.8-0.3-1.2-0.3
		c-0.3,0-0.6,0.1-0.9,0.2c-0.3-0.6-0.8-1-1.4-1.2c-0.3-0.1-0.7-0.2-1-0.2c-0.6,0-1.1,0.2-1.6,0.5c-0.8-1-2.3-1.2-3.4-0.4
		c-0.1,0.1-0.1,0.1-0.2,0.2c-0.6-0.5-3-2-9.2-3.4c-0.3-0.1-1-0.3-1.4-0.4c-0.1,0.3-0.1,0.7-0.2,1c0,0,1.2,0.3,1.4,0.3
		c6.4,1.4,8.5,2.9,8.9,3.2c-0.5,1.2,0.1,2.6,1.3,3.1c0.3,0.1,0.6,0.2,0.9,0.2c0.1,0,0.3,0,0.4,0c0.2,1,0.9,1.8,1.8,2.1
		c0.3,0.1,0.6,0.2,0.9,0.2c0.2,0,0.4,0,0.5-0.1c0.5,0.9,1.4,1.6,2.4,1.6c0.3,0,0.5,0,0.7-0.1c0.6,1.4,2.2,2.1,3.7,1.6
		c0.4-0.1,0.7-0.4,1-0.7c0.5,0.3,1.4,0.7,2.4,0.7c0.1,0,0.2,0,0.4,0c1-0.1,1.4-0.5,1.6-0.8c0-0.1,0.1-0.1,0.1-0.2
		c0.2,0.1,0.5,0.1,0.8,0.1c0.6,0,1.1-0.2,1.6-0.6c0.5-0.4,0.9-0.9,0.9-1.3c0,0,0,0,0,0c0.2,0,0.3,0.1,0.5,0.1c0.6,0,1.1-0.2,1.6-0.5
		c0.7-0.4,1.2-1.2,1.1-2.1c0.2,0,0.3,0.1,0.5,0.1c0.5,0,1.1-0.2,1.5-0.5c0.6-0.4,1-1,1-1.7c0-0.5-0.1-1-0.3-1.4
		c3.2-1.3,6.5-2.3,9.9-3.1c0-0.3-0.1-0.7-0.1-1C48.7,18.4,45.3,19.5,41.9,21z M26.8,29.7c-1,0-1.9-0.8-1.9-1.9c0-0.1,0-0.3-0.2-0.3
		c-0.1,0-0.2,0.1-0.2,0.1c-0.2,0.3-0.6,0.4-1,0.4c-0.2,0-0.4-0.1-0.6-0.1c-1.1-0.4-1.1-1.2-1.1-1.5c0-0.1,0-0.2,0-0.2l-0.1-0.1h-0.1
		c-0.1,0-0.1,0-0.2,0.1c-0.3,0.2-0.6,0.3-0.9,0.3c-0.2,0-0.4,0-0.5-0.1c-1.5-0.6-1.3-1.9-1.3-2.4c0-0.1,0-0.1-0.1-0.2l-0.1-0.1
		l-0.1,0.1c-0.6,0.6-1.6,0.6-2.1,0c-0.6-0.6-0.6-1.6,0-2.1c0.6-0.6,1.6-0.6,2.1,0c0.2,0.2,0.4,0.5,0.4,0.9l0.1,0.4l0.2-0.3
		c0.4-0.6,1-0.9,1.8-1c0.2,0,0.4,0,0.7,0.1c0.6,0.2,1.1,0.8,1.1,1.4c0,0.2,0.2,0.2,0.2,0.2c0.1,0,0.1,0,0.2-0.1
		c0.3-0.3,0.7-0.5,1.1-0.5c0.3,0,0.6,0.1,0.8,0.2c1.4,0.6,0.8,2.4,0.8,2.4c-0.1,0.3-0.1,0.4,0,0.5l0.1,0h0c0.1,0,0.2,0,0.3-0.1
		c0.2-0.1,0.5-0.2,0.8-0.2l0,0c1.1,0,2,0.8,2,1.9c0,1.1-0.8,2-1.9,2C26.9,29.7,26.8,29.7,26.8,29.7L26.8,29.7z"/>
	<path class="st0" d="M63.4,10.4v7.3h-2.9V11c0-3.3,1.6-4.9,4.9-4.9c1.5,0,2.6,0.3,3.4,1c0.8-0.6,1.9-0.9,3.4-0.9
		c3.3,0,4.9,1.6,4.9,4.9v6.7h-1.5c-0.9-0.1-1.4-0.5-1.4-1.4v-5.9c-0.1-1.2-0.7-1.8-2-1.8s-1.9,0.6-1.9,1.8v7.2h-2.9v-7.3
		c-0.1-1.2-0.7-1.8-2-1.8C64.1,8.7,63.4,9.3,63.4,10.4z"/>
	<path class="st0" d="M91.1,11.9c0.1-3.7,1.9-5.7,5.7-5.7h0.9v3l-1.3,0c-1.6,0-2.3,1-2.3,2.7v5.9h-2.9V11.9z"/>
	<path class="st0" d="M113.8,9.7h-2.7c0.1-2.2,1.2-3.7,4.5-3.7c3.2,0,4.8,1,4.8,3.2v3.9c0,3.2-1.9,4.6-5,4.8
		c-2.7,0.2-4.6-1.1-4.6-3.6c0.1-2.7,2.1-3.5,4.9-3.8c1.2-0.1,1.9-0.5,1.9-1.1c-0.1-0.6-0.7-1-1.9-1C114.4,8.4,114,9.2,113.8,9.7z
		 M117.7,13V12c-0.7,0.3-1.4,0.4-2.3,0.6c-1.1,0.2-1.7,0.8-1.7,1.6c0.1,0.9,0.5,1.3,1.4,1.3C116.7,15.5,117.7,14.6,117.7,13
		L117.7,13z"/>
	<path class="st0" d="M132.8,2.5v10.3c0,3.4-1.8,5.1-5.4,5.1c-3.5-0.1-5.3-2-5.3-5.8c0-3.9,1.5-5.9,4.6-6c1.4,0,2.5,0.6,3.3,1.8V4.3
		V4C130.9,2.5,132.8,2.5,132.8,2.5z M125,12c0,2.3,0.8,3.5,2.4,3.5c1.6,0,2.5-1.2,2.5-3.5c-0.1-2.2-0.9-3.3-2.4-3.3
		C125.9,8.7,125.1,9.8,125,12L125,12z"/>
	<path class="st0" d="M81.6,19.5h0.8v15.1h-2.9V21.4C79.5,20.9,80.4,19.5,81.6,19.5z"/>
	<path class="st0" d="M97.3,22.9c-1.4,0-2.5,0.6-3.2,1.8v-5.1h-0.3c-1.4,0-2.2,0.8-2.5,1.4v8.6c0,3.4,1.8,5.1,5.4,5.1
		c3.5-0.1,5.3-2,5.3-5.8C101.8,25,100.3,23,97.3,22.9z M96.4,32.2c-1.6,0-2.4-1.2-2.4-3.5c0.1-2.2,0.9-3.3,2.4-3.3
		c1.6,0,2.4,1.1,2.4,3.3C98.9,31,98.1,32.2,96.4,32.2z"/>
	<path class="st0" d="M82.2,14.9c0.5,0.4,1.1,0.7,2,0.7c0.6,0,1.1-0.1,1.6-0.5c0.4-0.2,0.7-0.6,0.8-1h2.7c-0.4,1.3-1.1,2.3-2,2.9
		c-1,0.6-2.1,0.9-3.2,0.9c-0.8,0-1.6-0.1-2.4-0.4c-0.7-0.3-1.3-0.7-1.8-1.2c-0.5-0.5-0.9-1.2-1.1-1.9c-0.3-0.8-0.4-1.6-0.4-2.4
		c0-0.8,0.1-1.6,0.4-2.3c0.5-1.4,1.6-2.5,3-3.1c0.7-0.3,1.5-0.5,2.3-0.5c0.9,0,1.7,0.2,2.5,0.5c0.7,0.3,1.3,0.9,1.7,1.5
		c0.5,0.6,0.8,1.3,1,2.1c0.2,0.8,0.3,1.6,0.2,2.5h-8C81.5,13.7,81.7,14.4,82.2,14.9z M85.6,9c-0.4-0.4-0.9-0.6-1.7-0.6
		c-0.4,0-0.8,0.1-1.2,0.2C82.5,8.8,82.2,9,82,9.3c-0.2,0.2-0.3,0.5-0.4,0.8c-0.1,0.2-0.1,0.5-0.1,0.7h5C86.3,10.1,86.1,9.5,85.6,9
		L85.6,9z"/>
	<path class="st0" d="M104.2,8.4c-0.4,0-0.9,0.1-1.2,0.3c-0.3,0.2-0.6,0.5-0.8,0.9c-0.2,0.4-0.4,0.8-0.4,1.2
		c-0.1,0.4-0.1,0.8-0.1,1.3c0,0.4,0,0.8,0.1,1.2c0.1,0.4,0.2,0.8,0.4,1.1c0.2,0.3,0.5,0.6,0.8,0.8c0.4,0.2,0.8,0.3,1.2,0.3
		c0.7,0,1.3-0.2,1.7-0.6c0.4-0.5,0.7-1,0.8-1.7h3c-0.2,1.5-0.8,2.6-1.7,3.4c-1,0.8-2.2,1.2-3.7,1.2c-0.8,0-1.6-0.1-2.3-0.4
		c-0.7-0.3-1.3-0.7-1.8-1.2c-0.5-0.5-0.9-1.1-1.2-1.8c-0.3-0.7-0.4-1.5-0.4-2.3c0-0.8,0.1-1.6,0.4-2.4c0.2-0.7,0.6-1.4,1.1-1.9
		c0.5-0.5,1.1-1,1.8-1.3c0.8-0.3,1.6-0.5,2.4-0.5c0.7,0,1.3,0.1,1.9,0.3c0.6,0.2,1.2,0.4,1.7,0.8c1,0.7,1.7,1.9,1.7,3.2h-3
		C106.3,9,105.5,8.4,104.2,8.4z"/>
	<path class="st0" d="M135,9.5c0.5-1.4,1.6-2.5,3-3.1c0.8-0.3,1.6-0.4,2.4-0.4c0.8,0,1.6,0.1,2.4,0.4c1.4,0.5,2.5,1.7,3,3.1
		c0.3,0.8,0.4,1.6,0.4,2.4c0,0.8-0.1,1.7-0.4,2.4c-0.3,0.7-0.7,1.3-1.2,1.9c-0.5,0.5-1.1,0.9-1.8,1.2c-0.8,0.3-1.6,0.4-2.4,0.4
		c-0.8,0-1.6-0.1-2.4-0.4c-0.7-0.3-1.3-0.7-1.8-1.2c-0.5-0.5-0.9-1.2-1.2-1.9c-0.3-0.8-0.4-1.6-0.4-2.4
		C134.5,11.1,134.7,10.3,135,9.5z M137.8,13.3c0.1,0.4,0.2,0.8,0.4,1.2c0.2,0.3,0.5,0.6,0.8,0.8c0.4,0.2,0.9,0.3,1.3,0.3
		c0.5,0,0.9-0.1,1.3-0.3c0.3-0.2,0.6-0.5,0.8-0.8c0.2-0.4,0.4-0.7,0.4-1.2c0.1-0.4,0.1-0.9,0.1-1.3c0-0.4,0-0.9-0.1-1.3
		c-0.1-0.4-0.2-0.8-0.4-1.2c-0.2-0.3-0.5-0.6-0.8-0.8c-0.4-0.2-0.9-0.3-1.3-0.3c-0.5,0-0.9,0.1-1.3,0.3c-0.3,0.2-0.6,0.5-0.8,0.8
		c-0.2,0.4-0.4,0.8-0.4,1.2c-0.1,0.4-0.1,0.9-0.1,1.3C137.6,12.4,137.7,12.9,137.8,13.3L137.8,13.3z"/>
	<path class="st0" d="M103.5,28.7c0.1-3.7,1.9-5.7,5.7-5.7h0.9v3l-1.3,0c-1.6,0-2.4,1-2.4,2.7v5.9h-2.9V28.7z"/>
	<path class="st0" d="M114.7,31.7c0.5,0.4,1.1,0.7,2,0.7c0.6,0,1.1-0.1,1.6-0.5c0.4-0.2,0.7-0.6,0.8-1h2.7c-0.4,1.3-1.1,2.3-2,2.9
		c-1,0.6-2.1,0.9-3.2,0.9c-0.8,0-1.6-0.1-2.4-0.4c-0.7-0.3-1.3-0.7-1.8-1.2c-0.5-0.5-0.9-1.2-1.1-1.8c-0.3-0.8-0.4-1.6-0.4-2.4
		c0-0.8,0.1-1.6,0.4-2.3c0.5-1.4,1.6-2.5,3-3.1c0.7-0.3,1.5-0.5,2.3-0.5c0.9,0,1.7,0.2,2.5,0.5c0.7,0.4,1.3,0.9,1.7,1.5
		c0.5,0.6,0.8,1.3,1,2.1c0.2,0.8,0.3,1.6,0.2,2.5h-8C113.9,30.5,114.2,31.3,114.7,31.7z M118.1,25.9c-0.4-0.4-0.9-0.6-1.7-0.6
		c-0.4,0-0.8,0.1-1.2,0.2c-0.3,0.1-0.6,0.4-0.8,0.6c-0.2,0.2-0.3,0.5-0.4,0.8c-0.1,0.2-0.1,0.5-0.1,0.7h5
		C118.8,27,118.5,26.4,118.1,25.9L118.1,25.9z"/>
	<rect x="85.5" y="19.5" class="st0" width="2.9" height="2.6"/>
	<rect x="85.5" y="23.5" class="st0" width="2.9" height="11.2"/>
</g>
</svg>
