<?xml version="1.0" encoding="utf-8"?>
<!-- Generator: Adobe Illustrator 23.0.2, SVG Export Plug-In . SVG Version: 6.00 Build 0)  -->
<svg version="1.1" id="Capa_1" xmlns="http://www.w3.org/2000/svg" xmlns:xlink="http://www.w3.org/1999/xlink" x="0px" y="0px"
	 viewBox="0 0 150 40" style="enable-background:new 0 0 150 40;" xml:space="preserve">
<style type="text/css">
	.st0{fill:#F5AF02;}
	.st1{fill:#E53238;}
	.st2{fill:#0064D2;}
	.st3{fill:#86B817;}
</style>
<g>
	<path class="st0" d="M86.6,21.1c-4,0.1-6.4,0.8-6.4,3.5c0,1.7,1.4,3.5,4.8,3.5c4.6,0,7-2.5,7-6.6V21L86.6,21.1L86.6,21.1z
		 M96.4,26.5l0.2,3.7h-4.1c-0.1-0.9-0.2-1.9-0.2-2.8c-2.2,2.7-4.8,3.5-8.5,3.5c-5.4,0-8.3-2.8-8.3-6.1c0-4.8,3.9-6.5,10.8-6.6
		c1.9,0,3.9,0,5.7,0v-0.5c0-3.2-2-4.5-5.6-4.5c-2.6,0-4.6,1.1-4.8,3H77c0.5-4.7,5.4-5.9,9.7-5.9c5.2,0,9.6,1.9,9.6,7.3L96.4,26.5
		L96.4,26.5z"/>
	<path class="st1" d="M48.8,18.7c-0.2-4.1-3.1-5.6-6.3-5.6c-3.4,0-6.1,1.7-6.6,5.6H48.8z M35.8,21.6c0.2,4,3,6.3,6.7,6.3
		c2.6,0,4.9-1,5.7-3.4h4.5c-0.9,4.7-5.9,6.3-10.2,6.3c-7.8,0-11.3-4.3-11.3-10.1c0-6.4,3.6-10.6,11.3-10.6c6.2,0,10.7,3.2,10.7,10.3
		v1.2L35.8,21.6z"/>
	<path class="st2" d="M64.6,27.9c4.1,0,6.8-2.9,6.8-7.3s-2.8-7.3-6.8-7.3c-4,0-6.8,2.9-6.8,7.3S60.5,27.9,64.6,27.9z M53.4,2.5h4.4
		v11c2.2-2.6,5.1-3.3,8-3.3c4.9,0,10.3,3.3,10.3,10.4c0,5.9-4.3,10.3-10.4,10.3c-3.2,0-6.2-1.1-8-3.4c0,0.9,0,1.8-0.2,2.7h-4.3
		l0.2-4.5L53.4,2.5L53.4,2.5z"/>
	<path class="st3" d="M118.7,10.9l-13.5,26.6h-4.9l3.9-7.4L93.9,10.9h5.1l7.5,15l7.5-15L118.7,10.9z"/>
</g>
</svg>
