<?xml version="1.0" encoding="utf-8"?>
<!-- Generator: Adobe Illustrator 23.0.2, SVG Export Plug-In . SVG Version: 6.00 Build 0)  -->
<svg version="1.1" id="Capa_1" xmlns="http://www.w3.org/2000/svg" xmlns:xlink="http://www.w3.org/1999/xlink" x="0px" y="0px"
	 viewBox="0 0 150 40" style="enable-background:new 0 0 150 40;" xml:space="preserve">
<style type="text/css">
	.st0{fill-rule:evenodd;clip-rule:evenodd;fill:#FF9900;}
	.st1{fill-rule:evenodd;clip-rule:evenodd;fill:#221F1F;}
</style>
<g>
	<path class="st0" d="M89,29.9c-6.7,5-16.5,7.6-24.9,7.6c-11.8,0-22.4-4.4-30.5-11.6c-0.6-0.6-0.1-1.3,0.7-0.9
		c8.7,5.1,19.4,8.1,30.5,8.1c7.5,0,15.7-1.5,23.3-4.8C89.1,27.8,90.1,29,89,29.9 M91.8,26.7c-0.9-1.1-5.7-0.5-7.9-0.3
		c-0.7,0.1-0.8-0.5-0.2-0.9c3.9-2.7,10.2-1.9,10.9-1c0.7,0.9-0.2,7.3-3.8,10.3c-0.6,0.5-1.1,0.2-0.8-0.4
		C90.8,32.3,92.6,27.8,91.8,26.7"/>
	<path class="st1" d="M84.1,6.3V3.7c0-0.4,0.3-0.7,0.6-0.7c0,0,0,0,0,0h11.8c0.4,0,0.7,0.3,0.7,0.7V6c0,0.4-0.3,0.9-0.9,1.7
		l-6.1,8.7c2.3-0.1,4.7,0.3,6.7,1.4c0.5,0.3,0.6,0.6,0.6,1v2.8c0,0.4-0.4,0.8-0.9,0.6c-3.6-1.9-8.5-2.1-12.5,0
		c-0.4,0.2-0.8-0.2-0.8-0.6V19c0-0.4,0-1.2,0.4-1.8L90.9,7h-6.2C84.4,7,84.1,6.7,84.1,6.3 M41,22.8h-3.6c-0.3,0-0.6-0.3-0.6-0.6V3.7
		c0-0.4,0.3-0.7,0.7-0.7h3.4c0.3,0,0.6,0.3,0.7,0.6v2.4h0.1c0.9-2.3,2.5-3.4,4.7-3.4c2.2,0,3.7,1.1,4.7,3.4c0.9-2.3,2.8-3.4,5-3.4
		c1.5,0,3.2,0.6,4.2,2c1.1,1.6,0.9,3.8,0.9,5.8l0,11.6c0,0.4-0.3,0.7-0.7,0.7h-3.6c-0.3,0-0.6-0.3-0.6-0.7v-9.8
		c0-0.8,0.1-2.7-0.1-3.5c-0.3-1.2-1.1-1.6-2.1-1.6c-0.9,0-1.8,0.6-2.1,1.5c-0.4,0.9-0.3,2.5-0.3,3.5v9.8c0,0.4-0.3,0.7-0.7,0.7H47
		c-0.4,0-0.6-0.3-0.6-0.7l0-9.8c0-2.1,0.3-5.1-2.2-5.1c-2.6,0-2.5,3-2.5,5.1v9.8C41.7,22.5,41.3,22.8,41,22.8 M107.4,2.7
		c5.3,0,8.2,4.6,8.2,10.4c0,5.6-3.2,10.1-8.2,10.1c-5.2,0-8.1-4.6-8.1-10.3C99.3,7.2,102.2,2.7,107.4,2.7 M107.4,6.5
		c-2.6,0-2.8,3.6-2.8,5.9s0,7.1,2.8,7.1c2.8,0,2.9-3.9,2.9-6.2c0-1.6-0.1-3.4-0.5-4.9C109.4,7,108.6,6.5,107.4,6.5 M122.5,22.8h-3.6
		c-0.3,0-0.6-0.3-0.6-0.7l0-18.4c0-0.3,0.3-0.6,0.7-0.6h3.3c0.3,0,0.6,0.2,0.6,0.5v2.8h0.1c1-2.5,2.4-3.7,4.9-3.7
		c1.6,0,3.2,0.6,4.2,2.2c0.9,1.5,0.9,4,0.9,5.7v11.6c0,0.3-0.3,0.6-0.7,0.6h-3.6c-0.3,0-0.6-0.3-0.6-0.6v-10c0-2,0.2-5-2.2-5
		c-0.9,0-1.7,0.6-2.1,1.5c-0.5,1.1-0.6,2.2-0.6,3.5v9.9C123.2,22.5,122.9,22.8,122.5,22.8 M74.6,14c0,1.4,0,2.6-0.7,3.8
		c-0.6,1-1.5,1.6-2.5,1.6c-1.4,0-2.2-1.1-2.2-2.6c0-3.1,2.7-3.6,5.3-3.6L74.6,14 M78.3,22.7c-0.2,0.2-0.6,0.2-0.8,0.1
		c-1.2-1-1.4-1.5-2.1-2.4c-2,2-3.4,2.6-5.9,2.6c-3,0-5.4-1.9-5.4-5.6c0-2.9,1.6-4.9,3.8-5.9c2-0.9,4.7-1,6.8-1.2V9.8
		c0-0.9,0.1-1.9-0.4-2.6c-0.4-0.7-1.3-0.9-2-0.9c-1.4,0-2.6,0.7-2.9,2.2c-0.1,0.3-0.3,0.6-0.6,0.7l-3.5-0.4
		c-0.3-0.1-0.6-0.3-0.5-0.8c0.8-4.2,4.6-5.5,8-5.5c1.7,0,4,0.5,5.4,1.8c1.7,1.6,1.6,3.8,1.6,6.2v5.6c0,1.7,0.7,2.4,1.4,3.3
		c0.2,0.3,0.3,0.7,0,1L78.3,22.7L78.3,22.7 M27.5,14c0,1.4,0,2.6-0.7,3.8c-0.6,1-1.5,1.6-2.5,1.6c-1.4,0-2.2-1.1-2.2-2.6
		c0-3.1,2.7-3.6,5.3-3.6L27.5,14 M31.2,22.7c-0.2,0.2-0.6,0.2-0.8,0.1c-1.2-1-1.4-1.5-2.1-2.4c-2,2-3.4,2.6-5.9,2.6
		c-3,0-5.4-1.9-5.4-5.6c0-2.9,1.6-4.9,3.8-5.9c2-0.9,4.7-1,6.8-1.2V9.9c0-0.9,0.1-1.9-0.4-2.6c-0.4-0.7-1.3-0.9-2-0.9
		c-1.4,0-2.6,0.7-2.9,2.2c-0.1,0.3-0.3,0.6-0.6,0.7l-3.5-0.4c-0.3-0.1-0.6-0.3-0.5-0.8c0.8-4.2,4.6-5.5,8-5.5c1.7,0,4,0.5,5.4,1.8
		c1.7,1.6,1.6,3.8,1.6,6.2v5.6c0,1.7,0.7,2.4,1.4,3.3c0.2,0.3,0.3,0.7,0,1L31.2,22.7L31.2,22.7"/>
</g>
</svg>
