<?xml version="1.0" encoding="utf-8"?>
<!-- Generator: Adobe Illustrator 23.0.2, SVG Export Plug-In . SVG Version: 6.00 Build 0)  -->
<svg version="1.1" id="Capa_1" xmlns="http://www.w3.org/2000/svg" xmlns:xlink="http://www.w3.org/1999/xlink" x="0px" y="0px"
	 viewBox="0 0 150 40" style="enable-background:new 0 0 150 40;" xml:space="preserve">
<style type="text/css">
	.st0{fill:#E43225;}
	.st1{fill:#F7971D;}
</style>
<g id="XMLID_1_">
	<g id="XMLID_2_">
		<path id="XMLID_3_" class="st0" d="M39.8,28.1V6.5h12.8v2.7H42.5v6.6h9v2.7h-9v6.8h10.8v2.7L39.8,28.1L39.8,28.1z"/>
		<path id="XMLID_4_" class="st0" d="M66.8,28.1l-4.4-5.8L58,28.1h-3.1l6-7.7l-6.3-7.9H58l4.4,5.9l4.4-5.9h3.4l-6,7.9l5.7,7.7
			L66.8,28.1L66.8,28.1z"/>
		<path id="XMLID_5_" class="st0" d="M74.1,25.7v10.6h-2.7V20.4c0-4,3.1-8.4,7.9-8.4c4.9,0,8.6,3.1,8.6,8.2c0,5-3.7,8.4-8,8.4
			C77.9,28.6,75.1,27.7,74.1,25.7z M85.1,20.2c0-3.4-2.2-5.6-6.2-5.4c-1.9,0.1-4.9,1.5-4.6,6.5c0.1,1.6,1.7,4.7,5.4,4.7
			C82.8,26,85.1,24.2,85.1,20.2z"/>
		<path id="XMLID_6_" class="st0" d="M90.2,28.1V12.4h2.6v1.7c1.3-1.4,3.3-2,5.4-2v2.8c-0.3,0-3.4-0.4-5.4,3.7v9.5L90.2,28.1
			L90.2,28.1z"/>
		<path id="XMLID_7_" class="st0" d="M99,20.2c0-4.5,3.2-8.2,7.7-8.2c5.5,0,7.6,3.7,7.6,8.4v1.2h-12.4c0.2,3,2.8,4.5,5.3,4.4
			c1.8,0,3-0.6,4.3-1.9l1.7,1.8c-1.6,1.6-3.7,2.6-6.2,2.6C102.3,28.6,99,25.1,99,20.2z M106.5,14.7c-2.5,0-4.5,2.2-4.6,4.5h9.6
			C111.4,16.9,109.8,14.7,106.5,14.7z"/>
		<path id="XMLID_8_" class="st0" d="M115.6,25.9l1.9-1.7c0,0,1,1,1.1,1.1c0.5,0.4,0.9,0.6,1.5,0.8c1.7,0.5,4.7,0.3,4.9-2
			c0.1-1.3-0.9-2-2-2.4c-1.4-0.5-3-0.7-4.4-1.4c-1.6-0.7-2.6-2-2.6-3.7c0-4.7,6.7-5.5,9.7-3.3c0.2,0.1,1.6,1.4,1.6,1.5l-2,1.5
			c-0.9-1.1-1.9-1.7-3.9-1.7c-1,0-2.4,0.4-2.7,1.6c-0.4,1.6,1.4,2.1,2.5,2.4c1.6,0.4,3.2,0.6,4.6,1.5c1.9,1.2,2.3,3.7,1.6,5.6
			c-0.8,2.1-3.1,3-5.1,3c-2.5,0.1-4.6-0.7-6.3-2.4C115.9,26.2,115.6,25.9,115.6,25.9z"/>
		<path id="XMLID_17_" class="st0" d="M129.2,25.9l1.9-1.7c0,0,1,1,1.1,1.1c0.5,0.4,0.9,0.6,1.5,0.8c1.7,0.5,4.7,0.3,4.9-2
			c0.1-1.3-0.9-2-2-2.4c-1.4-0.5-3-0.7-4.4-1.4c-1.6-0.7-2.6-2-2.6-3.7c0-4.7,6.7-5.5,9.7-3.3c0.2,0.1,1.6,1.4,1.6,1.5l-2,1.5
			c-0.9-1.1-1.9-1.7-3.9-1.7c-1,0-2.4,0.4-2.7,1.6c-0.4,1.6,1.4,2.1,2.5,2.4c1.6,0.4,3.2,0.6,4.6,1.5c1.9,1.2,2.3,3.7,1.6,5.6
			c-0.8,2.1-3.1,3-5.1,3c-2.5,0.1-4.6-0.7-6.3-2.4C129.5,26.2,129.2,25.9,129.2,25.9z"/>
		<g id="XMLID_19_">
			<path id="XMLID_20_" class="st0" d="M141.8,12.4v-1.7h-0.6v-0.3h1.6v0.3h-0.6v1.7L141.8,12.4L141.8,12.4z"/>
			<path id="XMLID_22_" class="st0" d="M144.7,12.4v-1.5l-0.6,1.5h-0.2l-0.6-1.5v1.5H143v-2h0.5l0.5,1.4l0.5-1.4h0.5v2L144.7,12.4
				L144.7,12.4z"/>
		</g>
	</g>
	<g id="XMLID_24_">
		<path id="XMLID_25_" class="st1" d="M22,28.1l-1.9-5.1H9.7l-1.9,5.1H5l8.4-21.6h3l8.4,21.6H22z M14.7,9.6l-3.9,10.7H19L14.7,9.6z"
			/>
		<path id="XMLID_28_" class="st1" d="M26.3,28.1V6.5H29v21.6H26.3z"/>
		<path id="XMLID_31_" class="st1" d="M33.1,28.1V12.8h2.7v15.3H33.1z"/>
		<path id="XMLID_33_" class="st1" d="M38.4,7.8c0,0,0-0.1,0-0.2s0-0.1,0-0.2c-2.1-0.1-3.7-1.7-3.8-3.8c0,0-0.1,0-0.2,0
			c0,0-0.1,0-0.2,0c-0.1,2.1-1.7,3.7-3.8,3.8c0,0,0,0.1,0,0.2s0,0.1,0,0.2c2.1,0.1,3.7,1.7,3.8,3.8c0,0,0.1,0,0.2,0c0,0,0.1,0,0.2,0
			C34.7,9.6,36.3,7.9,38.4,7.8z"/>
	</g>
</g>
</svg>
