<?xml version="1.0" encoding="utf-8"?>
<!-- Generator: Adobe Illustrator 23.0.2, SVG Export Plug-In . SVG Version: 6.00 Build 0)  -->
<svg version="1.1" id="Capa_1" xmlns="http://www.w3.org/2000/svg" xmlns:xlink="http://www.w3.org/1999/xlink" x="0px" y="0px"
	 viewBox="0 0 512 512" style="enable-background:new 0 0 512 512;" xml:space="preserve">
<style type="text/css">
	.st0{fill:#3E93C1;}
</style>
<g>
	<g id="Layer_1_1_">
		<g>
			<g>
				<path class="st0" d="M226,172.1c2.2-27.2,12-53.4,27.2-74.1c-12-55.6-62.1-98-122-98C63.7,0,7.1,55.6,7.1,124.2
					c0,59.9,42.5,110,98,122C134.5,208.1,177,180.8,226,172.1z M82.2,153.6c0-4.4,3.3-7.6,7.6-7.6h25.1v-5.4l-3.3-5.4H89.9
					c-4.4,0-7.6-3.3-7.6-7.6s3.3-7.6,7.6-7.6h13.1L75.7,73c-1.1-2.2-3.3-5.4-3.3-7.6c0-10.9,10.9-15.3,17.4-15.3
					c8.7,0,13.1,6.5,14.2,9.8l27.2,52.3l27.2-52.3c1.1-3.3,5.4-9.8,14.2-9.8c7.6,0,17.4,3.3,17.4,15.3c0,3.3-1.1,5.4-3.3,8.7
					l-27.2,44.7h13.1c4.4,0,7.6,3.3,7.6,7.6c0,4.4-3.3,7.6-7.6,7.6h-21.8l-3.3,5.4v5.4h25.1c4.4,0,7.6,3.3,7.6,7.6
					c0,4.4-3.3,7.6-7.6,7.6h-25.1v20.7c0,9.8-5.4,16.3-16.3,16.3c-9.8,0-16.3-6.5-16.3-16.3v-20.7H89.9
					C85.5,162.3,82.2,159,82.2,153.6z"/>
			</g>
			<g>
				<path class="st0" d="M380.7,62.1c-63.2,0-114.4,46.8-123.1,107.8c24,0,46.8,4.4,67.5,13.1c1.1-3.3,4.4-5.4,8.7-5.4h4.4
					c-4.4-6.5-6.5-14.2-6.5-21.8c0-25.1,22.9-43.6,51.2-43.6c35.9,0,53.4,19.6,53.4,34.9c0,9.8-6.5,14.2-15.3,14.2
					c-18.5,0-6.5-25.1-34.9-25.1c-12,0-24,7.6-24,20.7c0,6.5,3.3,14.2,6.5,20.7h24c8.7,0,13.1,3.3,13.1,9.8c0,6.5-4.4,9.8-13.1,9.8
					h-16.3c1.1,2.2,1.1,3.3,1.1,5.4c0,3.3-1.1,6.5-2.2,9.8c6.5,5.4,13.1,12,18.5,18.5c5.4,1.1,10.9,2.2,16.3,2.2
					c3.3,0,12-2.2,15.3-2.2c7.6,0,12,5.4,12,13.1c0,12-10.9,16.3-20.7,17.4c7.6,12,13.1,25.1,17.4,38.1
					c42.5-19.6,70.8-63.2,70.8-112.2C506,117.7,449.4,62.1,380.7,62.1z"/>
			</g>
			<g>
				<path class="st0" d="M265.3,371.5v51.2c15.3-1.1,31.6-8.7,31.6-25.1C296.8,379.1,278.3,374.7,265.3,371.5z"/>
			</g>
			<g>
				<path class="st0" d="M220.6,310.5c0,13.1,9.8,20.7,28.3,24v-45.8C231.5,288.7,220.6,299.6,220.6,310.5z"/>
			</g>
			<g>
				<path class="st0" d="M256.5,200.4c-86.1,0-155.8,69.7-155.8,155.8S170.5,512,256.5,512s155.8-69.7,155.8-155.8
					S342.6,200.4,256.5,200.4z M265.3,448.8v16.3c0,4.4-3.3,8.7-7.6,8.7c-4.4,0-7.6-4.4-7.6-8.7v-16.3
					c-43.6-1.1-65.4-27.2-65.4-46.8c0-9.8,6.5-16.3,16.3-16.3c28.3,0,6.5,35.9,49,37v-53.4c-38.1-6.5-61-24-61-52.3
					c0-34.9,29.4-53.4,61-54.5v-14.2c0-4.4,3.3-8.7,7.6-8.7s7.6,4.4,7.6,8.7v14.2c19.6,0,61,13.1,61,38.1c0,9.8-7.6,16.3-16.3,16.3
					c-16.3,0-16.3-27.2-44.7-28.3v49c33.8,7.6,64.3,17.4,64.3,56.6C328.4,428.1,303.4,446.6,265.3,448.8z"/>
			</g>
		</g>
	</g>
</g>
</svg>
