<?xml version="1.0" encoding="utf-8"?>
<!-- Generator: Adobe Illustrator 23.0.2, SVG Export Plug-In . SVG Version: 6.00 Build 0)  -->
<svg version="1.1" id="Capa_1" xmlns="http://www.w3.org/2000/svg" xmlns:xlink="http://www.w3.org/1999/xlink" x="0px" y="0px"
	 viewBox="0 0 35 35" style="enable-background:new 0 0 35 35;" xml:space="preserve">
<style type="text/css">
	.st0{fill:#55ACEE;}
	.st1{fill:#F1F2F2;}
</style>
<g>
	<circle class="st0" cx="17.5" cy="17.5" r="15"/>
	<g>
		<path class="st1" d="M26.6,13.3c-0.7,0.3-1.3,0.5-2,0.6c0.8-0.4,1.3-1.1,1.6-2c-0.7,0.4-1.4,0.7-2.2,0.9c-0.7-0.7-1.6-1.1-2.6-1.1
			c-2,0-3.6,1.6-3.6,3.6c0,0.3,0,0.5,0.1,0.8c-3-0.2-5.6-1.6-7.4-3.8c-0.3,0.5-0.5,1.1-0.5,1.8c0,1.3,0.6,2.3,1.6,3
			c-0.6,0-1.1-0.1-1.6-0.5c0,0,0,0,0,0.1c0,1.7,1.2,3.2,2.9,3.5c-0.3,0.1-0.6,0.1-1,0.1c-0.2,0-0.4,0-0.7-0.1
			c0.4,1.4,1.8,2.5,3.4,2.5c-1.2,1-2.8,1.5-4.4,1.5c-0.3,0-0.6,0-0.8-0.1c1.6,1.1,3.5,1.6,5.5,1.6c6.6,0,10.2-5.5,10.2-10.2
			c0-0.2,0-0.3,0-0.5C25.6,14.6,26.2,14,26.6,13.3L26.6,13.3z"/>
	</g>
</g>
</svg>
