<?xml version="1.0" encoding="utf-8"?>
<!-- Generator: Adobe Illustrator 23.0.2, SVG Export Plug-In . SVG Version: 6.00 Build 0)  -->
<svg version="1.1" id="Capa_1" xmlns="http://www.w3.org/2000/svg" xmlns:xlink="http://www.w3.org/1999/xlink" x="0px" y="0px"
	 viewBox="0 0 512 512" style="enable-background:new 0 0 512 512;" xml:space="preserve">
<style type="text/css">
	.st0{fill:#3E93C1;}
</style>
<g>
	<path class="st0" d="M459.7,82.9l-196-81.4c-4.9-2-10.4-2-15.3,0l-196,81.4C44.9,86,40,93.3,40,101.4v98.9
		c0,136.2,82.3,258.7,208.4,310.2c4.8,2,10.3,2,15.1,0C389.7,459,472,336.5,472,200.3v-98.9C472,93.3,467.1,86,459.7,82.9z
		 M432,200.3c0,115.8-68,222.4-176,270c-105.1-46.3-176-151-176-270v-85.6l176-73.1l176,73.1V200.3z M233.9,267.7l86-86
		c7.8-7.8,20.5-7.8,28.3,0s7.8,20.5,0,28.3L248,310.1c-7.8,7.8-20.5,7.8-28.3,0l-55.9-55.9c-7.8-7.8-7.8-20.5,0-28.3
		s20.5-7.8,28.3,0L233.9,267.7z"/>
</g>
</svg>
