<?xml version="1.0" encoding="utf-8"?>
<!-- Generator: Adobe Illustrator 23.0.2, SVG Export Plug-In . SVG Version: 6.00 Build 0)  -->
<svg version="1.1" id="Capa_1" xmlns="http://www.w3.org/2000/svg" xmlns:xlink="http://www.w3.org/1999/xlink" x="0px" y="0px"
	 viewBox="0 0 90 90" style="enable-background:new 0 0 90 90;" xml:space="preserve">
<style type="text/css">
	.st0{fill:#3E93C1;}
</style>
<g>
	<path class="st0" d="M85,45c0-10.7-4.2-20.7-11.7-28.3C65.9,9.3,56,5.2,45.5,5c-0.2,0-0.4,0-0.5,0c-0.2,0-0.4,0-0.5,0
		C34,5.2,24.2,9.3,16.7,16.7C9.2,24.3,5,34.3,5,45s4.2,20.7,11.7,28.3C24.1,80.7,34,84.8,44.5,85c0.2,0,0.4,0,0.5,0
		c0.2,0,0.4,0,0.5,0c10.5-0.1,20.3-4.3,27.7-11.7C80.8,65.7,85,55.7,85,45z M9.9,47.4h14c0.2,4.9,0.9,9.6,2.2,14.1H13.8
		C11.5,57.1,10.2,52.3,9.9,47.4z M80.1,42.6h-14c-0.2-4.9-0.9-9.6-2.2-14.1h12.2C78.5,32.9,79.8,37.7,80.1,42.6z M61.4,42.6h-14
		V28.6H59C60.4,33,61.2,37.7,61.4,42.6z M47.4,23.8V10.7c2,1.3,4.6,3.9,7.1,7.9c1,1.6,1.9,3.3,2.7,5.2
		C57.2,23.8,47.4,23.8,47.4,23.8z M42.6,10.7v13.1h-9.8c0.8-1.8,1.7-3.5,2.7-5.2C38,14.6,40.6,12,42.6,10.7z M42.6,28.6v14.1h-14
		c0.2-4.9,1-9.7,2.4-14.1H42.6z M23.9,42.6h-14c0.3-5,1.7-9.7,4-14.1h12.2C24.8,33,24,37.8,23.9,42.6z M28.6,47.4h14v14.1H31
		C29.6,57,28.8,52.3,28.6,47.4z M42.6,66.2v13.1c-2-1.3-4.6-3.9-7.1-7.9c-1-1.6-1.9-3.3-2.7-5.2L42.6,66.2L42.6,66.2L42.6,66.2z
		 M47.4,79.3V66.2h9.8c-0.8,1.8-1.7,3.5-2.7,5.2C52,75.4,49.4,78,47.4,79.3z M47.4,61.4V47.4h14c-0.2,4.9-1,9.7-2.4,14.1H47.4z
		 M66.1,47.4h14c-0.3,5-1.7,9.7-4,14.1H63.9C65.2,57,66,52.2,66.1,47.4z M73.1,23.8H62.3c-1.1-2.7-2.3-5.3-3.8-7.6
		c-1.1-1.9-2.4-3.5-3.6-5c5.6,1.6,10.8,4.7,15,8.9C71.1,21.3,72.2,22.5,73.1,23.8z M35.1,11.2c-1.3,1.5-2.5,3.1-3.6,5
		c-1.5,2.4-2.7,4.9-3.8,7.6H16.9c1-1.3,2.1-2.5,3.2-3.7C24.3,15.8,29.5,12.8,35.1,11.2z M16.9,66.2h10.8c1.1,2.7,2.3,5.3,3.8,7.6
		c1.1,1.9,2.4,3.5,3.6,5c-5.6-1.6-10.8-4.7-15-8.9C18.9,68.7,17.8,67.5,16.9,66.2z M54.9,78.8c1.3-1.5,2.5-3.1,3.6-5
		c1.5-2.4,2.7-4.9,3.8-7.6h10.8c-1,1.3-2.1,2.5-3.2,3.7C65.7,74.2,60.5,77.2,54.9,78.8z"/>
</g>
</svg>
