<svg  xmlns="http://www.w3.org/2000/svg" 
	 viewBox="0 0 419 419">
<path class="st0" d="M159.9,225.2c-15.2,0-27.6,12.4-27.6,27.6c0,15.2,12.4,27.6,27.6,27.6c15.2,0,27.6-12.4,27.6-27.6
	C187.5,237.6,175.2,225.2,159.9,225.2z M159.9,260.5c-4.2,0-7.6-3.4-7.6-7.6c0-4.2,3.4-7.6,7.6-7.6c4.2,0,7.6,3.4,7.6,7.6
	C167.5,257.1,164.1,260.5,159.9,260.5z"/>
<path class="st0" d="M273.8,130.5H138.5l-2-11c-2.2-12.3-11.9-22-24.2-24.2l-10.4-1.8c-5.4-1-10.6,2.7-11.6,8.1
	c-1,5.4,2.7,10.6,8.1,11.6l10.4,1.8c4.1,0.7,7.3,3.9,8,8l14.1,79.4c2.2,12.4,12.9,21.4,25.5,21.4h83.5c11.4,0.1,21.5-7.4,24.8-18.4
	l18.7-61.9c0.9-3,0.3-6.3-1.5-8.9C280,132.1,277,130.6,273.8,130.5z M245.5,199.5c-0.7,2.5-3,4.2-5.6,4.2h-83.5
	c-2.9,0-5.3-2.1-5.8-4.9l-8.6-48.3h118.3L245.5,199.5z"/>
<path class="st0" d="M235.4,225.2c-15.2,0-27.6,12.4-27.6,27.6c0,15.2,12.4,27.6,27.6,27.6c15.2,0,27.6-12.4,27.6-27.6
	C263,237.6,250.6,225.2,235.4,225.2z M235.4,260.5c-4.2,0-7.6-3.4-7.6-7.6c0-4.2,3.4-7.6,7.6-7.6c4.2,0,7.6,3.4,7.6,7.6
	C243,257.1,239.6,260.5,235.4,260.5z"/>
<path class="st0" d="M326.1,311.9c66.4-73.9,63.4-186.9-6.9-257.1c-72.9-72.9-191.5-72.9-264.4,0c-71.6,71.6-73.2,187.3-3.5,260.8
	c69.7,73.5,185.3,78.1,260.6,10.4l90,90c1.9,1.9,4.4,2.9,7.1,2.9c2.7,0,5.2-1.1,7.1-2.9c1.9-1.9,2.9-4.4,2.9-7c0-2.6-1.1-5.2-2.9-7
	L326.1,311.9z M187,353.9c-79.6,0-148.2-56.3-163.7-134.4C7.8,141.4,49.6,63.2,123.2,32.7C196.8,2.3,281.6,28,325.9,94.2
	c44.2,66.2,35.5,154.5-20.8,210.8C273.8,336.4,231.3,354,187,353.9z"/>
</svg>
