<?xml version="1.0" encoding="utf-8"?>
<!-- Generator: Adobe Illustrator 23.0.2, SVG Export Plug-In . SVG Version: 6.00 Build 0)  -->
<svg version="1.1" id="Capa_1" xmlns="http://www.w3.org/2000/svg" xmlns:xlink="http://www.w3.org/1999/xlink" x="0px" y="0px"
	 viewBox="0 0 512 512" style="enable-background:new 0 0 512 512;" xml:space="preserve">
<style type="text/css">
	.st0{fill:#E8A60C;}
	.st1{fill:#B58109;}
	.st2{fill:#CCCCCC;}
	.st3{fill:#B3B3B3;}
	.st4{fill:#0375B4;}
	.st5{fill:#F3E8D6;}
	.st6{fill:#3E93C1;}
	.st7{fill:#035582;}
</style>
<path class="st0" d="M104.1,159.3l48.4,191.1l290.8,0.5c5.9,0,11.1-4,12.6-9.7l42.4-164.9c2.1-8.2-4.1-16.2-12.5-16.2L104.1,159.3z"
	/>
<path class="st1" d="M455.9,341.1l10.9-42.4l31.5-122.6c0.1-0.5,0.2-1,0.3-1.4c0-0.2,0-0.3,0-0.5c0-0.3,0.1-0.6,0.1-0.9
	c0-0.2,0-0.4,0-0.6c0-0.2,0-0.4,0-0.7c0-0.1,0-0.1,0-0.2c0-0.2,0-0.4-0.1-0.6c0-0.3-0.1-0.5-0.1-0.8c0-0.2-0.1-0.4-0.1-0.6
	c-0.1-0.2-0.1-0.5-0.2-0.7c-0.1-0.2-0.1-0.4-0.2-0.6c-0.1-0.2-0.2-0.5-0.3-0.7c-0.1-0.2-0.2-0.4-0.2-0.6c-0.1-0.1-0.1-0.3-0.2-0.4
	c-0.1-0.2-0.2-0.5-0.4-0.7c0-0.1-0.1-0.2-0.2-0.2c-0.2-0.3-0.4-0.6-0.6-0.8c-0.1-0.1-0.1-0.2-0.2-0.2c-0.2-0.3-0.5-0.6-0.8-0.9
	c-0.1-0.1-0.2-0.2-0.2-0.2c-0.3-0.3-0.5-0.5-0.8-0.8c-0.1-0.1-0.2-0.1-0.2-0.2c-0.3-0.2-0.6-0.5-1-0.7c-0.1,0-0.1-0.1-0.2-0.1
	c-0.3-0.2-0.7-0.4-1-0.6c0,0-0.1,0-0.1-0.1c-0.4-0.2-0.8-0.4-1.2-0.5c-0.1,0-0.1-0.1-0.2-0.1c-0.4-0.1-0.8-0.3-1.2-0.4
	c-0.1,0-0.2,0-0.2-0.1c-0.4-0.1-0.9-0.2-1.3-0.2c-0.1,0-0.1,0-0.2,0c-0.5-0.1-0.9-0.1-1.4-0.1l-39.8-0.1c5.7,3,9.6,10.1,8,16.3
	l-36.7,143c-2.4,9.4-10.9,16-20.7,16l-244-0.4L108,159.3l-4,0l48.4,191.1l290.8,0.5c0.7,0,1.5-0.1,2.2-0.2c1.8-0.3,3.5-1,4.9-1.9
	c1.6-1,2.9-2.4,3.9-4.1C455,343.6,455.6,342.4,455.9,341.1z"/>
<path class="st2" d="M469.1,424.4l-301.7-0.5c-6.6,0-12.4-4.5-14-10.9L76.9,110.6l-60.5-24c-7.4-2.9-11-11.3-8.1-18.8
	s11.3-11,18.8-8.1l67.4,26.7c4.3,1.7,7.5,5.4,8.7,9.9L178.7,395l290.4,0.5c8,0,14.4,6.5,14.4,14.5C483.5,418,477,424.4,469.1,424.4z
	"/>
<path class="st3" d="M483.5,410c0-0.3,0-0.7,0-1l-316.8-0.5L90.6,107.2c-1.1-4.5-4.4-8.2-8.7-9.9L14.5,70.6
	c-2.3-0.9-4.6-1.2-6.9-0.9c-0.7,3-0.5,6,0.6,8.7c0,0.1,0.1,0.2,0.1,0.2c0.1,0.3,0.3,0.6,0.4,0.9c0.1,0.1,0.1,0.2,0.2,0.4
	c0.1,0.2,0.3,0.5,0.4,0.7c0.1,0.1,0.2,0.3,0.3,0.4c0.1,0.2,0.3,0.4,0.4,0.6c0.1,0.2,0.2,0.3,0.4,0.5c0.1,0.2,0.3,0.4,0.5,0.6
	c0.1,0.2,0.3,0.3,0.4,0.5c0.2,0.2,0.3,0.3,0.5,0.5c0.2,0.2,0.4,0.3,0.5,0.5c0.2,0.1,0.3,0.3,0.5,0.4c0.2,0.2,0.4,0.3,0.6,0.5
	c0.2,0.1,0.3,0.2,0.5,0.3c0.3,0.2,0.5,0.3,0.8,0.5c0.1,0.1,0.3,0.2,0.4,0.2c0.4,0.2,0.8,0.4,1.3,0.6l60.5,24L153.4,413
	c1.6,6.4,7.4,10.9,14,10.9l301.7,0.5C477,424.4,483.5,418,483.5,410z"/>
<circle class="st4" cx="173.9" cy="412.7" r="40.2"/>
<path class="st1" d="M202.3,384.4C202.3,384.3,202.3,384.3,202.3,384.4l-56.9,56.8c15.7,15.7,41.1,15.7,56.8,0.1
	C217.9,425.5,218,400.1,202.3,384.4z"/>
<path class="st5" d="M173.8,426.6c-7.6,0-13.8-6.2-13.8-13.9c0-7.6,6.2-13.8,13.9-13.8c7.6,0,13.8,6.2,13.8,13.9
	C187.7,420.4,181.5,426.6,173.8,426.6z"/>
<circle class="st4" cx="409.4" cy="413.1" r="40.2"/>
<path class="st1" d="M437.9,384.7L381,441.5c7.3,7.3,17.3,11.7,28.3,11.8c22.2,0,40.2-17.9,40.2-40.1
	C449.6,402.1,445.1,392,437.9,384.7z"/>
<circle class="st6" cx="400.6" cy="203.1" r="104.2"/>
<g>
	<path class="st0" d="M379.6,166.1c10.3,0,19.8,6.8,19.8,18c0,19.1-28.1,25.3-28.1,34.5l0,2.1l24.6,0c1.9,0,3.6,2.3,3.6,5
		c0,2.7-1.7,5.1-3.6,5.1l-31.5-0.1c-2,0-5-1.4-5-3.6l0-8.6c0-14.2,28.5-21.6,28.6-34.1c0-3.6-2.4-7.9-8.2-7.9
		c-4.3,0-7.9,2.3-7.9,7.8c0,2.1-2.2,4.2-6,4.2c-3,0-5.2-1.4-5.2-6.2C360.5,172.3,369.7,166.1,379.6,166.1z"/>
	<path class="st0" d="M424.8,216.8l-21.2,0c-2.2,0-3.9-1.5-3.9-4.1c0-0.7,0.2-1.5,0.6-2.3l21.1-41.2c1.1-2.2,3-3,4.9-3
		c2,0,5.8,1.8,5.7,4.4c0,0.4-0.2,1-0.4,1.5l-17.1,34l10.4,0l0-9.3c0-2.6,2.9-3.6,5.8-3.6c2.9,0,5.8,1.1,5.7,3.6l0,9.3l4.2,0
		c2.4,0,3.6,2.7,3.6,5.4c0,2.7-1.8,5.3-3.6,5.3l-4.2,0l0,10.4c0,2.4-2.8,3.6-5.8,3.6c-2.8,0-5.8-1.2-5.7-3.6L424.8,216.8z"/>
</g>
<g>
	<path class="st0" d="M412.4,138.1l-5.7,3.1c-3.5,1.9-4.8,6.3-2.9,9.8c1.3,2.4,3.8,3.8,6.3,3.8c1.2,0,2.3-0.3,3.4-0.9l20.7-11.2
		c1.9-1.1,3.3-2.9,3.7-5.1c0.4-2.2-0.3-4.4-1.8-6L420.3,114c-2.7-3-7.2-3.2-10.2-0.5c-2.8,2.5-3.1,6.7-0.9,9.7
		c-23.5-2.5-47.5,5.5-64.8,22.7c-23.4,23.3-29.9,59.1-16.4,89.2c1.2,2.7,3.8,4.2,6.6,4.2c1,0,2-0.2,3-0.6c3.6-1.6,5.2-5.9,3.6-9.5
		c-11.1-24.6-5.7-54,13.4-73C369.9,140.8,391.7,134.3,412.4,138.1z"/>
	<path class="st0" d="M473.3,169.5c-1.6-3.6-5.9-5.2-9.5-3.6c-3.6,1.6-5.2,5.9-3.6,9.5c11.1,24.6,5.7,54-13.4,73
		c-14.3,14.2-34.3,20.8-53.7,18.5l2.2-0.9c3.7-1.5,5.5-5.7,4-9.4c-1.5-3.7-5.7-5.5-9.4-4l-21.3,8.6c-1.2,0.4-2.3,1.1-3.2,2
		c-0.8,0.8-1.3,1.8-1.6,2.9c-0.6,2.1-0.2,4.4,1,6.2l13.7,19.2c1.4,2,3.6,3,5.9,3c1.4,0,2.9-0.4,4.2-1.3c3.2-2.3,4-6.8,1.7-10
		l-1.7-2.3c4,0.6,8,0.9,12,0.9c20.7,0,41.2-8,56.4-23.2C480.2,235.4,486.8,199.5,473.3,169.5z"/>
</g>
<path class="st5" d="M409.4,427.1c-7.6,0-13.8-6.2-13.8-13.9s6.2-13.8,13.9-13.8c7.6,0,13.8,6.2,13.8,13.9
	C423.3,421,417.1,427.2,409.4,427.1z"/>
<path class="st7" d="M201.1,314.5c0.8,3.3,3.8,5.4,7,5.4c0.6,0,1.2-0.1,1.8-0.2c3.9-1,6.2-4.9,5.2-8.7l-14.5-57.1
	c-1-3.9-4.9-6.2-8.7-5.2c-3.9,1-6.2,4.9-5.2,8.7L201.1,314.5z"/>
<path class="st7" d="M184.3,189.5c-1-3.9-4.9-6.2-8.7-5.2c-3.9,1-6.2,4.9-5.2,8.7l3.8,15c0.8,3.3,3.8,5.4,7,5.4
	c0.6,0,1.2-0.1,1.8-0.2c3.9-1,6.2-4.9,5.2-8.7L184.3,189.5z"/>
<path class="st7" d="M263.6,184.2c-4,0.3-6.9,3.8-6.6,7.8l10.1,121.4c0.3,3.8,3.5,6.6,7.2,6.6c0.2,0,0.4,0,0.6,0
	c4-0.3,6.9-3.8,6.6-7.8l-10.1-121.4C271,186.8,267.5,183.9,263.6,184.2z"/>
<path class="st7" d="M469.1,388.3l-19.4,0c-8.3-13.5-23.2-22.5-40.2-22.6c0,0-0.1,0-0.1,0c-17,0-31.9,9-40.2,22.4l-155-0.3
	c-1.9-3.1-4.1-6-6.8-8.6c-8-8.1-18.3-12.6-28.8-13.7l-2-8l266.7,0.5c0,0,0,0,0,0c9.2,0,17.2-6.2,19.5-15.2l7.2-28.2
	c1-3.9-1.3-7.8-5.2-8.8c-3.8-1-7.8,1.3-8.8,5.2l-7.2,28.2c-0.7,2.6-3,4.3-5.6,4.3c0,0,0,0,0,0L173,343.2l0,0l-44.7-176.6l150.4,0.3
	c0,0,0,0,0,0c4,0,7.2-3.2,7.2-7.2c0-4-3.2-7.2-7.2-7.2l-154.1-0.3L110,94.6c-1.7-6.7-6.6-12.3-13-14.8L29.6,53
	c-11.1-4.4-23.7,1-28.1,12.1c-2.1,5.4-2,11.3,0.2,16.6s6.5,9.4,11.9,11.5l57.1,22.7l67.3,265.8c-16.1,18.6-15.4,46.8,2.2,64.4
	c9.2,9.3,21.4,13.9,33.6,13.9c12.1,0,24.2-4.6,33.4-13.8c4.5-4.5,7.9-9.6,10.2-15.1l148.3,0.3c7.2,17,24,29,43.6,29c0,0,0.1,0,0.1,0
	c12.6,0,24.5-4.9,33.4-13.8c4.4-4.4,7.8-9.5,10.2-15.1l16,0c0,0,0,0,0,0c5.8,0,11.2-2.2,15.3-6.3c4.1-4.1,6.4-9.5,6.4-15.3
	s-2.2-11.2-6.3-15.3C480.3,390.6,474.9,388.3,469.1,388.3z M83.8,108.8c-0.6-2.2-2.2-4.1-4.3-4.9L19,79.9c-1.8-0.7-3.2-2.1-4-3.9
	s-0.8-3.7-0.1-5.5c1.1-2.8,3.9-4.6,6.7-4.6c0.9,0,1.8,0.2,2.7,0.5l67.4,26.7c2.2,0.9,3.8,2.7,4.4,5L164,366.4
	c-1.9,0.4-3.8,0.9-5.6,1.6c-0.2,0.1-0.3,0.1-0.5,0.2c-0.5,0.2-1,0.4-1.5,0.5c-0.2,0.1-0.5,0.2-0.7,0.3c-0.4,0.2-0.8,0.3-1.1,0.5
	c-0.3,0.1-0.6,0.3-0.9,0.4c-0.3,0.1-0.6,0.3-0.9,0.4c-0.7,0.3-1.4,0.7-2.1,1.1c-0.1,0.1-0.3,0.1-0.4,0.2L83.8,108.8z M197.1,436.1
	c-6.2,6.2-14.5,9.6-23.3,9.6c0,0,0,0-0.1,0c-8.8,0-17.1-3.5-23.3-9.7c-12.8-12.9-12.8-33.8,0.1-46.6c0.1-0.1,0.3-0.2,0.4-0.4
	c0,0,0,0,0.1,0c6-5.8,13.8-9,22.1-9.2c0,0,0,0,0,0c0.2,0,0.5,0,0.7,0c0,0,0,0,0.1,0c8.8,0,17.1,3.5,23.3,9.7c2.7,2.7,4.8,5.8,6.4,9
	c0.1,0.3,0.3,0.6,0.4,0.9c0.1,0.2,0.2,0.4,0.3,0.6c0.1,0.2,0.2,0.5,0.3,0.7c0.1,0.3,0.2,0.6,0.3,0.9c0.1,0.2,0.1,0.3,0.2,0.5
	c0.1,0.4,0.3,0.8,0.4,1.2c0,0.1,0,0.1,0.1,0.2C208.8,414.7,206,427.3,197.1,436.1z M363.1,403.2c-0.1,0.3-0.1,0.5-0.2,0.8
	c-0.1,0.5-0.2,1-0.3,1.6c-0.1,0.3-0.1,0.6-0.1,1c-0.1,0.5-0.1,1-0.2,1.5c0,0.4-0.1,0.9-0.1,1.3c0,0.4-0.1,0.8-0.1,1.1
	c0,0.8-0.1,1.7-0.1,2.5l0,0l0,0c0,0.7,0,1.5,0.1,2.2c0,0.3,0,0.6,0.1,0.9c0,0.3,0,0.6,0.1,0.9l-141.2-0.2c0.4-4.9,0.1-9.7-1-14.5
	l143.2,0.2C363.2,402.8,363.2,403,363.1,403.2z M442.3,415.3c0,0.1,0,0.3,0,0.4c-0.2,2.2-0.6,4.5-1.2,6.7c0,0.1,0,0.1,0,0.2
	c-1.5,5.2-4.4,10-8.3,13.9c-6.2,6.2-14.5,9.6-23.3,9.6c0,0,0,0-0.1,0c-15,0-27.7-10.2-31.7-24c-0.2-0.7-0.4-1.4-0.5-2.1
	c0,0,0,0,0-0.1c-0.2-0.7-0.3-1.5-0.4-2.2c0-0.1,0-0.2,0-0.2c-0.1-0.6-0.1-1.2-0.2-1.9c0-0.2,0-0.3,0-0.5c0-0.7-0.1-1.4-0.1-2.1
	c0-0.6,0-1.2,0.1-1.8c0-0.2,0-0.4,0-0.6c0-0.4,0.1-0.8,0.1-1.1c0-0.2,0.1-0.5,0.1-0.7c0-0.3,0.1-0.7,0.1-1c0-0.2,0.1-0.5,0.1-0.7
	c0.1-0.4,0.1-0.7,0.2-1.1c0-0.2,0.1-0.4,0.1-0.6c0.1-0.5,0.2-1,0.4-1.5c0-0.1,0-0.1,0-0.2c0.5-1.8,1.2-3.5,2-5.2c0,0,0-0.1,0-0.1
	c1.6-3.2,3.7-6.1,6.3-8.7c6.2-6.2,14.5-9.6,23.3-9.6c0,0,0,0,0.1,0c13.1,0,24.4,7.7,29.7,18.7c0,0.1,0,0.1,0.1,0.2
	c0.4,0.8,0.8,1.7,1.1,2.6c0,0.1,0.1,0.2,0.1,0.2c0.1,0.4,0.3,0.8,0.4,1.2c0,0.1,0.1,0.3,0.1,0.4c0.1,0.4,0.2,0.8,0.3,1.2
	c0,0.2,0.1,0.3,0.1,0.5c0.1,0.4,0.2,0.8,0.3,1.1c0,0.2,0.1,0.4,0.1,0.6c0.1,0.4,0.1,0.7,0.2,1.1c0,0.2,0.1,0.5,0.1,0.7
	c0,0.3,0.1,0.7,0.1,1c0,0.3,0.1,0.6,0.1,1c0,0.3,0,0.5,0.1,0.8c0,0.6,0,1.2,0,1.8c0,0,0,0,0,0C442.4,413.9,442.4,414.6,442.3,415.3z
	 M474.2,415.1c-1.4,1.4-3.2,2.1-5.1,2.1c0,0,0,0,0,0l-12.4,0c0-0.3,0-0.5,0.1-0.8c0-0.4,0.1-0.7,0.1-1.1c0-0.7,0.1-1.4,0.1-2.2
	c0,0,0,0,0,0l0,0l0,0c0,0,0,0,0,0c0-0.8,0-1.7-0.1-2.5c0-0.4-0.1-0.8-0.1-1.2c0-0.4-0.1-0.9-0.1-1.3c0-0.5-0.1-1-0.2-1.4
	c0-0.3-0.1-0.7-0.1-1c-0.1-0.5-0.2-1-0.3-1.6c-0.1-0.3-0.1-0.6-0.2-0.8c0-0.2-0.1-0.4-0.1-0.7l13.4,0c1.9,0,3.8,0.8,5.1,2.1
	c1.4,1.4,2.1,3.2,2.1,5.1C476.3,411.9,475.6,413.8,474.2,415.1z"/>
<path class="st7" d="M335,293.1l-1.7,19.2c-0.3,4,2.6,7.5,6.5,7.8c0.2,0,0.4,0,0.6,0c3.7,0,6.8-2.8,7.2-6.6l1-11.9
	c16.2,8.5,34.1,12.8,52,12.8c28.5,0,56.9-10.8,78.6-32.4c43.5-43.4,43.6-114,0.3-157.5s-114-43.6-157.5-0.3
	c-43.5,43.4-43.6,114-0.3,157.5C325.9,285.9,330.3,289.7,335,293.1z M332.2,134.4c18.9-18.8,43.7-28.2,68.5-28.2
	c24.9,0,49.8,9.5,68.7,28.5c37.8,37.9,37.6,99.4-0.2,137.2s-99.4,37.6-137.2-0.2C294.2,233.7,294.3,172.1,332.2,134.4z"/>
<path class="st7" d="M173.9,391.6C173.9,391.6,173.9,391.6,173.9,391.6c-11.6,0-21.1,9.4-21.1,21c0,5.6,2.2,10.9,6.1,14.9
	s9.3,6.2,14.9,6.2c0,0,0,0,0,0c5.6,0,10.9-2.2,14.9-6.1c4-4,6.2-9.3,6.2-14.9s-2.2-10.9-6.1-14.9
	C184.8,393.9,179.5,391.7,173.9,391.6z M178.6,417.4c-1.3,1.3-2.9,1.9-4.7,1.9c0,0,0,0,0,0l0,0c-1.8,0-3.4-0.7-4.7-2
	c-1.3-1.3-1.9-2.9-1.9-4.7c0-3.7,3-6.6,6.7-6.6c0,0,0,0,0,0c1.8,0,3.4,0.7,4.7,2c1.3,1.3,1.9,2.9,1.9,4.7
	C180.5,414.5,179.8,416.2,178.6,417.4z"/>
<path class="st7" d="M409.5,392.2C409.5,392.2,409.5,392.2,409.5,392.2c-11.6,0-21.1,9.4-21.1,21c0,11.6,9.4,21.1,21,21.1
	c0,0,0,0,0,0c11.6,0,21-9.4,21.1-21C430.5,401.7,421.1,392.3,409.5,392.2z M409.5,420C409.5,420,409.5,420,409.5,420L409.5,420
	c-3.7,0-6.7-3-6.7-6.7c0-3.7,3-6.6,6.7-6.6c0,0,0,0,0,0c3.7,0,6.7,3,6.6,6.7C416.1,417,413.1,420,409.5,420z"/>
</svg>
