<?xml version="1.0" encoding="utf-8"?>
<!-- Generator: Adobe Illustrator 23.0.2, SVG Export Plug-In . SVG Version: 6.00 Build 0)  -->
<svg version="1.1" id="Capa_1" xmlns="http://www.w3.org/2000/svg" xmlns:xlink="http://www.w3.org/1999/xlink" x="0px" y="0px"
	 viewBox="0 0 512 512" style="enable-background:new 0 0 512 512;" xml:space="preserve">
<style type="text/css">
	.st0{fill:#E8A60C;}
	.st1{fill:#035582;}
	.st2{fill:#3E93C1;}
	.st3{fill:#0375B4;}
	.st4{fill:#E8EAE9;}
	.st5{fill:#F3F3F3;}
	.st6{fill:#E5E5E5;}
	.st7{fill:#55C0EB;}
</style>
<rect x="33.1" y="136.5" class="st0" width="444.8" height="330.7"/>
<rect x="283.7" y="228.3" class="st1" width="162.1" height="238.9"/>
<rect x="299.7" y="244.3" class="st2" width="130.1" height="206.9"/>
<path class="st3" d="M0,102.4v48c0,28.8,22.4,51.2,51.2,51.2s51.2-22.4,51.2-51.2v-48C102.4,102.4,0,102.4,0,102.4z"/>
<path class="st4" d="M102.4,102.4v48c0,28.8,22.4,51.2,51.2,51.2s51.2-22.4,51.2-51.2v-48C204.8,102.4,102.4,102.4,102.4,102.4z"/>
<path class="st3" d="M204.8,102.4v48c0,28.8,22.4,51.2,51.2,51.2s51.2-22.4,51.2-51.2v-48C307.2,102.4,204.8,102.4,204.8,102.4z"/>
<path class="st4" d="M307.2,102.4v48c0,28.8,22.4,51.2,51.2,51.2c28.8,0,51.2-22.4,51.2-51.2v-48
	C409.6,102.4,307.2,102.4,307.2,102.4z"/>
<path class="st3" d="M409.6,102.4v48c0,28.8,22.4,51.2,51.2,51.2s51.2-22.4,51.2-51.2v-48C512,102.4,409.6,102.4,409.6,102.4z"/>
<polygon class="st2" points="124.8,0 37.3,0 0,102.4 102.4,102.4 "/>
<polygon class="st5" points="212.3,0 124.8,0 102.4,102.4 204.8,102.4 "/>
<polygon class="st2" points="299.7,0 212.3,0 204.8,102.4 307.2,102.4 "/>
<polygon class="st5" points="387.2,0 299.7,0 307.2,102.4 409.6,102.4 "/>
<polygon class="st2" points="474.7,0 387.2,0 409.6,102.4 512,102.4 "/>
<rect y="467.2" class="st6" width="512" height="44.8"/>
<g>
	<circle class="st1" cx="320" cy="347.7" r="13.9"/>
	<rect x="65.1" y="228.3" class="st1" width="180.3" height="162.1"/>
</g>
<rect x="81.1" y="244.3" class="st2" width="148.3" height="130.1"/>
<g>
	<path class="st7" d="M158.9,264.5c-2.1-2.1-7.5-2.1-9.6,0l-52.3,52.3c-2.1,2.1-2.1,7.5,0,9.6s7.5,2.1,9.6,0l52.3-52.3
		C162.1,270.9,162.1,266.7,158.9,264.5z"/>
	<path class="st7" d="M170.7,295.5c-2.1-2.1-7.5-2.1-9.6,0L128,328.5c-2.1,2.1-2.1,7.5,0,9.6c2.1,2.1,7.5,2.1,9.6,0l33.1-33.1
		C173.9,301.9,173.9,297.6,170.7,295.5z"/>
</g>
</svg>
