<svg width="30" height="30" viewBox="0 0 30 30" fill="none" xmlns="http://www.w3.org/2000/svg">
<path d="M3.4375 0H26.5625C28.4588 0 30 1.54125 30 3.4375V26.5625C30 28.4587 28.4588 30 26.5625 30H3.4375C1.54125 30 0 28.4587 0 26.5625V3.4375C0 1.54125 1.54125 0 3.4375 0ZM10 21.25H20C20.6912 21.25 21.25 20.69 21.25 20C21.25 19.31 20.6912 18.75 20 18.75H10C9.30875 18.75 8.75 19.31 8.75 20C8.75 20.69 9.30875 21.25 10 21.25ZM10 16.25H20C20.6912 16.25 21.25 15.69 21.25 15C21.25 14.31 20.6912 13.75 20 13.75H10C9.30875 13.75 8.75 14.31 8.75 15C8.75 15.69 9.30875 16.25 10 16.25ZM10 11.25H20C20.6912 11.25 21.25 10.69 21.25 10C21.25 9.31 20.6912 8.75 20 8.75H10C9.30875 8.75 8.75 9.31 8.75 10C8.75 10.69 9.30875 11.25 10 11.25Z" fill="#3E93C1"/>
</svg>
