<?xml version="1.0" encoding="utf-8"?>
<!-- Generator: Adobe Illustrator 23.0.2, SVG Export Plug-In . SVG Version: 6.00 Build 0)  -->
<svg version="1.1" id="Capa_1" xmlns="http://www.w3.org/2000/svg" xmlns:xlink="http://www.w3.org/1999/xlink" x="0px" y="0px"
	 viewBox="0 0 512 512" style="enable-background:new 0 0 512 512;" xml:space="preserve">
<style type="text/css">
	.st0{fill:#3E93C1;}
</style>
<g>
	<g>
		<path class="st0" d="M256,0C114.8,0,0,114.8,0,256s114.8,256,256,256s256-114.9,256-256S397.2,0,256,0z M256,472.3
			c-119.3,0-216.3-97-216.3-216.3S136.7,39.7,256,39.7c119.3,0,216.3,97,216.3,216.3S375.3,472.3,256,472.3z"/>
	</g>
</g>
<g>
	<g>
		<path class="st0" d="M369.2,283.4l-99.1-99.1c-7.7-7.7-20.2-7.7-28,0L143,283.4c-6.4,7.4-6.4,18.4,0,25.8c7.1,8.3,19.7,9.3,28,2.2
			l85.1-85.1l85.3,85.1c7.7,7.7,20.2,7.7,28,0C376.9,303.6,376.9,291.1,369.2,283.4z"/>
	</g>
</g>
</svg>
