<?xml version="1.0" encoding="utf-8"?>
<!-- Generator: Adobe Illustrator 23.0.2, SVG Export Plug-In . SVG Version: 6.00 Build 0)  -->
<svg version="1.1" id="Capa_1" xmlns="http://www.w3.org/2000/svg" xmlns:xlink="http://www.w3.org/1999/xlink" x="0px" y="0px"
	 viewBox="0 0 47 47" style="enable-background:new 0 0 47 47;" xml:space="preserve">
<style type="text/css">
	.st0{fill:#3E93C1;}
</style>
<g>
	<g id="Layer_1_1_">
		<g>
			<g>
				<path class="st0" d="M20.7,15.8c0.2-2.5,1.1-4.9,2.5-6.8c-1.1-5.1-5.7-9-11.2-9C5.8,0,0.6,5.1,0.6,11.4c0,5.5,3.9,10.1,9,11.2
					C12.3,19.1,16.2,16.6,20.7,15.8z M7.5,14.1c0-0.4,0.3-0.7,0.7-0.7h2.3v-0.5l-0.3-0.5h-2c-0.4,0-0.7-0.3-0.7-0.7s0.3-0.7,0.7-0.7
					h1.2L6.9,6.7C6.8,6.5,6.6,6.2,6.6,6c0-1,1-1.4,1.6-1.4c0.8,0,1.2,0.6,1.3,0.9l2.5,4.8l2.5-4.8c0.1-0.3,0.5-0.9,1.3-0.9
					c0.7,0,1.6,0.3,1.6,1.4c0,0.3-0.1,0.5-0.3,0.8l-2.5,4.1h1.2c0.4,0,0.7,0.3,0.7,0.7s-0.3,0.7-0.7,0.7h-2l-0.3,0.5v0.5h2.3
					c0.4,0,0.7,0.3,0.7,0.7s-0.3,0.7-0.7,0.7h-2.3v1.9c0,0.9-0.5,1.5-1.5,1.5c-0.9,0-1.5-0.6-1.5-1.5v-1.9H8.2
					C7.8,14.9,7.5,14.6,7.5,14.1z"/>
			</g>
			<g>
				<path class="st0" d="M34.9,5.7c-5.8,0-10.5,4.3-11.3,9.9c2.2,0,4.3,0.4,6.2,1.2c0.1-0.3,0.4-0.5,0.8-0.5H31
					c-0.4-0.6-0.6-1.3-0.6-2c0-2.3,2.1-4,4.7-4c3.3,0,4.9,1.8,4.9,3.2c0,0.9-0.6,1.3-1.4,1.3c-1.7,0-0.6-2.3-3.2-2.3
					c-1.1,0-2.2,0.7-2.2,1.9c0,0.6,0.3,1.3,0.6,1.9H36c0.8,0,1.2,0.3,1.2,0.9s-0.4,0.9-1.2,0.9h-1.5c0.1,0.2,0.1,0.3,0.1,0.5
					c0,0.3-0.1,0.6-0.2,0.9c0.6,0.5,1.2,1.1,1.7,1.7c0.5,0.1,1,0.2,1.5,0.2c0.3,0,1.1-0.2,1.4-0.2c0.7,0,1.1,0.5,1.1,1.2
					c0,1.1-1,1.5-1.9,1.6c0.7,1.1,1.2,2.3,1.6,3.5c3.9-1.8,6.5-5.8,6.5-10.3C46.4,10.8,41.2,5.7,34.9,5.7z"/>
			</g>
			<g>
				<path class="st0" d="M24.3,34.1v4.7c1.4-0.1,2.9-0.8,2.9-2.3C27.2,34.8,25.5,34.4,24.3,34.1z"/>
			</g>
			<g>
				<path class="st0" d="M20.2,28.5c0,1.2,0.9,1.9,2.6,2.2v-4.2C21.2,26.5,20.2,27.5,20.2,28.5z"/>
			</g>
			<g>
				<path class="st0" d="M23.5,18.4c-7.9,0-14.3,6.4-14.3,14.3S15.6,47,23.5,47s14.3-6.4,14.3-14.3S31.4,18.4,23.5,18.4z M24.3,41.2
					v1.5c0,0.4-0.3,0.8-0.7,0.8c-0.4,0-0.7-0.4-0.7-0.8v-1.5c-4-0.1-6-2.5-6-4.3c0-0.9,0.6-1.5,1.5-1.5c2.6,0,0.6,3.3,4.5,3.4v-4.9
					c-3.5-0.6-5.6-2.2-5.6-4.8c0-3.2,2.7-4.9,5.6-5v-1.3c0-0.4,0.3-0.8,0.7-0.8c0.4,0,0.7,0.4,0.7,0.8v1.3c1.8,0,5.6,1.2,5.6,3.5
					c0,0.9-0.7,1.5-1.5,1.5c-1.5,0-1.5-2.5-4.1-2.6V31c3.1,0.7,5.9,1.6,5.9,5.2C30.1,39.3,27.8,41,24.3,41.2z"/>
			</g>
		</g>
	</g>
</g>
</svg>
