<?xml version="1.0" encoding="utf-8"?>
<!-- Generator: Adobe Illustrator 23.0.2, SVG Export Plug-In . SVG Version: 6.00 Build 0)  -->
<svg version="1.1" id="Layer_1" xmlns="http://www.w3.org/2000/svg" xmlns:xlink="http://www.w3.org/1999/xlink" x="0px" y="0px"
	 viewBox="0 0 512 512" style="enable-background:new 0 0 512 512;" xml:space="preserve">
<style type="text/css">
	.st0{fill:#3E93C1;}
</style>
<path class="st0" d="M511.9,256c0-68.3-26.6-132.6-74.9-180.9c-47.5-47.5-110.4-74-177.5-74.9C258.3,0.1,257.1,0,256,0
	s-2.3,0.1-3.5,0.2C185.5,1.1,122.6,27.6,75,75.1C26.8,123.4,0.1,187.7,0.1,256S26.7,388.6,75,436.9c47.5,47.5,110.4,74,177.5,74.9
	c1.2,0.1,2.3,0.2,3.5,0.2c1.2,0,2.3-0.1,3.5-0.2c67-0.9,129.9-27.4,177.5-74.9C485.2,388.6,511.9,324.3,511.9,256z M31.1,271.2h89.6
	c1.2,31.1,6,61.5,14.2,90H56.5C41.9,333.5,33.2,303,31.1,271.2z M480.9,240.8h-89.6c-1.2-31.1-6-61.5-14.2-90h78.4
	C470.1,178.5,478.8,209,480.9,240.8z M360.9,240.8h-89.7v-90h74.2C354.3,179,359.6,209.5,360.9,240.8z M271.2,120.4V36.7
	c12.7,8.3,29.7,24.9,45.6,50.8c6.4,10.4,12.1,21.4,17.2,33C334,120.4,271.2,120.4,271.2,120.4z M240.8,36.7v83.7H178
	c5.1-11.6,10.8-22.6,17.2-33C211.1,61.6,228.1,45,240.8,36.7z M240.8,150.8v90h-89.7c1.3-31.3,6.6-61.8,15.5-90H240.8z M120.7,240.8
	H31.1c2.1-31.8,10.8-62.3,25.4-90h78.4C126.7,179.3,121.9,209.7,120.7,240.8z M151.1,271.2h89.7v90h-74.2
	C157.7,333,152.4,302.5,151.1,271.2z M240.8,391.6v83.7c-12.7-8.3-29.7-24.9-45.6-50.8c-6.4-10.4-12.1-21.4-17.2-33h62.8V391.6z
	 M271.2,475.3v-83.7H334c-5.1,11.6-10.8,22.6-17.2,33C300.9,450.4,283.9,467,271.2,475.3z M271.2,361.2v-90h89.7
	c-1.3,31.3-6.6,61.8-15.5,90H271.2z M391.3,271.2h89.6c-2.1,31.8-10.8,62.3-25.4,90h-78.4C385.3,332.7,390.1,302.3,391.3,271.2z
	 M436.1,120.4h-69.2c-6.8-17.4-14.9-33.8-24.2-48.9c-7.3-11.9-15.2-22.6-23.3-31.9c35.9,10.5,68.8,29.8,96,57
	C422.9,104.1,429.8,112.1,436.1,120.4z M192.6,39.6c-8.1,9.3-16,20-23.3,31.9c-9.3,15.1-17.4,31.6-24.2,48.9H75.9
	c6.3-8.3,13.2-16.3,20.7-23.8C123.8,69.4,156.7,50,192.6,39.6z M75.9,391.6h69.2c6.8,17.4,14.9,33.8,24.2,48.9
	c7.3,11.9,15.2,22.6,23.3,31.9c-35.9-10.5-68.8-29.8-96-57C89.1,407.9,82.2,399.9,75.9,391.6z M319.4,472.4c8.1-9.3,16-20,23.3-31.9
	c9.3-15.1,17.4-31.6,24.2-48.9h69.2c-6.3,8.3-13.2,16.3-20.7,23.8C388.2,442.6,355.3,462,319.4,472.4z"/>
</svg>
