<?xml version="1.0" encoding="utf-8"?>
<!-- Generator: Adobe Illustrator 19.0.0, SVG Export Plug-In . SVG Version: 6.00 Build 0)  -->
<svg version="1.1" id="Layer_1" xmlns="http://www.w3.org/2000/svg" xmlns:xlink="http://www.w3.org/1999/xlink" x="0px" y="0px"
	 viewBox="0 0 500 500" style="enable-background:new 0 0 500 500;" xml:space="preserve">
<style type="text/css">
	.st0{fill:#E43225;}
	.st1{fill:#F7971D;}
</style>
<g id="XMLID_1_">
	<g id="XMLID_2_">
		<path id="XMLID_3_" class="st0" d="M157.1,271.6v-57h33.7v7.2h-26.7v17.5H188v7.2h-23.9v18h28.6v7.2H157.1z"/>
		<path id="XMLID_4_" class="st0" d="M228.2,271.6l-11.6-15.2L205,271.6h-8.2l15.8-20.3L196,230.3h9.1l11.5,15.7l11.5-15.7h9.1
			l-15.8,20.9l15,20.3H228.2z"/>
		<path id="XMLID_5_" class="st0" d="M247.7,265.4v28.1h-7.1v-42.1c0-10.7,8.2-22.1,21-22.1c12.9,0,22.7,8.2,22.7,21.6
			c0,13.2-9.8,22.1-21.1,22.1C257.6,273.1,250.3,270.7,247.7,265.4z M276.8,250.9c0-9.1-5.9-14.7-16.5-14.2
			c-5,0.2-12.9,3.9-12.2,17.1c0.2,4.2,4.6,12.3,14.2,12.3C270.7,266.2,276.8,261.3,276.8,250.9z"/>
		<path id="XMLID_6_" class="st0" d="M290.2,271.6v-41.3h6.9v4.4c3.4-3.8,8.6-5.3,14.3-5.3v7.5c-0.8-0.1-9.1-1.1-14.3,9.7v25H290.2z
			"/>
		<path id="XMLID_7_" class="st0" d="M313.4,250.9c0-12,8.5-21.6,20.3-21.6c14.6,0,20.1,9.7,20.1,22.1v3.3h-32.8
			c0.5,7.8,7.5,11.9,13.9,11.7c4.8-0.1,8-1.6,11.4-5l4.5,4.8c-4.2,4.1-9.7,6.8-16.4,6.8C322.2,273.1,313.4,263.9,313.4,250.9z
			 M333.2,236.3c-6.7,0-11.8,5.8-12.1,12h25.4C346.3,242.2,342,236.3,333.2,236.3z"/>
		<path id="XMLID_8_" class="st0" d="M357.3,265.8c0,0,5.1-4.5,5.1-4.5c-0.1,0.1,2.6,2.7,2.9,3c1.2,1,2.5,1.7,3.9,2
			c4.5,1.2,12.5,0.8,13-5.2c0.3-3.4-2.3-5.3-5.2-6.4c-3.8-1.4-7.9-1.9-11.6-3.6c-4.2-1.9-6.9-5.2-6.9-9.9c0-12.4,17.6-14.5,25.7-8.7
			c0.4,0.3,4.3,3.8,4.2,4l-5.2,4c-2.5-3-5-4.6-10.4-4.6c-2.7,0-6.4,1.1-7.2,4.1c-1.1,4.1,3.6,5.6,6.6,6.4c4.1,1.1,8.5,1.6,12.1,3.9
			c4.9,3.1,6.1,9.7,4.2,14.8c-2.1,5.6-8.1,7.8-13.6,8c-6.5,0.3-12.1-1.8-16.7-6.3C358.1,266.7,357.3,265.8,357.3,265.8z"/>
		<path id="XMLID_17_" class="st0" d="M393.2,265.8c0,0,5.1-4.5,5.1-4.5c-0.1,0.1,2.6,2.7,2.9,3c1.2,1,2.5,1.7,3.9,2
			c4.5,1.2,12.5,0.8,13-5.2c0.3-3.4-2.3-5.3-5.2-6.4c-3.8-1.4-7.9-1.9-11.6-3.6c-4.2-1.9-6.9-5.2-6.9-9.9c0-12.4,17.6-14.5,25.7-8.7
			c0.4,0.3,4.3,3.8,4.2,4l-5.2,4c-2.5-3-5-4.6-10.4-4.6c-2.7,0-6.4,1.1-7.2,4.1c-1.1,4.1,3.6,5.6,6.6,6.4c4.1,1.1,8.5,1.6,12.1,3.9
			c4.9,3.1,6.1,9.7,4.2,14.8c-2.1,5.6-8.1,7.8-13.6,8c-6.5,0.3-12.1-1.8-16.7-6.3C394.1,266.7,393.2,265.8,393.2,265.8z"/>
		<g id="XMLID_19_">
			<path id="XMLID_20_" class="st0" d="M426.5,230.3v-4.4h-1.6V225h4.1v0.8h-1.6v4.4H426.5z"/>
			<path id="XMLID_22_" class="st0" d="M434.1,230.3v-4l-1.6,4h-0.4l-1.6-4v4h-0.9V225h1.3l1.4,3.6l1.4-3.6h1.3v5.2H434.1z"/>
		</g>
	</g>
	<g id="XMLID_24_">
		<path id="XMLID_25_" class="st1" d="M109.9,271.6l-5-13.6H77.3l-5,13.6H65l22.1-57h8l22.1,57H109.9z M90.6,222.7l-10.3,28.2h21.6
			L90.6,222.7z"/>
		<path id="XMLID_28_" class="st1" d="M121.4,271.6v-57h7.1v57H121.4z"/>
		<path id="XMLID_31_" class="st1" d="M139.3,271.6v-40.4h7.1v40.4H139.3z"/>
		<path id="XMLID_33_" class="st1" d="M153.3,218c0-0.1,0-0.2,0-0.4s0-0.2,0-0.4c-5.5-0.2-9.9-4.6-10-10.1c-0.1,0-0.3,0-0.4,0
			c-0.1,0-0.3,0-0.4,0c-0.2,5.5-4.6,9.9-10,10.1c0,0.1,0,0.2,0,0.4s0,0.2,0,0.4c5.5,0.2,9.9,4.6,10,10.1c0.1,0,0.3,0,0.4,0
			c0.1,0,0.3,0,0.4,0C143.4,222.7,147.8,218.3,153.3,218z"/>
	</g>
</g>
</svg>
