<?xml version="1.0" encoding="utf-8"?>
<!-- Generator: Adobe Illustrator 23.0.2, SVG Export Plug-In . SVG Version: 6.00 Build 0)  -->
<svg version="1.1" id="Capa_1" xmlns="http://www.w3.org/2000/svg" xmlns:xlink="http://www.w3.org/1999/xlink" x="0px" y="0px"
	 viewBox="0 0 292.2 300" style="enable-background:new 0 0 292.2 300;" xml:space="preserve">
<style type="text/css">
	.st0{fill-rule:evenodd;clip-rule:evenodd;fill:#FE0709;}
	.st1{fill-rule:evenodd;clip-rule:evenodd;fill:#FE0A09;}
	.st2{fill-rule:evenodd;clip-rule:evenodd;fill:#FE0A0A;}
	.st3{fill-rule:evenodd;clip-rule:evenodd;fill:#FE0D0A;}
	.st4{fill-rule:evenodd;clip-rule:evenodd;fill:#FE0D0B;}
	.st5{fill-rule:evenodd;clip-rule:evenodd;fill:#FE0F0B;}
	.st6{fill-rule:evenodd;clip-rule:evenodd;fill:#FE0F0C;}
	.st7{fill-rule:evenodd;clip-rule:evenodd;fill:#FE110D;}
	.st8{fill-rule:evenodd;clip-rule:evenodd;fill:#FD110F;}
	.st9{fill-rule:evenodd;clip-rule:evenodd;fill:#FD130F;}
	.st10{fill-rule:evenodd;clip-rule:evenodd;fill:#FD1311;}
	.st11{fill-rule:evenodd;clip-rule:evenodd;fill:#FD1511;}
	.st12{fill-rule:evenodd;clip-rule:evenodd;fill:#FD1512;}
	.st13{fill-rule:evenodd;clip-rule:evenodd;fill:#FD1712;}
	.st14{fill-rule:evenodd;clip-rule:evenodd;fill:#FD1714;}
	.st15{fill-rule:evenodd;clip-rule:evenodd;fill:#FD1915;}
	.st16{fill-rule:evenodd;clip-rule:evenodd;fill:#FD1917;}
	.st17{fill-rule:evenodd;clip-rule:evenodd;fill:#FD1A17;}
	.st18{fill-rule:evenodd;clip-rule:evenodd;fill:#FD1D18;}
	.st19{fill-rule:evenodd;clip-rule:evenodd;fill:#FD1D1A;}
	.st20{fill-rule:evenodd;clip-rule:evenodd;fill:#FD201A;}
	.st21{fill-rule:evenodd;clip-rule:evenodd;fill:#FD201B;}
	.st22{fill-rule:evenodd;clip-rule:evenodd;fill:#FC231D;}
	.st23{fill-rule:evenodd;clip-rule:evenodd;fill:#FC231E;}
	.st24{fill-rule:evenodd;clip-rule:evenodd;fill:#FC2620;}
	.st25{fill-rule:evenodd;clip-rule:evenodd;fill:#FC2621;}
	.st26{fill-rule:evenodd;clip-rule:evenodd;fill:#FC2822;}
	.st27{fill-rule:evenodd;clip-rule:evenodd;fill:#FC2823;}
	.st28{fill-rule:evenodd;clip-rule:evenodd;fill:#FC2825;}
	.st29{fill-rule:evenodd;clip-rule:evenodd;fill:#FC2B25;}
	.st30{fill-rule:evenodd;clip-rule:evenodd;fill:#FC2B27;}
	.st31{fill-rule:evenodd;clip-rule:evenodd;fill:#FC2D28;}
	.st32{fill-rule:evenodd;clip-rule:evenodd;fill:#FC2D2A;}
	.st33{fill-rule:evenodd;clip-rule:evenodd;fill:#FB302C;}
	.st34{fill-rule:evenodd;clip-rule:evenodd;fill:#F92F2D;}
	.st35{fill-rule:evenodd;clip-rule:evenodd;fill:#F9322F;}
	.st36{fill-rule:evenodd;clip-rule:evenodd;fill:#FB342F;}
	.st37{fill-rule:evenodd;clip-rule:evenodd;fill:#FB3431;}
	.st38{fill-rule:evenodd;clip-rule:evenodd;fill:#FB3432;}
	.st39{fill-rule:evenodd;clip-rule:evenodd;fill:#FB3734;}
	.st40{fill-rule:evenodd;clip-rule:evenodd;fill:#FB3A36;}
	.st41{fill-rule:evenodd;clip-rule:evenodd;fill:#FB3C38;}
	.st42{fill-rule:evenodd;clip-rule:evenodd;fill:#FB3C3A;}
	.st43{fill-rule:evenodd;clip-rule:evenodd;fill:#FB3F3C;}
	.st44{fill-rule:evenodd;clip-rule:evenodd;fill:#FB423E;}
	.st45{fill-rule:evenodd;clip-rule:evenodd;fill:#FB4240;}
	.st46{fill-rule:evenodd;clip-rule:evenodd;fill:#FB4442;}
	.st47{fill-rule:evenodd;clip-rule:evenodd;fill:#FA4443;}
	.st48{fill-rule:evenodd;clip-rule:evenodd;fill:#FB4744;}
	.st49{fill-rule:evenodd;clip-rule:evenodd;fill:#FA4745;}
	.st50{fill-rule:evenodd;clip-rule:evenodd;fill:#FA4948;}
	.st51{fill-rule:evenodd;clip-rule:evenodd;fill:#FA4B48;}
	.st52{fill-rule:evenodd;clip-rule:evenodd;fill:#FA4B4A;}
	.st53{fill-rule:evenodd;clip-rule:evenodd;fill:#FA4E4C;}
	.st54{fill-rule:evenodd;clip-rule:evenodd;fill:#FA504D;}
	.st55{fill-rule:evenodd;clip-rule:evenodd;fill:#FA504E;}
	.st56{fill-rule:evenodd;clip-rule:evenodd;fill:#FA5351;}
	.st57{fill-rule:evenodd;clip-rule:evenodd;fill:#FA5352;}
	.st58{fill-rule:evenodd;clip-rule:evenodd;fill:#FA5653;}
	.st59{fill-rule:evenodd;clip-rule:evenodd;fill:#FA5855;}
	.st60{fill-rule:evenodd;clip-rule:evenodd;fill:#FA5857;}
	.st61{fill-rule:evenodd;clip-rule:evenodd;fill:#FA5B58;}
	.st62{fill-rule:evenodd;clip-rule:evenodd;fill:#FA5B59;}
	.st63{fill-rule:evenodd;clip-rule:evenodd;fill:#FA5D5C;}
	.st64{fill-rule:evenodd;clip-rule:evenodd;fill:#FA605E;}
	.st65{fill-rule:evenodd;clip-rule:evenodd;fill:#FA6261;}
	.st66{fill-rule:evenodd;clip-rule:evenodd;fill:#FA6563;}
	.st67{fill-rule:evenodd;clip-rule:evenodd;fill:#FA6764;}
	.st68{fill-rule:evenodd;clip-rule:evenodd;fill:#FA6766;}
	.st69{fill-rule:evenodd;clip-rule:evenodd;fill:#FA6A66;}
	.st70{fill-rule:evenodd;clip-rule:evenodd;fill:#FA6A68;}
	.st71{fill-rule:evenodd;clip-rule:evenodd;fill:#FA6D69;}
	.st72{fill-rule:evenodd;clip-rule:evenodd;fill:#FA6D6B;}
	.st73{fill-rule:evenodd;clip-rule:evenodd;fill:#FA6F6B;}
	.st74{fill-rule:evenodd;clip-rule:evenodd;fill:#FA726E;}
	.st75{fill-rule:evenodd;clip-rule:evenodd;fill:#F87471;}
	.st76{fill-rule:evenodd;clip-rule:evenodd;fill:#F87472;}
	.st77{fill-rule:evenodd;clip-rule:evenodd;fill:#F87675;}
	.st78{fill-rule:evenodd;clip-rule:evenodd;fill:#F87976;}
	.st79{fill-rule:evenodd;clip-rule:evenodd;fill:#F87978;}
	.st80{fill-rule:evenodd;clip-rule:evenodd;fill:#F87B78;}
	.st81{fill-rule:evenodd;clip-rule:evenodd;fill:#F87E7B;}
	.st82{fill-rule:evenodd;clip-rule:evenodd;fill:#F8807E;}
	.st83{fill-rule:evenodd;clip-rule:evenodd;fill:#F88381;}
	.st84{fill-rule:evenodd;clip-rule:evenodd;fill:#F88582;}
	.st85{fill-rule:evenodd;clip-rule:evenodd;fill:#F88583;}
	.st86{fill-rule:evenodd;clip-rule:evenodd;fill:#FFFFFF;}
	.st87{fill-rule:evenodd;clip-rule:evenodd;fill:#F88886;}
	.st88{fill-rule:evenodd;clip-rule:evenodd;fill:#F88A89;}
	.st89{fill-rule:evenodd;clip-rule:evenodd;fill:#F88D8A;}
	.st90{fill-rule:evenodd;clip-rule:evenodd;fill:#F88D8C;}
	.st91{fill-rule:evenodd;clip-rule:evenodd;fill:#F8908D;}
	.st92{fill-rule:evenodd;clip-rule:evenodd;fill:#F8908F;}
	.st93{fill-rule:evenodd;clip-rule:evenodd;fill:#F89290;}
	.st94{fill-rule:evenodd;clip-rule:evenodd;fill:#FB9593;}
	.st95{fill-rule:evenodd;clip-rule:evenodd;fill:#F89593;}
	.st96{fill-rule:evenodd;clip-rule:evenodd;fill:#F89796;}
	.st97{fill-rule:evenodd;clip-rule:evenodd;fill:#F89A99;}
	.st98{fill-rule:evenodd;clip-rule:evenodd;fill:#F89C9A;}
	.st99{fill-rule:evenodd;clip-rule:evenodd;fill:#F89C9C;}
	.st100{fill-rule:evenodd;clip-rule:evenodd;fill:#F89F9D;}
	.st101{fill-rule:evenodd;clip-rule:evenodd;fill:#F8A1A0;}
	.st102{fill-rule:evenodd;clip-rule:evenodd;fill:#F9A4A1;}
	.st103{fill-rule:evenodd;clip-rule:evenodd;fill:#F8A4A3;}
	.st104{fill-rule:evenodd;clip-rule:evenodd;fill:#F9A6A4;}
	.st105{fill-rule:evenodd;clip-rule:evenodd;fill:#F9A6A6;}
	.st106{fill-rule:evenodd;clip-rule:evenodd;fill:#F9A9A9;}
	.st107{fill-rule:evenodd;clip-rule:evenodd;fill:#F9ABAA;}
	.st108{fill-rule:evenodd;clip-rule:evenodd;fill:#F9AEAD;}
	.st109{fill-rule:evenodd;clip-rule:evenodd;fill:#F9B0B0;}
</style>
<g>
	<path class="st0" d="M146.1,19.2c72,0,130.8,58.8,130.8,130.8s-58.8,130.8-130.8,130.8S15.3,222,15.3,150S74.1,19.2,146.1,19.2
		L146.1,19.2z"/>
	<path class="st0" d="M146.1,133.1c52.8,0,95.8,31.3,95.8,69.6c0,38.3-43,69.6-95.8,69.6c-52.8,0-95.8-31.3-95.8-69.6
		C50.3,164.4,93.3,133.1,146.1,133.1L146.1,133.1z"/>
	<path class="st0" d="M146.1,133.5c52.6,0,95.4,31.2,95.4,69.4c0,38.2-42.9,69.4-95.4,69.4c-52.6,0-95.4-31.2-95.4-69.4
		C50.6,164.7,93.5,133.5,146.1,133.5L146.1,133.5z"/>
	<path class="st0" d="M146.1,133.9c52.4,0,95.1,31,95.1,69.1c0,38.1-42.7,69.1-95.1,69.1c-52.4,0-95.1-31-95.1-69.1
		C51,165,93.7,133.9,146.1,133.9L146.1,133.9z"/>
	<path class="st0" d="M146.1,134.3c52.2,0,94.8,30.9,94.8,68.9c0,37.9-42.6,68.9-94.8,68.9c-52.2,0-94.8-30.9-94.8-68.9
		C51.3,165.2,93.9,134.3,146.1,134.3L146.1,134.3z"/>
	<path class="st0" d="M146.1,134.7c52,0,94.4,30.8,94.4,68.6c0,37.8-42.4,68.6-94.4,68.6c-52,0-94.4-30.8-94.4-68.6
		C51.7,165.5,94.1,134.7,146.1,134.7L146.1,134.7z"/>
	<path class="st0" d="M146.1,135.1c51.8,0,94.1,30.7,94.1,68.3c0,37.6-42.3,68.3-94.1,68.3c-51.8,0-94.1-30.7-94.1-68.3
		C52,165.8,94.3,135.1,146.1,135.1L146.1,135.1z"/>
	<path class="st0" d="M146.1,135.5c51.6,0,93.7,30.6,93.7,68.1c0,37.5-42.1,68.1-93.7,68.1c-51.6,0-93.7-30.6-93.7-68.1
		C52.4,166.1,94.5,135.5,146.1,135.5L146.1,135.5z"/>
	<path class="st0" d="M146.1,135.9c51.4,0,93.4,30.5,93.4,67.8c0,37.4-41.9,67.8-93.4,67.8c-51.4,0-93.4-30.5-93.4-67.8
		C52.7,166.3,94.7,135.9,146.1,135.9L146.1,135.9z"/>
	<path class="st0" d="M146.1,136.2c51.2,0,93,30.4,93,67.6c0,37.2-41.8,67.6-93,67.6c-51.2,0-93-30.4-93-67.6
		C53.1,166.6,94.9,136.2,146.1,136.2L146.1,136.2z"/>
	<path class="st0" d="M146.1,136.6c51,0,92.7,30.2,92.7,67.3c0,37.1-41.6,67.3-92.7,67.3C95,271.3,53.4,241,53.4,204
		C53.4,166.9,95,136.6,146.1,136.6L146.1,136.6z"/>
	<path class="st0" d="M146.1,137c50.9,0,92.3,30.1,92.3,67.1c0,36.9-41.5,67.1-92.3,67.1c-50.9,0-92.3-30.1-92.3-67.1
		C53.8,167.2,95.2,137,146.1,137L146.1,137z"/>
	<path class="st0" d="M146.1,137.4c50.7,0,92,30,92,66.8c0,36.8-41.3,66.8-92,66.8c-50.7,0-92-30-92-66.8
		C54.1,167.4,95.4,137.4,146.1,137.4L146.1,137.4z"/>
	<path class="st0" d="M146.1,137.8c50.5,0,91.6,29.9,91.6,66.6c0,36.7-41.2,66.6-91.6,66.6c-50.5,0-91.7-29.9-91.7-66.6
		C54.4,167.7,95.6,137.8,146.1,137.8L146.1,137.8z"/>
	<path class="st0" d="M146.1,138.2c50.3,0,91.3,29.8,91.3,66.3c0,36.5-41,66.3-91.3,66.3c-50.3,0-91.3-29.8-91.3-66.3
		C54.8,168,95.8,138.2,146.1,138.2L146.1,138.2z"/>
	<path class="st0" d="M146.1,138.6c50.1,0,91,29.7,91,66.1c0,36.4-40.9,66.1-91,66.1c-50.1,0-91-29.7-91-66.1
		C55.1,168.2,96,138.6,146.1,138.6L146.1,138.6z"/>
	<path class="st0" d="M146.1,139c49.9,0,90.6,29.6,90.6,65.8c0,36.2-40.7,65.8-90.6,65.8c-49.9,0-90.6-29.6-90.6-65.8
		C55.5,168.5,96.2,139,146.1,139L146.1,139z"/>
	<path class="st0" d="M146.1,139.3c49.7,0,90.3,29.4,90.3,65.5c0,36.1-40.5,65.5-90.3,65.5c-49.7,0-90.3-29.4-90.3-65.5
		C55.8,168.8,96.4,139.3,146.1,139.3L146.1,139.3z"/>
	<path class="st0" d="M146.1,139.7c49.5,0,89.9,29.3,89.9,65.3c0,36-40.4,65.3-89.9,65.3c-49.5,0-89.9-29.3-89.9-65.3
		C56.2,169.1,96.6,139.7,146.1,139.7L146.1,139.7z"/>
	<path class="st0" d="M146.1,140.1c49.3,0,89.6,29.2,89.6,65c0,35.8-40.2,65-89.6,65c-49.3,0-89.6-29.2-89.6-65
		C56.5,169.3,96.8,140.1,146.1,140.1L146.1,140.1z"/>
	<path class="st0" d="M146.1,140.5c49.1,0,89.2,29.1,89.2,64.8c0,35.7-40.1,64.8-89.2,64.8c-49.1,0-89.2-29.1-89.2-64.8
		C56.9,169.6,96.9,140.5,146.1,140.5L146.1,140.5z"/>
	<path class="st0" d="M146.1,140.9c49,0,88.9,29,88.9,64.5c0,35.5-39.9,64.5-88.9,64.5c-49,0-88.9-29-88.9-64.5
		C57.2,169.9,97.1,140.9,146.1,140.9L146.1,140.9z"/>
	<path class="st0" d="M146.1,141.3c48.8,0,88.5,28.9,88.5,64.3c0,35.4-39.8,64.3-88.5,64.3c-48.8,0-88.5-28.9-88.5-64.3
		C57.6,170.2,97.3,141.3,146.1,141.3L146.1,141.3z"/>
	<path class="st0" d="M146.1,141.7c48.6,0,88.2,28.8,88.2,64c0,35.3-39.6,64-88.2,64c-48.6,0-88.2-28.8-88.2-64
		C57.9,170.4,97.5,141.7,146.1,141.7L146.1,141.7z"/>
	<path class="st0" d="M146.1,142.1c48.4,0,87.8,28.6,87.8,63.8c0,35.1-39.5,63.8-87.8,63.8c-48.4,0-87.9-28.6-87.9-63.8
		C58.2,170.7,97.7,142.1,146.1,142.1L146.1,142.1z"/>
	<path class="st0" d="M146.1,142.4c48.2,0,87.5,28.5,87.5,63.5c0,35-39.3,63.5-87.5,63.5c-48.2,0-87.5-28.5-87.5-63.5
		C58.6,171,97.9,142.4,146.1,142.4L146.1,142.4z"/>
	<path class="st0" d="M146.1,142.8c48,0,87.2,28.4,87.2,63.3c0,34.8-39.2,63.3-87.2,63.3c-48,0-87.2-28.4-87.2-63.3
		C58.9,171.2,98.1,142.8,146.1,142.8L146.1,142.8z"/>
	<path class="st0" d="M146.1,143.2c47.8,0,86.8,28.3,86.8,63c0,34.7-39,63-86.8,63c-47.8,0-86.8-28.3-86.8-63
		C59.3,171.5,98.3,143.2,146.1,143.2L146.1,143.2z"/>
	<path class="st0" d="M146.1,143.6c47.6,0,86.5,28.2,86.5,62.7c0,34.6-38.8,62.7-86.5,62.7c-47.6,0-86.5-28.2-86.5-62.7
		C59.6,171.8,98.5,143.6,146.1,143.6L146.1,143.6z"/>
	<path class="st0" d="M146.1,144c47.4,0,86.1,28.1,86.1,62.5c0,34.4-38.7,62.5-86.1,62.5C98.7,269,60,240.9,60,206.5
		C60,172.1,98.7,144,146.1,144L146.1,144z"/>
	<path class="st0" d="M146.1,144.4c47.2,0,85.8,28,85.8,62.2c0,34.3-38.5,62.2-85.8,62.2c-47.2,0-85.8-28-85.8-62.2
		C60.3,172.3,98.9,144.4,146.1,144.4L146.1,144.4z"/>
	<path class="st0" d="M146.1,144.8c47.1,0,85.4,27.8,85.4,62c0,34.1-38.4,62-85.4,62c-47.1,0-85.4-27.8-85.4-62
		C60.7,172.6,99,144.8,146.1,144.8L146.1,144.8z"/>
	<path class="st0" d="M146.1,145.2c46.9,0,85.1,27.7,85.1,61.7c0,34-38.2,61.7-85.1,61.7c-46.9,0-85.1-27.7-85.1-61.7
		C61,172.9,99.2,145.2,146.1,145.2L146.1,145.2z"/>
	<path class="st0" d="M146.1,145.5c46.7,0,84.7,27.6,84.7,61.5c0,33.9-38.1,61.5-84.7,61.5c-46.7,0-84.7-27.6-84.7-61.5
		C61.4,173.2,99.4,145.5,146.1,145.5L146.1,145.5z"/>
	<path class="st0" d="M146.1,145.9c46.5,0,84.4,27.5,84.4,61.2c0,33.7-37.9,61.2-84.4,61.2c-46.5,0-84.4-27.5-84.4-61.2
		C61.7,173.4,99.6,145.9,146.1,145.9L146.1,145.9z"/>
	<path class="st0" d="M146.1,146.3c46.3,0,84.1,27.4,84.1,61c0,33.6-37.8,61-84.1,61c-46.3,0-84.1-27.4-84.1-61
		C62,173.7,99.8,146.3,146.1,146.3L146.1,146.3z"/>
	<path class="st0" d="M146.1,146.7c46.1,0,83.7,27.3,83.7,60.7c0,33.4-37.6,60.7-83.7,60.7c-46.1,0-83.7-27.3-83.7-60.7
		C62.4,174,100,146.7,146.1,146.7L146.1,146.7z"/>
	<path class="st0" d="M146.1,147.1c45.9,0,83.4,27.2,83.4,60.4c0,33.3-37.4,60.4-83.4,60.4c-45.9,0-83.4-27.2-83.4-60.4
		C62.7,174.3,100.2,147.1,146.1,147.1L146.1,147.1z"/>
	<path class="st0" d="M146.1,147.5c45.7,0,83,27,83,60.2c0,33.2-37.3,60.2-83,60.2c-45.7,0-83-27-83-60.2
		C63.1,174.5,100.4,147.5,146.1,147.5L146.1,147.5z"/>
	<path class="st0" d="M146.1,147.9c45.5,0,82.7,26.9,82.7,59.9c0,33-37.1,59.9-82.7,59.9c-45.5,0-82.7-26.9-82.7-59.9
		C63.4,174.8,100.6,147.9,146.1,147.9L146.1,147.9z"/>
	<path class="st0" d="M146.1,148.3c45.3,0,82.3,26.8,82.3,59.7c0,32.9-37,59.7-82.3,59.7c-45.3,0-82.3-26.8-82.3-59.7
		C63.8,175.1,100.8,148.3,146.1,148.3L146.1,148.3z"/>
	<path class="st0" d="M146.1,148.6c45.2,0,82,26.7,82,59.4c0,32.7-36.8,59.4-82,59.4c-45.2,0-82-26.7-82-59.4
		C64.1,175.3,100.9,148.6,146.1,148.6L146.1,148.6z"/>
	<path class="st0" d="M146.1,149c45,0,81.6,26.6,81.6,59.2c0,32.6-36.7,59.2-81.6,59.2c-45,0-81.6-26.6-81.6-59.2
		C64.5,175.6,101.1,149,146.1,149L146.1,149z"/>
	<path class="st0" d="M146.1,149.4c44.8,0,81.3,26.5,81.3,58.9c0,32.5-36.5,58.9-81.3,58.9c-44.8,0-81.3-26.5-81.3-58.9
		C64.8,175.9,101.3,149.4,146.1,149.4L146.1,149.4z"/>
	<path class="st0" d="M146.1,149.8c44.6,0,80.9,26.4,80.9,58.7c0,32.3-36.4,58.7-80.9,58.7c-44.6,0-80.9-26.4-80.9-58.7
		C65.2,176.2,101.5,149.8,146.1,149.8L146.1,149.8z"/>
	<path class="st0" d="M146.1,150.2c44.4,0,80.6,26.2,80.6,58.4c0,32.2-36.2,58.4-80.6,58.4c-44.4,0-80.6-26.2-80.6-58.4
		C65.5,176.4,101.7,150.2,146.1,150.2L146.1,150.2z"/>
	<path class="st0" d="M146.1,150.6c44.2,0,80.3,26.1,80.3,58.2c0,32-36.1,58.2-80.3,58.2c-44.2,0-80.3-26.1-80.3-58.2
		C65.8,176.7,101.9,150.6,146.1,150.6L146.1,150.6z"/>
	<path class="st0" d="M146.1,151c44,0,79.9,26,79.9,57.9c0,31.9-35.9,57.9-79.9,57.9c-44,0-79.9-26-79.9-57.9
		C66.2,177,102.1,151,146.1,151L146.1,151z"/>
	<path class="st0" d="M146.1,151.4c43.8,0,79.6,25.9,79.6,57.6c0,31.8-35.7,57.6-79.6,57.6c-43.8,0-79.6-25.9-79.6-57.6
		C66.5,177.3,102.3,151.4,146.1,151.4L146.1,151.4z"/>
	<path class="st0" d="M146.1,151.7c43.6,0,79.2,25.8,79.2,57.4c0,31.6-35.6,57.4-79.2,57.4c-43.6,0-79.2-25.8-79.2-57.4
		C66.9,177.5,102.5,151.7,146.1,151.7L146.1,151.7z"/>
	<path class="st0" d="M146.1,152.1c43.4,0,78.9,25.7,78.9,57.1c0,31.5-35.4,57.1-78.9,57.1c-43.4,0-78.9-25.7-78.9-57.1
		C67.2,177.8,102.7,152.1,146.1,152.1L146.1,152.1z"/>
	<path class="st1" d="M146.1,152.5c43.3,0,78.5,25.6,78.5,56.9c0,31.3-35.3,56.9-78.5,56.9c-43.3,0-78.5-25.6-78.5-56.9
		C67.6,178.1,102.8,152.5,146.1,152.5L146.1,152.5z"/>
	<path class="st1" d="M146.1,152.9c43.1,0,78.2,25.4,78.2,56.6c0,31.2-35.1,56.6-78.2,56.6c-43.1,0-78.2-25.4-78.2-56.6
		C67.9,178.3,103,152.9,146.1,152.9L146.1,152.9z"/>
	<path class="st1" d="M146.1,153.3c42.9,0,77.8,25.3,77.8,56.4c0,31-35,56.4-77.8,56.4c-42.9,0-77.8-25.3-77.8-56.4
		C68.3,178.6,103.2,153.3,146.1,153.3L146.1,153.3z"/>
	<path class="st1" d="M146.1,153.7c42.7,0,77.5,25.2,77.5,56.1c0,30.9-34.8,56.1-77.5,56.1c-42.7,0-77.5-25.2-77.5-56.1
		C68.6,178.9,103.4,153.7,146.1,153.7L146.1,153.7z"/>
	<path class="st1" d="M146.1,154.1c42.5,0,77.1,25.1,77.1,55.9c0,30.8-34.7,55.9-77.1,55.9c-42.5,0-77.1-25.1-77.1-55.9
		C69,179.2,103.6,154.1,146.1,154.1L146.1,154.1z"/>
	<path class="st1" d="M146.1,154.5c42.3,0,76.8,25,76.8,55.6c0,30.6-34.5,55.6-76.8,55.6c-42.3,0-76.8-25-76.8-55.6
		C69.3,179.4,103.8,154.5,146.1,154.5L146.1,154.5z"/>
	<path class="st1" d="M146.1,154.8c42.1,0,76.5,24.9,76.5,55.4c0,30.5-34.3,55.4-76.5,55.4c-42.1,0-76.5-24.9-76.5-55.4
		C69.6,179.7,104,154.8,146.1,154.8L146.1,154.8z"/>
	<path class="st1" d="M146.1,155.2c41.9,0,76.1,24.8,76.1,55.1c0,30.3-34.2,55.1-76.1,55.1c-41.9,0-76.1-24.8-76.1-55.1
		C70,180,104.2,155.2,146.1,155.2L146.1,155.2z"/>
	<path class="st1" d="M146.1,155.6c41.7,0,75.8,24.6,75.8,54.8c0,30.2-34,54.8-75.8,54.8c-41.7,0-75.8-24.6-75.8-54.8
		C70.3,180.3,104.4,155.6,146.1,155.6L146.1,155.6z"/>
	<path class="st1" d="M146.1,156c41.5,0,75.4,24.5,75.4,54.6c0,30.1-33.9,54.6-75.4,54.6c-41.5,0-75.4-24.5-75.4-54.6
		C70.7,180.5,104.6,156,146.1,156L146.1,156z"/>
	<path class="st1" d="M146.1,156.4c41.3,0,75.1,24.4,75.1,54.3c0,29.9-33.7,54.3-75.1,54.3c-41.3,0-75.1-24.4-75.1-54.3
		C71,180.8,104.7,156.4,146.1,156.4L146.1,156.4z"/>
	<path class="st2" d="M146.1,156.8c41.2,0,74.7,24.3,74.7,54.1c0,29.8-33.6,54.1-74.7,54.1c-41.2,0-74.7-24.3-74.7-54.1
		C71.4,181.1,104.9,156.8,146.1,156.8L146.1,156.8z"/>
	<path class="st2" d="M146.1,157.2c41,0,74.4,24.2,74.4,53.8c0,29.6-33.4,53.8-74.4,53.8c-41,0-74.4-24.2-74.4-53.8
		C71.7,181.4,105.1,157.2,146.1,157.2L146.1,157.2z"/>
	<path class="st2" d="M146.1,157.6c40.8,0,74,24.1,74,53.6c0,29.5-33.3,53.6-74,53.6c-40.8,0-74-24.1-74-53.6
		C72.1,181.6,105.3,157.6,146.1,157.6L146.1,157.6z"/>
	<path class="st2" d="M146.1,157.9c40.6,0,73.7,24,73.7,53.3c0,29.4-33.1,53.3-73.7,53.3c-40.6,0-73.7-24-73.7-53.3
		C72.4,181.9,105.5,157.9,146.1,157.9L146.1,157.9z"/>
	<path class="st2" d="M146.1,158.3c40.4,0,73.3,23.8,73.3,53.1c0,29.2-32.9,53.1-73.3,53.1c-40.4,0-73.3-23.8-73.3-53.1
		C72.8,182.2,105.7,158.3,146.1,158.3L146.1,158.3z"/>
	<path class="st3" d="M146.1,158.7c40.2,0,73,23.7,73,52.8c0,29.1-32.8,52.8-73,52.8c-40.2,0-73-23.7-73-52.8
		C73.1,182.4,105.9,158.7,146.1,158.7L146.1,158.7z"/>
	<path class="st3" d="M146.1,159.1c40,0,72.7,23.6,72.7,52.6c0,28.9-32.6,52.6-72.7,52.6c-40,0-72.7-23.6-72.7-52.6
		C73.4,182.7,106.1,159.1,146.1,159.1L146.1,159.1z"/>
	<path class="st4" d="M146.1,159.5c39.8,0,72.3,23.5,72.3,52.3c0,28.8-32.5,52.3-72.3,52.3c-39.8,0-72.3-23.5-72.3-52.3
		C73.8,183,106.3,159.5,146.1,159.5L146.1,159.5z"/>
	<path class="st4" d="M146.1,159.9c39.6,0,72,23.4,72,52c0,28.7-32.3,52-72,52c-39.6,0-72-23.4-72-52
		C74.1,183.3,106.5,159.9,146.1,159.9L146.1,159.9z"/>
	<path class="st4" d="M146.1,160.3c39.4,0,71.6,23.3,71.6,51.8c0,28.5-32.2,51.8-71.6,51.8c-39.4,0-71.6-23.3-71.6-51.8
		C74.5,183.5,106.7,160.3,146.1,160.3L146.1,160.3z"/>
	<path class="st4" d="M146.1,160.7c39.3,0,71.3,23.1,71.3,51.5c0,28.4-32,51.5-71.3,51.5c-39.3,0-71.3-23.1-71.3-51.5
		C74.8,183.8,106.8,160.7,146.1,160.7L146.1,160.7z"/>
	<path class="st4" d="M146.1,161c39.1,0,70.9,23,70.9,51.3c0,28.2-31.9,51.3-70.9,51.3c-39.1,0-70.9-23-70.9-51.3
		C75.2,184.1,107,161,146.1,161L146.1,161z"/>
	<path class="st4" d="M146.1,161.4c38.9,0,70.6,22.9,70.6,51c0,28.1-31.7,51-70.6,51c-38.9,0-70.6-22.9-70.6-51
		C75.5,184.4,107.2,161.4,146.1,161.4L146.1,161.4z"/>
	<path class="st4" d="M146.1,161.8c38.7,0,70.2,22.8,70.2,50.8c0,28-31.6,50.8-70.2,50.8c-38.7,0-70.2-22.8-70.2-50.8
		C75.9,184.6,107.4,161.8,146.1,161.8L146.1,161.8z"/>
	<path class="st4" d="M146.1,162.2c38.5,0,69.9,22.7,69.9,50.5c0,27.8-31.4,50.5-69.9,50.5c-38.5,0-69.9-22.7-69.9-50.5
		C76.2,184.9,107.6,162.2,146.1,162.2L146.1,162.2z"/>
	<path class="st5" d="M146.1,162.6c38.3,0,69.5,22.6,69.5,50.3c0,27.7-31.2,50.3-69.5,50.3c-38.3,0-69.5-22.6-69.5-50.3
		C76.6,185.2,107.8,162.6,146.1,162.6L146.1,162.6z"/>
	<path class="st5" d="M146.1,163c38.1,0,69.2,22.5,69.2,50c0,27.5-31.1,50-69.2,50c-38.1,0-69.2-22.5-69.2-50
		C76.9,185.4,108,163,146.1,163L146.1,163z"/>
	<path class="st5" d="M146.1,163.4c37.9,0,68.9,22.3,68.9,49.7c0,27.4-30.9,49.7-68.9,49.7c-37.9,0-68.9-22.3-68.9-49.7
		C77.2,185.7,108.2,163.4,146.1,163.4L146.1,163.4z"/>
	<path class="st6" d="M146.1,163.8c37.7,0,68.5,22.2,68.5,49.5c0,27.3-30.8,49.5-68.5,49.5c-37.7,0-68.5-22.2-68.5-49.5
		C77.6,186,108.4,163.8,146.1,163.8L146.1,163.8z"/>
	<path class="st6" d="M146.1,164.1c37.5,0,68.2,22.1,68.2,49.2c0,27.1-30.6,49.2-68.2,49.2c-37.5,0-68.2-22.1-68.2-49.2
		C77.9,186.3,108.6,164.1,146.1,164.1L146.1,164.1z"/>
	<path class="st6" d="M146.1,164.5c37.4,0,67.8,22,67.8,49c0,27-30.5,49-67.8,49c-37.4,0-67.8-22-67.8-49
		C78.3,186.5,108.7,164.5,146.1,164.5L146.1,164.5z"/>
	<path class="st6" d="M146.1,164.9c37.2,0,67.5,21.9,67.5,48.7c0,26.8-30.3,48.7-67.5,48.7c-37.2,0-67.5-21.9-67.5-48.7
		C78.6,186.8,108.9,164.9,146.1,164.9L146.1,164.9z"/>
	<path class="st6" d="M146.1,165.3c37,0,67.1,21.8,67.1,48.5c0,26.7-30.2,48.5-67.1,48.5c-37,0-67.1-21.8-67.1-48.5
		C79,187.1,109.1,165.3,146.1,165.3L146.1,165.3z"/>
	<path class="st6" d="M146.1,165.7c36.8,0,66.8,21.7,66.8,48.2c0,26.6-30,48.2-66.8,48.2c-36.8,0-66.8-21.7-66.8-48.2
		C79.3,187.4,109.3,165.7,146.1,165.7L146.1,165.7z"/>
	<path class="st6" d="M146.1,166.1c36.6,0,66.4,21.5,66.4,48c0,26.4-29.8,48-66.4,48c-36.6,0-66.4-21.5-66.4-48
		C79.7,187.6,109.5,166.1,146.1,166.1L146.1,166.1z"/>
	<path class="st6" d="M146.1,166.5c36.4,0,66.1,21.4,66.1,47.7c0,26.3-29.7,47.7-66.1,47.7c-36.4,0-66.1-21.4-66.1-47.7
		C80,187.9,109.7,166.5,146.1,166.5L146.1,166.5z"/>
	<path class="st7" d="M146.1,166.9c36.2,0,65.7,21.3,65.7,47.5c0,26.1-29.5,47.5-65.7,47.5c-36.2,0-65.7-21.3-65.7-47.5
		C80.4,188.2,109.9,166.9,146.1,166.9L146.1,166.9z"/>
	<path class="st7" d="M146.1,167.2c36,0,65.4,21.2,65.4,47.2c0,26-29.4,47.2-65.4,47.2c-36,0-65.4-21.2-65.4-47.2
		C80.7,188.5,110.1,167.2,146.1,167.2L146.1,167.2z"/>
	<path class="st7" d="M146.1,167.6c35.8,0,65.1,21.1,65.1,46.9c0,25.9-29.2,46.9-65.1,46.9c-35.8,0-65.1-21.1-65.1-46.9
		C81,188.7,110.3,167.6,146.1,167.6L146.1,167.6z"/>
	<path class="st7" d="M146.1,168c35.6,0,64.7,21,64.7,46.7c0,25.7-29.1,46.7-64.7,46.7c-35.6,0-64.7-21-64.7-46.7
		C81.4,189,110.5,168,146.1,168L146.1,168z"/>
	<path class="st7" d="M146.1,168.4c35.5,0,64.4,20.9,64.4,46.4c0,25.6-28.9,46.4-64.4,46.4c-35.5,0-64.4-20.9-64.4-46.4
		C81.7,189.3,110.6,168.4,146.1,168.4L146.1,168.4z"/>
	<path class="st7" d="M146.1,168.8c35.3,0,64,20.7,64,46.2c0,25.4-28.8,46.2-64,46.2c-35.3,0-64-20.7-64-46.2
		C82.1,189.5,110.8,168.8,146.1,168.8L146.1,168.8z"/>
	<path class="st7" d="M146.1,169.2c35.1,0,63.7,20.6,63.7,45.9c0,25.3-28.6,45.9-63.7,45.9c-35.1,0-63.7-20.6-63.7-45.9
		C82.4,189.8,111,169.2,146.1,169.2L146.1,169.2z"/>
	<path class="st7" d="M146.1,169.6c34.9,0,63.3,20.5,63.3,45.7c0,25.2-28.4,45.7-63.3,45.7c-34.9,0-63.3-20.5-63.3-45.7
		C82.8,190.1,111.2,169.6,146.1,169.6L146.1,169.6z"/>
	<path class="st7" d="M146.1,170c34.7,0,63,20.4,63,45.4c0,25-28.3,45.4-63,45.4c-34.7,0-63-20.4-63-45.4
		C83.1,190.4,111.4,170,146.1,170L146.1,170z"/>
	<path class="st8" d="M146.1,170.3c34.5,0,62.6,20.3,62.6,45.2c0,24.9-28.1,45.2-62.6,45.2c-34.5,0-62.6-20.3-62.6-45.2
		C83.5,190.6,111.6,170.3,146.1,170.3L146.1,170.3z"/>
	<path class="st9" d="M146.1,170.7c34.3,0,62.3,20.2,62.3,44.9c0,24.7-28,44.9-62.3,44.9c-34.3,0-62.3-20.2-62.3-44.9
		C83.8,190.9,111.8,170.7,146.1,170.7L146.1,170.7z"/>
	<path class="st9" d="M146.1,171.1c34.1,0,61.9,20.1,61.9,44.7c0,24.6-27.8,44.7-61.9,44.7c-34.1,0-61.9-20.1-61.9-44.7
		C84.1,191.2,112,171.1,146.1,171.1L146.1,171.1z"/>
	<path class="st9" d="M146.1,171.5c33.9,0,61.6,19.9,61.6,44.4c0,24.5-27.7,44.4-61.6,44.4c-33.9,0-61.6-19.9-61.6-44.4
		C84.5,191.5,112.2,171.5,146.1,171.5L146.1,171.5z"/>
	<path class="st9" d="M146.1,171.9c33.7,0,61.3,19.8,61.3,44.1c0,24.3-27.5,44.1-61.3,44.1c-33.7,0-61.3-19.8-61.3-44.1
		C84.8,191.7,112.4,171.9,146.1,171.9L146.1,171.9z"/>
	<path class="st9" d="M146.1,172.3c33.5,0,60.9,19.7,60.9,43.9c0,24.2-27.4,43.9-60.9,43.9c-33.5,0-60.9-19.7-60.9-43.9
		C85.2,192,112.5,172.3,146.1,172.3L146.1,172.3z"/>
	<path class="st10" d="M146.1,172.7c33.4,0,60.6,19.6,60.6,43.6c0,24-27.2,43.6-60.6,43.6c-33.4,0-60.6-19.6-60.6-43.6
		C85.5,192.3,112.7,172.7,146.1,172.7L146.1,172.7z"/>
	<path class="st10" d="M146.1,173.1c33.2,0,60.2,19.5,60.2,43.4c0,23.9-27.1,43.4-60.2,43.4c-33.2,0-60.2-19.5-60.2-43.4
		C85.9,192.5,112.9,173.1,146.1,173.1L146.1,173.1z"/>
	<path class="st11" d="M146.1,173.4c33,0,59.9,19.4,59.9,43.1c0,23.8-26.9,43.1-59.9,43.1c-33,0-59.9-19.4-59.9-43.1
		C86.2,192.8,113.1,173.4,146.1,173.4L146.1,173.4z"/>
	<path class="st12" d="M146.1,173.8c32.8,0,59.5,19.3,59.5,42.9c0,23.6-26.7,42.9-59.5,42.9c-32.8,0-59.5-19.3-59.5-42.9
		C86.6,193.1,113.3,173.8,146.1,173.8L146.1,173.8z"/>
	<path class="st12" d="M146.1,174.2c32.6,0,59.2,19.1,59.2,42.6c0,23.5-26.6,42.6-59.2,42.6c-32.6,0-59.2-19.1-59.2-42.6
		C86.9,193.4,113.5,174.2,146.1,174.2L146.1,174.2z"/>
	<path class="st12" d="M146.1,174.6c32.4,0,58.8,19,58.8,42.4c0,23.3-26.4,42.4-58.8,42.4c-32.4,0-58.8-19-58.8-42.4
		C87.3,193.6,113.7,174.6,146.1,174.6L146.1,174.6z"/>
	<path class="st12" d="M146.1,175c32.2,0,58.5,18.9,58.5,42.1c0,23.2-26.3,42.1-58.5,42.1c-32.2,0-58.5-18.9-58.5-42.1
		C87.6,193.9,113.9,175,146.1,175L146.1,175z"/>
	<path class="st13" d="M146.1,175.4c32,0,58.1,18.8,58.1,41.9c0,23.1-26.1,41.9-58.1,41.9c-32,0-58.1-18.8-58.1-41.9
		C87.9,194.2,114.1,175.4,146.1,175.4L146.1,175.4z"/>
	<path class="st14" d="M146.1,175.8c31.8,0,57.8,18.7,57.8,41.6c0,22.9-26,41.6-57.8,41.6c-31.8,0-57.8-18.7-57.8-41.6
		C88.3,194.5,114.3,175.8,146.1,175.8L146.1,175.8z"/>
	<path class="st14" d="M146.1,176.2c31.6,0,57.5,18.6,57.5,41.3c0,22.8-25.8,41.3-57.5,41.3c-31.6,0-57.5-18.6-57.5-41.3
		C88.6,194.7,114.5,176.2,146.1,176.2L146.1,176.2z"/>
	<path class="st14" d="M146.1,176.5c31.5,0,57.1,18.5,57.1,41.1c0,22.6-25.7,41.1-57.1,41.1c-31.5,0-57.1-18.5-57.1-41.1
		C89,195,114.6,176.5,146.1,176.5L146.1,176.5z"/>
	<path class="st14" d="M146.1,176.9c31.3,0,56.8,18.3,56.8,40.8c0,22.5-25.5,40.8-56.8,40.8c-31.3,0-56.8-18.3-56.8-40.8
		C89.3,195.3,114.8,176.9,146.1,176.9L146.1,176.9z"/>
	<path class="st15" d="M146.1,177.3c31.1,0,56.4,18.2,56.4,40.6c0,22.3-25.3,40.6-56.4,40.6c-31.1,0-56.4-18.2-56.4-40.6
		C89.7,195.6,115,177.3,146.1,177.3L146.1,177.3z"/>
	<path class="st15" d="M146.1,177.7c30.9,0,56.1,18.1,56.1,40.3c0,22.2-25.2,40.3-56.1,40.3c-30.9,0-56.1-18.1-56.1-40.3
		C90,195.8,115.2,177.7,146.1,177.7L146.1,177.7z"/>
	<path class="st15" d="M146.1,178.1c30.7,0,55.7,18,55.7,40.1c0,22.1-25,40.1-55.7,40.1c-30.7,0-55.7-18-55.7-40.1
		C90.4,196.1,115.4,178.1,146.1,178.1L146.1,178.1z"/>
	<path class="st16" d="M146.1,178.5c30.5,0,55.4,17.9,55.4,39.8c0,21.9-24.9,39.8-55.4,39.8c-30.5,0-55.4-17.9-55.4-39.8
		C90.7,196.4,115.6,178.5,146.1,178.5L146.1,178.5z"/>
	<path class="st16" d="M146.1,178.9c30.3,0,55,17.8,55,39.6c0,21.8-24.7,39.6-55,39.6c-30.3,0-55-17.8-55-39.6
		C91.1,196.6,115.8,178.9,146.1,178.9L146.1,178.9z"/>
	<path class="st17" d="M146.1,179.3c30.1,0,54.7,17.7,54.7,39.3c0,21.6-24.6,39.3-54.7,39.3c-30.1,0-54.7-17.7-54.7-39.3
		C91.4,196.9,116,179.3,146.1,179.3L146.1,179.3z"/>
	<path class="st17" d="M146.1,179.6c29.9,0,54.3,17.5,54.3,39.1c0,21.5-24.4,39-54.3,39c-29.9,0-54.4-17.5-54.4-39
		C91.7,197.2,116.2,179.6,146.1,179.6L146.1,179.6z"/>
	<path class="st17" d="M146.1,180c29.7,0,54,17.4,54,38.8c0,21.4-24.3,38.8-54,38.8c-29.7,0-54-17.4-54-38.8
		C92.1,197.5,116.4,180,146.1,180L146.1,180z"/>
	<path class="st18" d="M146.1,180.4c29.6,0,53.7,17.3,53.7,38.5c0,21.2-24.1,38.5-53.7,38.5c-29.6,0-53.7-17.3-53.7-38.5
		C92.4,197.7,116.5,180.4,146.1,180.4L146.1,180.4z"/>
	<path class="st18" d="M146.1,180.8c29.4,0,53.3,17.2,53.3,38.3c0,21.1-23.9,38.3-53.3,38.3c-29.4,0-53.3-17.2-53.3-38.3
		C92.8,198,116.7,180.8,146.1,180.8L146.1,180.8z"/>
	<path class="st18" d="M146.1,181.2c29.2,0,53,17.1,53,38c0,20.9-23.8,38-53,38c-29.2,0-53-17.1-53-38
		C93.1,198.3,116.9,181.2,146.1,181.2L146.1,181.2z"/>
	<path class="st19" d="M146.1,181.6c29,0,52.6,17,52.6,37.8c0,20.8-23.6,37.8-52.6,37.8c-29,0-52.6-17-52.6-37.8
		C93.5,198.6,117.1,181.6,146.1,181.6L146.1,181.6z"/>
	<path class="st19" d="M146.1,182c28.8,0,52.3,16.9,52.3,37.5c0,20.7-23.5,37.5-52.3,37.5c-28.8,0-52.3-16.9-52.3-37.5
		C93.8,198.8,117.3,182,146.1,182L146.1,182z"/>
	<path class="st20" d="M146.1,182.4c28.6,0,51.9,16.7,51.9,37.3c0,20.5-23.3,37.3-51.9,37.3c-28.6,0-51.9-16.7-51.9-37.3
		C94.2,199.1,117.5,182.4,146.1,182.4L146.1,182.4z"/>
	<path class="st21" d="M146.1,182.7c28.4,0,51.6,16.6,51.6,37c0,20.4-23.2,37-51.6,37c-28.4,0-51.6-16.6-51.6-37
		C94.5,199.4,117.7,182.7,146.1,182.7L146.1,182.7z"/>
	<path class="st21" d="M146.1,183.1c28.2,0,51.2,16.5,51.2,36.8c0,20.2-23,36.8-51.2,36.8c-28.2,0-51.2-16.5-51.2-36.8
		C94.9,199.6,117.9,183.1,146.1,183.1L146.1,183.1z"/>
	<path class="st22" d="M146.1,183.5c28,0,50.9,16.4,50.9,36.5c0,20.1-22.9,36.5-50.9,36.5c-28,0-50.9-16.4-50.9-36.5
		C95.2,199.9,118.1,183.5,146.1,183.5L146.1,183.5z"/>
	<path class="st22" d="M146.1,183.9c27.8,0,50.6,16.3,50.6,36.2c0,20-22.7,36.2-50.6,36.2c-27.8,0-50.6-16.3-50.6-36.2
		C95.5,200.2,118.3,183.9,146.1,183.9L146.1,183.9z"/>
	<path class="st22" d="M146.1,184.3c27.7,0,50.2,16.2,50.2,36c0,19.8-22.6,36-50.2,36c-27.7,0-50.2-16.2-50.2-36
		C95.9,200.5,118.4,184.3,146.1,184.3L146.1,184.3z"/>
	<path class="st23" d="M146.1,184.7c27.5,0,49.9,16.1,49.9,35.7c0,19.7-22.4,35.7-49.9,35.7c-27.5,0-49.9-16.1-49.9-35.7
		C96.2,200.7,118.6,184.7,146.1,184.7L146.1,184.7z"/>
	<path class="st23" d="M146.1,185.1c27.3,0,49.5,15.9,49.5,35.5c0,19.5-22.2,35.5-49.5,35.5c-27.3,0-49.5-15.9-49.5-35.5
		C96.6,201,118.8,185.1,146.1,185.1L146.1,185.1z"/>
	<path class="st24" d="M146.1,185.5c27.1,0,49.2,15.8,49.2,35.2c0,19.4-22.1,35.2-49.2,35.2c-27.1,0-49.2-15.8-49.2-35.2
		C96.9,201.3,119,185.5,146.1,185.5L146.1,185.5z"/>
	<path class="st24" d="M146.1,185.8c26.9,0,48.8,15.7,48.8,35c0,19.3-21.9,35-48.8,35c-26.9,0-48.8-15.7-48.8-35
		C97.3,201.6,119.2,185.8,146.1,185.8L146.1,185.8z"/>
	<path class="st25" d="M146.1,186.2c26.7,0,48.5,15.6,48.5,34.7c0,19.1-21.8,34.7-48.5,34.7c-26.7,0-48.5-15.6-48.5-34.7
		C97.6,201.8,119.4,186.2,146.1,186.2L146.1,186.2z"/>
	<path class="st26" d="M146.1,186.6c26.5,0,48.1,15.5,48.1,34.5c0,19-21.6,34.5-48.1,34.5c-26.5,0-48.1-15.5-48.1-34.5
		C98,202.1,119.6,186.6,146.1,186.6L146.1,186.6z"/>
	<path class="st26" d="M146.1,187c26.3,0,47.8,15.4,47.8,34.2c0,18.8-21.5,34.2-47.8,34.2c-26.3,0-47.8-15.4-47.8-34.2
		C98.3,202.4,119.8,187,146.1,187L146.1,187z"/>
	<path class="st27" d="M146.1,187.4c26.1,0,47.4,15.3,47.4,34c0,18.7-21.3,34-47.4,34c-26.1,0-47.4-15.3-47.4-34
		C98.7,202.6,120,187.4,146.1,187.4L146.1,187.4z"/>
	<path class="st27" d="M146.1,187.8c25.9,0,47.1,15.1,47.1,33.7c0,18.6-21.2,33.7-47.1,33.7c-25.9,0-47.1-15.1-47.1-33.7
		C99,202.9,120.2,187.8,146.1,187.8L146.1,187.8z"/>
	<path class="st28" d="M146.1,188.2c25.7,0,46.8,15,46.8,33.4c0,18.4-21,33.4-46.8,33.4c-25.8,0-46.8-15-46.8-33.4
		C99.3,203.2,120.3,188.2,146.1,188.2L146.1,188.2z"/>
	<path class="st29" d="M146.1,188.6c25.6,0,46.4,14.9,46.4,33.2c0,18.3-20.8,33.2-46.4,33.2c-25.6,0-46.4-14.9-46.4-33.2
		C99.7,203.5,120.5,188.6,146.1,188.6L146.1,188.6z"/>
	<path class="st29" d="M146.1,188.9c25.4,0,46.1,14.8,46.1,32.9c0,18.1-20.7,32.9-46.1,32.9c-25.4,0-46.1-14.8-46.1-32.9
		C100,203.7,120.7,188.9,146.1,188.9L146.1,188.9z"/>
	<path class="st30" d="M146.1,189.3c25.2,0,45.7,14.7,45.7,32.7c0,18-20.5,32.7-45.7,32.7c-25.2,0-45.7-14.7-45.7-32.7
		C100.4,204,120.9,189.3,146.1,189.3L146.1,189.3z"/>
	<path class="st30" d="M146.1,189.7c25,0,45.4,14.6,45.4,32.4c0,17.9-20.4,32.4-45.4,32.4c-25,0-45.4-14.6-45.4-32.4
		C100.7,204.3,121.1,189.7,146.1,189.7L146.1,189.7z"/>
	<path class="st31" d="M146.1,190.1c24.8,0,45,14.5,45,32.2c0,17.7-20.2,32.2-45,32.2c-24.8,0-45-14.5-45-32.2
		C101.1,204.6,121.3,190.1,146.1,190.1L146.1,190.1z"/>
	<path class="st32" d="M146.1,190.5c24.6,0,44.7,14.3,44.7,31.9c0,17.6-20.1,31.9-44.7,31.9c-24.6,0-44.7-14.3-44.7-31.9
		C101.4,204.8,121.5,190.5,146.1,190.5L146.1,190.5z"/>
	<path class="st32" d="M146.1,190.9c24.4,0,44.3,14.2,44.3,31.7c0,17.4-19.9,31.7-44.3,31.7c-24.4,0-44.3-14.2-44.3-31.7
		C101.8,205.1,121.7,190.9,146.1,190.9L146.1,190.9z"/>
	<path class="st33" d="M146.1,191.3c24.2,0,44,14.1,44,31.4c0,17.3-19.8,31.4-44,31.4c-24.2,0-44-14.1-44-31.4
		C102.1,205.4,121.9,191.3,146.1,191.3L146.1,191.3z"/>
	<path class="st33" d="M146.1,191.7c24,0,43.6,14,43.6,31.2c0,17.2-19.6,31.2-43.6,31.2c-24,0-43.6-14-43.6-31.2
		C102.5,205.7,122.1,191.7,146.1,191.7L146.1,191.7z"/>
	<path class="st33" d="M146.1,192c23.8,0,43.3,13.9,43.3,30.9c0,17-19.4,30.9-43.3,30.9c-23.8,0-43.3-13.9-43.3-30.9
		C102.8,205.9,122.2,192,146.1,192L146.1,192z"/>
	<path class="st34" d="M146.1,192.4c23.7,0,43,13.8,43,30.6c0,16.9-19.3,30.6-43,30.6c-23.7,0-43-13.8-43-30.6
		C103.1,206.2,122.4,192.4,146.1,192.4L146.1,192.4z"/>
	<path class="st34" d="M146.1,192.8c23.5,0,42.6,13.7,42.6,30.4c0,16.7-19.1,30.4-42.6,30.4c-23.5,0-42.6-13.7-42.6-30.4
		C103.5,206.5,122.6,192.8,146.1,192.8L146.1,192.8z"/>
	<path class="st35" d="M146.1,193.2c23.3,0,42.3,13.5,42.3,30.1c0,16.6-19,30.1-42.3,30.1c-23.3,0-42.3-13.5-42.3-30.1
		C103.8,206.7,122.8,193.2,146.1,193.2L146.1,193.2z"/>
	<path class="st36" d="M146.1,193.6c23.1,0,41.9,13.4,41.9,29.9c0,16.5-18.8,29.9-41.9,29.9c-23.1,0-41.9-13.4-41.9-29.9
		C104.2,207,123,193.6,146.1,193.6L146.1,193.6z"/>
	<path class="st36" d="M146.1,194c22.9,0,41.6,13.3,41.6,29.6c0,16.3-18.7,29.6-41.6,29.6c-22.9,0-41.6-13.3-41.6-29.6
		C104.5,207.3,123.2,194,146.1,194L146.1,194z"/>
	<path class="st37" d="M146.1,194.4c22.7,0,41.2,13.2,41.2,29.4c0,16.2-18.5,29.4-41.2,29.4c-22.7,0-41.2-13.2-41.2-29.4
		C104.9,207.6,123.4,194.4,146.1,194.4L146.1,194.4z"/>
	<path class="st37" d="M146.1,194.8c22.5,0,40.9,13.1,40.9,29.1c0,16-18.4,29.1-40.9,29.1c-22.5,0-40.9-13.1-40.9-29.1
		C105.2,207.8,123.6,194.8,146.1,194.8L146.1,194.8z"/>
	<path class="st38" d="M146.1,195.1c22.3,0,40.5,13,40.5,28.9c0,15.9-18.2,28.9-40.5,28.9c-22.3,0-40.5-13-40.5-28.9
		C105.6,208.1,123.8,195.1,146.1,195.1L146.1,195.1z"/>
	<path class="st39" d="M146.1,195.5c22.1,0,40.2,12.8,40.2,28.6c0,15.8-18.1,28.6-40.2,28.6c-22.1,0-40.2-12.8-40.2-28.6
		C105.9,208.4,124,195.5,146.1,195.5L146.1,195.5z"/>
	<path class="st39" d="M146.1,195.9c21.9,0,39.8,12.7,39.8,28.4c0,15.6-17.9,28.3-39.8,28.3c-21.9,0-39.8-12.7-39.8-28.3
		C106.3,208.7,124.2,195.9,146.1,195.9L146.1,195.9z"/>
	<path class="st40" d="M146.1,196.3c21.8,0,39.5,12.6,39.5,28.1c0,15.5-17.7,28.1-39.5,28.1c-21.8,0-39.5-12.6-39.5-28.1
		C106.6,208.9,124.3,196.3,146.1,196.3L146.1,196.3z"/>
	<path class="st40" d="M146.1,196.7c21.6,0,39.2,12.5,39.2,27.8c0,15.3-17.6,27.8-39.2,27.8c-21.6,0-39.2-12.5-39.2-27.8
		C106.9,209.2,124.5,196.7,146.1,196.7L146.1,196.7z"/>
	<path class="st40" d="M146.1,197.1c21.4,0,38.8,12.4,38.8,27.6c0,15.2-17.4,27.6-38.8,27.6c-21.4,0-38.8-12.4-38.8-27.6
		C107.3,209.5,124.7,197.1,146.1,197.1L146.1,197.1z"/>
	<path class="st41" d="M146.1,197.5c21.2,0,38.5,12.3,38.5,27.3c0,15.1-17.3,27.3-38.5,27.3c-21.2,0-38.5-12.3-38.5-27.3
		C107.6,209.7,124.9,197.5,146.1,197.5L146.1,197.5z"/>
	<path class="st41" d="M146.1,197.9c21,0,38.1,12.2,38.1,27.1c0,14.9-17.1,27.1-38.1,27.1c-21,0-38.1-12.2-38.1-27.1
		C108,210,125.1,197.9,146.1,197.9L146.1,197.9z"/>
	<path class="st42" d="M146.1,198.2c20.8,0,37.8,12,37.8,26.8c0,14.8-17,26.8-37.8,26.8c-20.8,0-37.8-12-37.8-26.8
		C108.3,210.3,125.3,198.2,146.1,198.2L146.1,198.2z"/>
	<path class="st43" d="M146.1,198.6c20.6,0,37.4,11.9,37.4,26.6c0,14.6-16.8,26.6-37.4,26.6c-20.6,0-37.4-11.9-37.4-26.6
		C108.7,210.6,125.5,198.6,146.1,198.6L146.1,198.6z"/>
	<path class="st43" d="M146.1,199c20.4,0,37.1,11.8,37.1,26.3c0,14.5-16.7,26.3-37.1,26.3c-20.4,0-37.1-11.8-37.1-26.3
		C109,210.8,125.7,199,146.1,199L146.1,199z"/>
	<path class="st43" d="M146.1,199.4c20.2,0,36.7,11.7,36.7,26.1c0,14.4-16.5,26.1-36.7,26.1c-20.2,0-36.7-11.7-36.7-26.1
		C109.4,211.1,125.9,199.4,146.1,199.4L146.1,199.4z"/>
	<path class="st43" d="M146.1,199.8c20,0,36.4,11.6,36.4,25.8c0,14.2-16.3,25.8-36.4,25.8c-20,0-36.4-11.6-36.4-25.8
		C109.7,211.4,126.1,199.8,146.1,199.8L146.1,199.8z"/>
	<path class="st44" d="M146.1,200.2c19.9,0,36,11.5,36,25.5c0,14.1-16.2,25.5-36,25.5c-19.9,0-36-11.5-36-25.5
		C110.1,211.7,126.2,200.2,146.1,200.2L146.1,200.2z"/>
	<path class="st45" d="M146.1,200.6c19.7,0,35.7,11.4,35.7,25.3c0,13.9-16,25.3-35.7,25.3c-19.7,0-35.7-11.4-35.7-25.3
		C110.4,211.9,126.4,200.6,146.1,200.6L146.1,200.6z"/>
	<path class="st45" d="M146.1,201c19.5,0,35.4,11.2,35.4,25c0,13.8-15.9,25-35.4,25c-19.5,0-35.4-11.2-35.4-25
		C110.7,212.2,126.6,201,146.1,201L146.1,201z"/>
	<path class="st46" d="M146.1,201.3c19.3,0,35,11.1,35,24.8c0,13.6-15.7,24.8-35,24.8c-19.3,0-35-11.1-35-24.8
		C111.1,212.5,126.8,201.3,146.1,201.3L146.1,201.3z"/>
	<path class="st46" d="M146.1,201.7c19.1,0,34.7,11,34.7,24.5c0,13.5-15.6,24.5-34.7,24.5c-19.1,0-34.7-11-34.7-24.5
		C111.4,212.8,127,201.7,146.1,201.7L146.1,201.7z"/>
	<path class="st47" d="M146.1,202.1c18.9,0,34.3,10.9,34.3,24.3c0,13.4-15.4,24.3-34.3,24.3c-18.9,0-34.3-10.9-34.3-24.3
		C111.8,213,127.2,202.1,146.1,202.1L146.1,202.1z"/>
	<path class="st48" d="M146.1,202.5c18.7,0,34,10.8,34,24c0,13.2-15.3,24-34,24c-18.7,0-34-10.8-34-24
		C112.1,213.3,127.4,202.5,146.1,202.5L146.1,202.5z"/>
	<path class="st48" d="M146.1,202.9c18.5,0,33.6,10.7,33.6,23.8c0,13.1-15.1,23.8-33.6,23.8c-18.5,0-33.6-10.7-33.6-23.8
		C112.5,213.6,127.6,202.9,146.1,202.9L146.1,202.9z"/>
	<path class="st49" d="M146.1,203.3c18.3,0,33.3,10.6,33.3,23.5c0,12.9-15,23.5-33.3,23.5c-18.3,0-33.3-10.6-33.3-23.5
		C112.8,213.8,127.8,203.3,146.1,203.3L146.1,203.3z"/>
	<path class="st49" d="M146.1,203.7c18.1,0,32.9,10.4,32.9,23.3c0,12.8-14.8,23.3-32.9,23.3c-18.1,0-32.9-10.4-32.9-23.3
		C113.2,214.1,128,203.7,146.1,203.7L146.1,203.7z"/>
	<path class="st50" d="M146.1,204.1c18,0,32.6,10.3,32.6,23c0,12.7-14.6,23-32.6,23c-18,0-32.6-10.3-32.6-23
		C113.5,214.4,128.1,204.1,146.1,204.1L146.1,204.1z"/>
	<path class="st51" d="M146.1,204.4c17.8,0,32.2,10.2,32.2,22.7c0,12.5-14.5,22.7-32.2,22.7c-17.8,0-32.2-10.2-32.2-22.7
		C113.9,214.7,128.3,204.4,146.1,204.4L146.1,204.4z"/>
	<path class="st51" d="M146.1,204.8c17.6,0,31.9,10.1,31.9,22.5c0,12.4-14.3,22.5-31.9,22.5c-17.6,0-31.9-10.1-31.9-22.5
		C114.2,214.9,128.5,204.8,146.1,204.8L146.1,204.8z"/>
	<path class="st52" d="M146.1,205.2c17.4,0,31.6,10,31.6,22.2c0,12.2-14.2,22.2-31.6,22.2c-17.4,0-31.6-10-31.6-22.2
		C114.5,215.2,128.7,205.2,146.1,205.2L146.1,205.2z"/>
	<path class="st52" d="M146.1,205.6c17.2,0,31.2,9.9,31.2,22c0,12.1-14,22-31.2,22c-17.2,0-31.2-9.9-31.2-22
		C114.9,215.5,128.9,205.6,146.1,205.6L146.1,205.6z"/>
	<path class="st53" d="M146.1,206c17,0,30.9,9.8,30.9,21.7c0,12-13.9,21.7-30.9,21.7c-17,0-30.9-9.8-30.9-21.7
		C115.2,215.8,129.1,206,146.1,206L146.1,206z"/>
	<path class="st54" d="M146.1,206.4c16.8,0,30.5,9.6,30.5,21.5c0,11.8-13.7,21.5-30.5,21.5c-16.8,0-30.5-9.6-30.5-21.5
		C115.6,216,129.3,206.4,146.1,206.4L146.1,206.4z"/>
	<path class="st54" d="M146.1,206.8c16.6,0,30.2,9.5,30.2,21.2c0,11.7-13.6,21.2-30.2,21.2c-16.6,0-30.2-9.5-30.2-21.2
		C115.9,216.3,129.5,206.8,146.1,206.8L146.1,206.8z"/>
	<path class="st55" d="M146.1,207.2c16.4,0,29.8,9.4,29.8,21c0,11.5-13.4,21-29.8,21c-16.4,0-29.8-9.4-29.8-21
		C116.3,216.6,129.7,207.2,146.1,207.2L146.1,207.2z"/>
	<path class="st56" d="M146.1,207.5c16.2,0,29.5,9.3,29.5,20.7c0,11.4-13.2,20.7-29.5,20.7c-16.2,0-29.5-9.3-29.5-20.7
		C116.6,216.8,129.9,207.5,146.1,207.5L146.1,207.5z"/>
	<path class="st56" d="M146.1,207.9c16,0,29.1,9.2,29.1,20.5c0,11.3-13.1,20.5-29.1,20.5c-16,0-29.1-9.2-29.1-20.5
		C117,217.1,130,207.9,146.1,207.9L146.1,207.9z"/>
	<path class="st57" d="M146.1,208.3c15.9,0,28.8,9.1,28.8,20.2c0,11.1-12.9,20.2-28.8,20.2c-15.9,0-28.8-9.1-28.8-20.2
		C117.3,217.4,130.2,208.3,146.1,208.3L146.1,208.3z"/>
	<path class="st57" d="M146.1,208.7c15.7,0,28.4,9,28.4,19.9c0,11-12.8,19.9-28.4,19.9c-15.7,0-28.4-9-28.4-19.9
		C117.7,217.7,130.4,208.7,146.1,208.7L146.1,208.7z"/>
	<path class="st58" d="M146.1,209.1c15.5,0,28.1,8.8,28.1,19.7c0,10.8-12.6,19.7-28.1,19.7c-15.5,0-28.1-8.8-28.1-19.7
		C118,217.9,130.6,209.1,146.1,209.1L146.1,209.1z"/>
	<path class="st59" d="M146.1,209.5c15.3,0,27.8,8.7,27.8,19.4c0,10.7-12.5,19.4-27.8,19.4c-15.3,0-27.8-8.7-27.8-19.4
		C118.3,218.2,130.8,209.5,146.1,209.5L146.1,209.5z"/>
	<path class="st59" d="M146.1,209.9c15.1,0,27.4,8.6,27.4,19.2c0,10.6-12.3,19.2-27.4,19.2c-15.1,0-27.4-8.6-27.4-19.2
		C118.7,218.5,131,209.9,146.1,209.9L146.1,209.9z"/>
	<path class="st60" d="M146.1,210.3c14.9,0,27.1,8.5,27.1,18.9c0,10.4-12.2,18.9-27.1,18.9c-14.9,0-27.1-8.5-27.1-18.9
		C119,218.8,131.2,210.3,146.1,210.3L146.1,210.3z"/>
	<path class="st60" d="M146.1,210.6c14.7,0,26.7,8.4,26.7,18.7c0,10.3-12,18.7-26.7,18.7c-14.7,0-26.7-8.4-26.7-18.7
		C119.4,219,131.4,210.6,146.1,210.6L146.1,210.6z"/>
	<path class="st61" d="M146.1,211c14.5,0,26.4,8.3,26.4,18.4c0,10.1-11.8,18.4-26.4,18.4c-14.5,0-26.4-8.3-26.4-18.4
		C119.7,219.3,131.6,211,146.1,211L146.1,211z"/>
	<path class="st62" d="M146.1,211.4c14.3,0,26,8.2,26,18.2c0,10-11.7,18.2-26,18.2c-14.3,0-26-8.2-26-18.2
		C120.1,219.6,131.8,211.4,146.1,211.4L146.1,211.4z"/>
	<path class="st62" d="M146.1,211.8c14.1,0,25.7,8,25.7,17.9c0,9.9-11.5,17.9-25.7,17.9c-14.1,0-25.7-8-25.7-17.9
		C120.4,219.9,132,211.8,146.1,211.8L146.1,211.8z"/>
	<path class="st63" d="M146.1,212.2c14,0,25.3,7.9,25.3,17.7c0,9.7-11.4,17.6-25.3,17.6c-14,0-25.3-7.9-25.3-17.6
		C120.8,220.1,132.1,212.2,146.1,212.2L146.1,212.2z"/>
	<path class="st63" d="M146.1,212.6c13.8,0,25,7.8,25,17.4c0,9.6-11.2,17.4-25,17.4c-13.8,0-25-7.8-25-17.4
		C121.1,220.4,132.3,212.6,146.1,212.6L146.1,212.6z"/>
	<path class="st63" d="M146.1,213c13.6,0,24.6,7.7,24.6,17.1c0,9.4-11.1,17.1-24.6,17.1c-13.6,0-24.6-7.7-24.6-17.1
		C121.4,220.7,132.5,213,146.1,213L146.1,213z"/>
	<path class="st64" d="M146.1,213.4c13.4,0,24.3,7.6,24.3,16.9c0,9.3-10.9,16.9-24.3,16.9c-13.4,0-24.3-7.6-24.3-16.9
		C121.8,220.9,132.7,213.4,146.1,213.4L146.1,213.4z"/>
	<path class="st64" d="M146.1,213.7c13.2,0,24,7.5,24,16.6c0,9.2-10.8,16.6-24,16.6c-13.2,0-24-7.5-24-16.6
		C122.1,221.2,132.9,213.7,146.1,213.7L146.1,213.7z"/>
	<path class="st65" d="M146.1,214.1c13,0,23.6,7.4,23.6,16.4c0,9-10.6,16.4-23.6,16.4c-13,0-23.6-7.4-23.6-16.4
		C122.5,221.5,133.1,214.1,146.1,214.1L146.1,214.1z"/>
	<path class="st65" d="M146.1,214.5c12.8,0,23.3,7.2,23.3,16.1c0,8.9-10.5,16.1-23.3,16.1c-12.8,0-23.3-7.2-23.3-16.1
		C122.8,221.8,133.3,214.5,146.1,214.5L146.1,214.5z"/>
	<path class="st65" d="M146.1,214.9c12.6,0,22.9,7.1,22.9,15.9c0,8.7-10.3,15.9-22.9,15.9c-12.6,0-22.9-7.1-22.9-15.9
		C123.2,222,133.5,214.9,146.1,214.9L146.1,214.9z"/>
	<path class="st66" d="M146.1,215.3c12.4,0,22.6,7,22.6,15.6c0,8.6-10.1,15.6-22.6,15.6c-12.4,0-22.6-7-22.6-15.6
		C123.5,222.3,133.7,215.3,146.1,215.3L146.1,215.3z"/>
	<path class="st66" d="M146.1,215.7c12.2,0,22.2,6.9,22.2,15.4c0,8.5-10,15.4-22.2,15.4c-12.2,0-22.2-6.9-22.2-15.4
		C123.9,222.6,133.9,215.7,146.1,215.7L146.1,215.7z"/>
	<path class="st67" d="M146.1,216.1c12.1,0,21.9,6.8,21.9,15.1c0,8.3-9.8,15.1-21.9,15.1c-12.1,0-21.9-6.8-21.9-15.1
		C124.2,222.9,134,216.1,146.1,216.1L146.1,216.1z"/>
	<path class="st68" d="M146.1,216.5c11.9,0,21.5,6.7,21.5,14.8c0,8.2-9.7,14.8-21.5,14.8c-11.9,0-21.5-6.7-21.5-14.8
		C124.6,223.1,134.2,216.5,146.1,216.5L146.1,216.5z"/>
	<path class="st68" d="M146.1,216.8c11.7,0,21.2,6.6,21.2,14.6c0,8-9.5,14.6-21.2,14.6c-11.7,0-21.2-6.6-21.2-14.6
		C124.9,223.4,134.4,216.8,146.1,216.8L146.1,216.8z"/>
	<path class="st69" d="M146.1,217.2c11.5,0,20.8,6.4,20.8,14.3c0,7.9-9.4,14.3-20.8,14.3c-11.5,0-20.8-6.4-20.8-14.3
		C125.2,223.7,134.6,217.2,146.1,217.2L146.1,217.2z"/>
	<path class="st69" d="M146.1,217.6c11.3,0,20.5,6.3,20.5,14.1c0,7.8-9.2,14.1-20.5,14.1c-11.3,0-20.5-6.3-20.5-14.1
		C125.6,223.9,134.8,217.6,146.1,217.6L146.1,217.6z"/>
	<path class="st70" d="M146.1,218c11.1,0,20.2,6.2,20.2,13.8c0,7.6-9.1,13.8-20.2,13.8c-11.1,0-20.2-6.2-20.2-13.8
		C125.9,224.2,135,218,146.1,218L146.1,218z"/>
	<path class="st71" d="M146.1,218.4c10.9,0,19.8,6.1,19.8,13.6c0,7.5-8.9,13.6-19.8,13.6c-10.9,0-19.8-6.1-19.8-13.6
		C126.3,224.5,135.2,218.4,146.1,218.4L146.1,218.4z"/>
	<path class="st71" d="M146.1,218.8c10.7,0,19.5,6,19.5,13.3c0,7.3-8.7,13.3-19.5,13.3c-10.7,0-19.5-6-19.5-13.3
		C126.6,224.8,135.4,218.8,146.1,218.8L146.1,218.8z"/>
	<path class="st72" d="M146.1,219.2c10.5,0,19.1,5.9,19.1,13.1c0,7.2-8.6,13.1-19.1,13.1c-10.5,0-19.1-5.9-19.1-13.1
		C127,225,135.6,219.2,146.1,219.2L146.1,219.2z"/>
	<path class="st72" d="M146.1,219.6c10.3,0,18.8,5.8,18.8,12.8c0,7.1-8.4,12.8-18.8,12.8c-10.3,0-18.8-5.8-18.8-12.8
		C127.3,225.3,135.8,219.6,146.1,219.6L146.1,219.6z"/>
	<path class="st73" d="M146.1,219.9c10.2,0,18.4,5.6,18.4,12.6c0,6.9-8.3,12.6-18.4,12.6c-10.2,0-18.4-5.6-18.4-12.6
		C127.7,225.6,135.9,219.9,146.1,219.9L146.1,219.9z"/>
	<path class="st74" d="M146.1,220.3c10,0,18.1,5.5,18.1,12.3c0,6.8-8.1,12.3-18.1,12.3c-10,0-18.1-5.5-18.1-12.3
		C128,225.9,136.1,220.3,146.1,220.3L146.1,220.3z"/>
	<path class="st74" d="M146.1,220.7c9.8,0,17.7,5.4,17.7,12c0,6.6-8,12-17.7,12c-9.8,0-17.7-5.4-17.7-12
		C128.4,226.1,136.3,220.7,146.1,220.7L146.1,220.7z"/>
	<path class="st74" d="M146.1,221.1c9.6,0,17.4,5.3,17.4,11.8c0,6.5-7.8,11.8-17.4,11.8c-9.6,0-17.4-5.3-17.4-11.8
		C128.7,226.4,136.5,221.1,146.1,221.1L146.1,221.1z"/>
	<path class="st74" d="M146.1,221.5c9.4,0,17,5.2,17,11.5c0,6.4-7.7,11.5-17,11.5c-9.4,0-17.1-5.2-17.1-11.5
		C129,226.7,136.7,221.5,146.1,221.5L146.1,221.5z"/>
	<path class="st75" d="M146.1,221.9c9.2,0,16.7,5.1,16.7,11.3c0,6.2-7.5,11.3-16.7,11.3c-9.2,0-16.7-5.1-16.7-11.3
		C129.4,227,136.9,221.9,146.1,221.9L146.1,221.9z"/>
	<path class="st76" d="M146.1,222.3c9,0,16.4,5,16.4,11c0,6.1-7.3,11-16.4,11c-9,0-16.4-5-16.4-11
		C129.7,227.2,137.1,222.3,146.1,222.3L146.1,222.3z"/>
	<path class="st76" d="M146.1,222.7c8.8,0,16,4.8,16,10.8c0,5.9-7.2,10.8-16,10.8c-8.8,0-16-4.8-16-10.8
		C130.1,227.5,137.3,222.7,146.1,222.7L146.1,222.7z"/>
	<path class="st76" d="M146.1,223c8.6,0,15.7,4.7,15.7,10.5c0,5.8-7,10.5-15.7,10.5c-8.6,0-15.7-4.7-15.7-10.5
		C130.4,227.8,137.5,223,146.1,223L146.1,223z"/>
	<path class="st77" d="M146.1,223.4c8.4,0,15.3,4.6,15.3,10.3c0,5.7-6.9,10.3-15.3,10.3c-8.4,0-15.3-4.6-15.3-10.3
		C130.8,228,137.7,223.4,146.1,223.4L146.1,223.4z"/>
	<path class="st77" d="M146.1,223.8c8.2,0,15,4.5,15,10c0,5.5-6.7,10-15,10c-8.2,0-15-4.5-15-10
		C131.1,228.3,137.8,223.8,146.1,223.8L146.1,223.8z"/>
	<path class="st78" d="M146.1,224.2c8.1,0,14.6,4.4,14.6,9.8c0,5.4-6.6,9.8-14.6,9.8c-8.1,0-14.6-4.4-14.6-9.8
		C131.5,228.6,138,224.2,146.1,224.2L146.1,224.2z"/>
	<path class="st78" d="M146.1,224.6c7.9,0,14.3,4.3,14.3,9.5c0,5.2-6.4,9.5-14.3,9.5c-7.9,0-14.3-4.3-14.3-9.5
		C131.8,228.9,138.2,224.6,146.1,224.6L146.1,224.6z"/>
	<path class="st79" d="M146.1,225c7.7,0,13.9,4.2,13.9,9.2c0,5.1-6.3,9.2-13.9,9.2c-7.7,0-13.9-4.2-13.9-9.2
		C132.2,229.1,138.4,225,146.1,225L146.1,225z"/>
	<path class="st80" d="M146.1,225.4c7.5,0,13.6,4,13.6,9c0,5-6.1,9-13.6,9c-7.5,0-13.6-4-13.6-9
		C132.5,229.4,138.6,225.4,146.1,225.4L146.1,225.4z"/>
	<path class="st80" d="M146.1,225.8c7.3,0,13.3,3.9,13.3,8.7c0,4.8-6,8.7-13.3,8.7c-7.3,0-13.3-3.9-13.3-8.7
		C132.8,229.7,138.8,225.8,146.1,225.8L146.1,225.8z"/>
	<path class="st81" d="M146.1,226.1c7.1,0,12.9,3.8,12.9,8.5c0,4.7-5.8,8.5-12.9,8.5c-7.1,0-12.9-3.8-12.9-8.5
		C133.2,230,139,226.1,146.1,226.1L146.1,226.1z"/>
	<path class="st81" d="M146.1,226.5c6.9,0,12.6,3.7,12.6,8.2c0,4.5-5.6,8.2-12.6,8.2s-12.6-3.7-12.6-8.2
		C133.5,230.2,139.2,226.5,146.1,226.5L146.1,226.5z"/>
	<path class="st81" d="M146.1,226.9c6.7,0,12.2,3.6,12.2,8c0,4.4-5.5,8-12.2,8c-6.7,0-12.2-3.6-12.2-8
		C133.9,230.5,139.4,226.9,146.1,226.9L146.1,226.9z"/>
	<path class="st82" d="M146.1,227.3c6.5,0,11.9,3.5,11.9,7.7c0,4.2-5.3,7.7-11.9,7.7c-6.5,0-11.9-3.5-11.9-7.7
		C134.2,230.8,139.6,227.3,146.1,227.3L146.1,227.3z"/>
	<path class="st82" d="M146.1,227.7c6.3,0,11.5,3.4,11.5,7.5c0,4.1-5.2,7.5-11.5,7.5c-6.3,0-11.5-3.4-11.5-7.5
		C134.6,231,139.8,227.7,146.1,227.7L146.1,227.7z"/>
	<path class="st82" d="M146.1,228.1c6.2,0,11.2,3.2,11.2,7.2c0,4-5,7.2-11.2,7.2c-6.2,0-11.2-3.2-11.2-7.2
		C134.9,231.3,139.9,228.1,146.1,228.1L146.1,228.1z"/>
	<path class="st82" d="M146.1,228.5c6,0,10.8,3.1,10.8,7c0,3.8-4.9,7-10.8,7c-6,0-10.8-3.1-10.8-7
		C135.3,231.6,140.1,228.5,146.1,228.5L146.1,228.5z"/>
	<path class="st83" d="M146.1,228.9c5.8,0,10.5,3,10.5,6.7c0,3.7-4.7,6.7-10.5,6.7c-5.8,0-10.5-3-10.5-6.7
		C135.6,231.9,140.3,228.9,146.1,228.9L146.1,228.9z"/>
	<path class="st84" d="M146.1,229.2c5.6,0,10.1,2.9,10.1,6.4c0,3.5-4.6,6.4-10.1,6.4c-5.6,0-10.1-2.9-10.1-6.4
		C136,232.1,140.5,229.2,146.1,229.2L146.1,229.2z"/>
	<path class="st84" d="M146.1,229.6c5.4,0,9.8,2.8,9.8,6.2c0,3.4-4.4,6.2-9.8,6.2c-5.4,0-9.8-2.8-9.8-6.2
		C136.3,232.4,140.7,229.6,146.1,229.6L146.1,229.6z"/>
	<path class="st85" d="M146.1,230c5.2,0,9.5,2.7,9.5,5.9c0,3.3-4.2,5.9-9.5,5.9c-5.2,0-9.5-2.7-9.5-5.9
		C136.6,232.7,140.9,230,146.1,230L146.1,230z"/>
	<path class="st85" d="M146.1,230.4c5,0,9.1,2.5,9.1,5.7c0,3.1-4.1,5.7-9.1,5.7c-5,0-9.1-2.5-9.1-5.7
		C137,233,141.1,230.4,146.1,230.4L146.1,230.4z"/>
	<path class="st86" d="M244.5,101.2l7.6,7.6l-25.7,26c-2.6-2.6-5-5-7.6-7.6L244.5,101.2L244.5,101.2z M200,134
		c11.7,0,21.3,9.6,21.3,21.3c0,11.7-9.6,21.3-21.3,21.3c-11.7,0-21.3-9.6-21.3-21.3C178.7,143.6,188.2,134,200,134L200,134z
		 M200,142.9c6.7,0,12.1,5.6,12.1,12.4c0,6.8-5.4,12.4-12.1,12.4c-6.7,0-12.1-5.6-12.1-12.4C187.9,148.5,193.3,142.9,200,142.9
		L200,142.9z M87.9,157.2c-0.4,1.3-0.9,2.6-1.5,3.8c-0.7,1.5-1.6,3-2.6,4.4c-5.1,7-13.3,11.5-22.2,11.5h0c-7.7,0-14.6-3.2-19.7-8.4
		c-5-5.2-8.1-12.2-8.1-20v0v0c0-7.8,3.1-14.9,8.1-20.1c5-5.2,12-8.4,19.7-8.4h0h0c3,0,5.9,0.5,8.6,1.4c1.3,0.4,2.6,1,3.9,1.6l0,0
		c6.1,3.1,11,8.5,13.5,15.3H75.8c-1.7-2.5-3.9-4.6-6.6-5.9l0,0c-0.7-0.4-1.5-0.7-2.4-1c-1.7-0.6-3.5-0.9-5.3-0.9h0h0
		c-4.7,0-9,2-12.1,5.2c-3.2,3.2-5.1,7.7-5.1,12.7v0v0c0,5,2,9.5,5.1,12.7c3.1,3.2,7.4,5.2,12.1,5.2h0c5.5,0,10.6-2.8,13.8-7.1
		c0.4-0.6,0.9-1.2,1.2-1.9H87.9L87.9,157.2z M258.5,142.8v10.8h-26.4v-10.8H258.5L258.5,142.8z M197.8,94.8h10.8v26.4h-10.8V94.8
		L197.8,94.8z M103.4,121.4v53.8H92.8v-53.8H103.4L103.4,121.4z M120.3,164c0,1.5,0.6,2.7,1.7,3.5c1.1,0.8,2.6,1.2,4.4,1.2
		c2.9-0.1,5.1-1.1,6.5-2.8c1.4-1.8,2.2-3.5,2.2-5.3v-5c-2.5,1.4-5.5,2.3-9,2.6C122.6,158.5,120.7,160.5,120.3,164L120.3,164z
		 M110.1,164.7c0.1-4.8,1.4-8.1,3.8-9.9c2.4-1.8,5.3-3,8.6-3.4c3.3-0.4,6.1-0.8,8.6-1.2c2.5-0.4,3.8-1.4,3.9-3.2
		c0-1.5-0.4-2.7-1.2-3.6c-0.9-0.8-2.5-1.3-5-1.3c-2.6,0-4.5,0.5-5.6,1.4c-1.1,0.9-1.7,2.3-1.6,4.2h-9.9c0-4.3,1.3-7.6,4.1-10
		c2.7-2.4,7.1-3.7,13.1-3.7c5,0,9,1,12,2.9c3,1.9,4.5,4.5,4.6,7.9v24.7c0,0.9,0.1,1.7,0.4,2.4c0.3,0.6,0.9,1.2,1.7,1.6v1.7h-10.9
		c-0.4-0.6-0.8-1.3-1-2.2c-0.2-0.9-0.3-1.8-0.4-2.7c-1,1.8-2.6,3.2-4.7,4.4c-2.1,1.1-4.8,1.8-7.9,1.8c-4.2-0.1-7.3-1.1-9.4-3.1
		C111.2,171.4,110.1,168.5,110.1,164.7L110.1,164.7z M164.4,154.3v20.9h-10.7v-39.3h9.9v7.1c1-2.1,2.4-4.1,4.2-5.8
		c1.8-1.7,4.8-2.6,8.9-2.7v10.7c-3.1-0.2-5.9,0.2-8.4,1.1C165.9,147.3,164.6,150,164.4,154.3L164.4,154.3z"/>
	<path class="st0" d="M101,97c-37.3-8.1-46.4-23.7-23.4-49.4c33.2-37.2,103.7-37.2,136.9,0c23,25.8,13.9,41.3-23.4,49.4
		C162,103.3,130.2,103.3,101,97L101,97z"/>
	<path class="st0" d="M101.1,96.8c-37.3-8.1-46.3-23.6-23.4-49.3c33.2-37.1,103.5-37.1,136.7,0c23,25.7,13.9,41.2-23.4,49.3
		C162,103.1,130.2,103.1,101.1,96.8L101.1,96.8z"/>
	<path class="st0" d="M101.2,96.6C64,88.6,54.9,73.1,77.9,47.5c33.1-37,103.3-37,136.5,0c22.9,25.6,13.9,41.1-23.3,49.1
		C161.9,102.9,130.3,102.9,101.2,96.6L101.2,96.6z"/>
	<path class="st0" d="M101.3,96.5c-37.1-8-46.2-23.5-23.3-49c33.1-36.8,103.2-36.8,136.2,0c22.9,25.5,13.9,41-23.3,49
		C161.9,102.7,130.3,102.7,101.3,96.5L101.3,96.5z"/>
	<path class="st0" d="M101.3,96.3c-37.1-8-46.1-23.4-23.2-48.9c33-36.7,103-36.7,136,0c22.9,25.5,13.8,40.8-23.2,48.9
		C161.9,102.6,130.3,102.6,101.3,96.3L101.3,96.3z"/>
	<path class="st0" d="M101.4,96.1c-37-8-46-23.3-23.2-48.7c33-36.6,102.8-36.6,135.8,0c22.8,25.4,13.8,40.7-23.2,48.7
		C161.9,102.4,130.3,102.4,101.4,96.1L101.4,96.1z"/>
	<path class="st0" d="M101.5,95.9c-37-8-46-23.3-23.2-48.6c32.9-36.5,102.7-36.5,135.6,0c22.8,25.3,13.8,40.6-23.2,48.6
		C161.8,102.2,130.4,102.2,101.5,95.9L101.5,95.9z"/>
	<path class="st0" d="M101.5,95.8c-36.9-7.9-45.9-23.2-23.1-48.4c32.9-36.4,102.5-36.4,135.4,0c22.8,25.2,13.8,40.5-23.1,48.4
		C161.8,102,130.4,102,101.5,95.8L101.5,95.8z"/>
	<path class="st0" d="M101.6,95.6c-36.8-7.9-45.8-23.1-23.1-48.3c32.8-36.3,102.4-36.3,135.2,0c22.7,25.2,13.7,40.3-23.1,48.3
		C161.8,101.8,130.4,101.8,101.6,95.6L101.6,95.6z"/>
	<path class="st0" d="M101.7,95.4c-36.8-7.9-45.8-23-23.1-48.1c32.8-36.2,102.2-36.2,135,0c22.7,25.1,13.7,40.2-23.1,48.1
		C161.8,101.6,130.4,101.6,101.7,95.4L101.7,95.4z"/>
	<path class="st0" d="M101.8,95.2c-36.7-7.9-45.7-23-23-48c32.7-36.1,102-36.1,134.7,0c22.7,25,13.7,40.1-23,48
		C161.7,101.4,130.5,101.4,101.8,95.2L101.8,95.2z"/>
	<path class="st0" d="M101.8,95.1c-36.7-7.8-45.6-22.9-23-47.8c32.6-36,101.9-36,134.5,0c22.6,24.9,13.7,40-23,47.8
		C161.7,101.2,130.5,101.2,101.8,95.1L101.8,95.1z"/>
	<path class="st0" d="M101.9,94.9c-36.6-7.8-45.5-22.8-22.9-47.7c32.6-35.8,101.7-35.8,134.3,0c22.6,24.8,13.7,39.9-22.9,47.7
		C161.7,101,130.5,101,101.9,94.9L101.9,94.9z"/>
	<path class="st0" d="M102,94.7C65.4,86.9,56.5,72,79.1,47.2c32.5-35.7,101.5-35.7,134.1,0c22.6,24.8,13.6,39.7-22.9,47.5
		C161.7,100.8,130.5,100.8,102,94.7L102,94.7z"/>
	<path class="st0" d="M102,94.5c-36.5-7.8-45.4-22.7-22.9-47.4c32.5-35.6,101.4-35.6,133.9,0c22.5,24.7,13.6,39.6-22.9,47.4
		C161.6,100.6,130.6,100.6,102,94.5L102,94.5z"/>
	<path class="st0" d="M102.1,94.4c-36.4-7.7-45.3-22.6-22.8-47.2c32.4-35.5,101.2-35.5,133.7,0c22.5,24.6,13.6,39.5-22.8,47.2
		C161.6,100.4,130.6,100.4,102.1,94.4L102.1,94.4z"/>
	<path class="st0" d="M102.2,94.2c-36.4-7.7-45.2-22.5-22.8-47.1c32.4-35.4,101.1-35.4,133.4,0c22.4,24.5,13.6,39.4-22.8,47.1
		C161.6,100.2,130.6,100.2,102.2,94.2L102.2,94.2z"/>
	<path class="st0" d="M102.2,94c-36.3-7.7-45.2-22.5-22.8-46.9c32.3-35.3,100.9-35.3,133.2,0c22.4,24.5,13.6,39.2-22.8,46.9
		C161.6,100,130.6,100,102.2,94L102.2,94z"/>
	<path class="st0" d="M102.3,93.8c-36.3-7.7-45.1-22.4-22.7-46.8c32.3-35.2,100.7-35.2,133,0c22.4,24.4,13.5,39.1-22.7,46.8
		C161.5,99.8,130.7,99.8,102.3,93.8L102.3,93.8z"/>
	<path class="st0" d="M102.4,93.7C66.2,86,57.4,71.3,79.7,47C111.9,12,180.3,12,212.5,47c22.3,24.3,13.5,39-22.7,46.6
		C161.5,99.6,130.7,99.6,102.4,93.7L102.4,93.7z"/>
	<path class="st0" d="M102.5,93.5c-36.1-7.6-45-22.3-22.7-46.5c32.2-34.9,100.4-34.9,132.6,0c22.3,24.2,13.5,38.9-22.7,46.5
		C161.5,99.4,130.7,99.4,102.5,93.5L102.5,93.5z"/>
	<path class="st0" d="M102.5,93.3C66.4,85.7,57.6,71.1,79.9,47c32.1-34.8,100.2-34.8,132.4,0c22.3,24.1,13.5,38.7-22.6,46.3
		C161.5,99.2,130.7,99.2,102.5,93.3L102.5,93.3z"/>
	<path class="st0" d="M102.6,93.1C66.6,85.6,57.8,71,80,46.9c32.1-34.7,100.1-34.7,132.2,0c22.2,24.1,13.4,38.6-22.6,46.2
		C161.4,99,130.8,99,102.6,93.1L102.6,93.1z"/>
	<path class="st0" d="M102.7,92.9c-36-7.5-44.7-22-22.5-46c32-34.6,99.9-34.6,131.9,0c22.2,24,13.4,38.5-22.5,46
		C161.4,98.9,130.8,98.9,102.7,92.9L102.7,92.9z"/>
	<path class="st0" d="M102.7,92.8c-35.9-7.5-44.7-22-22.5-45.9c32-34.5,99.8-34.5,131.7,0c22.2,23.9,13.4,38.4-22.5,45.9
		C161.4,98.7,130.8,98.7,102.7,92.8L102.7,92.8z"/>
	<path class="st0" d="M102.8,92.6C67,85.1,58.2,70.7,80.3,46.9c31.9-34.4,99.6-34.4,131.5,0c22.1,23.8,13.4,38.2-22.5,45.7
		C161.4,98.5,130.8,98.5,102.8,92.6L102.8,92.6z"/>
	<path class="st0" d="M102.9,92.4c-35.8-7.5-44.5-21.8-22.4-45.6c31.9-34.3,99.4-34.3,131.3,0c22.1,23.8,13.4,38.1-22.4,45.6
		C161.3,98.3,130.9,98.3,102.9,92.4L102.9,92.4z"/>
	<path class="st0" d="M103,92.2c-35.7-7.4-44.4-21.8-22.4-45.4c31.8-34.2,99.3-34.2,131.1,0c22,23.7,13.3,38-22.4,45.4
		C161.3,98.1,130.9,98.1,103,92.2L103,92.2z"/>
	<path class="st0" d="M103,92.1c-35.7-7.4-44.4-21.7-22.4-45.3c31.8-34.1,99.1-34.1,130.9,0c22,23.6,13.3,37.9-22.4,45.3
		C161.3,97.9,130.9,97.9,103,92.1L103,92.1z"/>
	<path class="st0" d="M103.1,91.9c-35.6-7.4-44.3-21.6-22.3-45.1c31.7-33.9,98.9-33.9,130.7,0c22,23.5,13.3,37.7-22.3,45.1
		C161.3,97.7,130.9,97.7,103.1,91.9L103.1,91.9z"/>
	<path class="st0" d="M103.2,91.7c-35.6-7.4-44.2-21.5-22.3-45c31.7-33.8,98.8-33.8,130.4,0c21.9,23.5,13.3,37.6-22.3,45
		C161.2,97.5,131,97.5,103.2,91.7L103.2,91.7z"/>
	<path class="st0" d="M103.2,91.5C67.7,84.2,59.1,70.1,81,46.7c31.6-33.7,98.6-33.7,130.2,0c21.9,23.4,13.2,37.5-22.3,44.8
		C161.2,97.3,131,97.3,103.2,91.5L103.2,91.5z"/>
	<path class="st0" d="M103.3,91.4C67.9,84,59.2,70,81.1,46.7c31.6-33.6,98.5-33.6,130,0C233,70,224.3,84,188.9,91.4
		C161.2,97.1,131,97.1,103.3,91.4L103.3,91.4z"/>
	<path class="st0" d="M103.4,91.2c-35.4-7.3-44-21.3-22.2-44.6c31.5-33.5,98.3-33.5,129.8,0c21.8,23.2,13.2,37.2-22.2,44.6
		C161.2,96.9,131,96.9,103.4,91.2L103.4,91.2z"/>
	<path class="st0" d="M103.4,91c-35.3-7.3-43.9-21.3-22.1-44.4c31.4-33.4,98.1-33.4,129.6,0c21.8,23.1,13.2,37.1-22.1,44.4
		C161.1,96.7,131.1,96.7,103.4,91L103.4,91z"/>
	<path class="st0" d="M103.5,90.8c-35.3-7.3-43.9-21.2-22.1-44.3c31.4-33.3,98-33.3,129.4,0c21.8,23.1,13.2,37-22.1,44.3
		C161.1,96.5,131.1,96.5,103.5,90.8L103.5,90.8z"/>
	<path class="st0" d="M103.6,90.7c-35.2-7.2-43.8-21.1-22.1-44.1c31.3-33.2,97.8-33.2,129.2,0c21.7,23,13.1,36.9-22.1,44.1
		C161.1,96.3,131.1,96.3,103.6,90.7L103.6,90.7z"/>
	<path class="st0" d="M103.7,90.5c-35.1-7.2-43.7-21-22-44c31.3-33.1,97.6-33.1,128.9,0c21.7,22.9,13.1,36.8-22,44
		C161.1,96.1,131.1,96.1,103.7,90.5L103.7,90.5z"/>
	<path class="st0" d="M103.7,90.3c-35.1-7.2-43.6-21-22-43.8c31.2-32.9,97.5-32.9,128.7,0c21.6,22.8,13.1,36.6-22,43.8
		C161,95.9,131.2,95.9,103.7,90.3L103.7,90.3z"/>
	<path class="st0" d="M103.8,90.1c-35-7.2-43.6-20.9-22-43.7c31.2-32.8,97.3-32.8,128.5,0c21.6,22.8,13.1,36.5-22,43.7
		C161,95.7,131.2,95.7,103.8,90.1L103.8,90.1z"/>
	<path class="st0" d="M103.9,90c-35-7.1-43.5-20.8-21.9-43.5c31.1-32.7,97.2-32.7,128.3,0c21.6,22.7,13,36.4-21.9,43.5
		C161,95.5,131.2,95.5,103.9,90L103.9,90z"/>
	<path class="st1" d="M103.9,89.8C69,82.7,60.5,69,82.1,46.4c31.1-32.6,97-32.6,128.1,0c21.5,22.6,13,36.3-21.9,43.4
		C161,95.3,131.2,95.3,103.9,89.8L103.9,89.8z"/>
	<path class="st1" d="M104,89.6c-34.9-7.1-43.4-20.7-21.8-43.2c31-32.5,96.8-32.5,127.9,0c21.5,22.5,13,36.1-21.8,43.2
		C160.9,95.2,131.3,95.2,104,89.6L104,89.6z"/>
	<path class="st1" d="M104.1,89.4c-34.8-7.1-43.3-20.6-21.8-43.1c31-32.4,96.7-32.4,127.7,0c21.5,22.4,13,36-21.8,43.1
		C160.9,95,131.3,95,104.1,89.4L104.1,89.4z"/>
	<path class="st1" d="M104.2,89.3c-34.7-7-43.2-20.6-21.8-42.9c30.9-32.3,96.5-32.3,127.4,0c21.4,22.4,13,35.9-21.8,42.9
		C160.9,94.8,131.3,94.8,104.2,89.3L104.2,89.3z"/>
	<path class="st1" d="M104.2,89.1c-34.7-7-43.1-20.5-21.7-42.8c30.9-32.2,96.3-32.2,127.2,0c21.4,22.3,12.9,35.8-21.7,42.8
		C160.9,94.6,131.3,94.6,104.2,89.1L104.2,89.1z"/>
	<path class="st1" d="M104.3,88.9c-34.6-7-43.1-20.4-21.7-42.6c30.8-32,96.2-32,127,0c21.4,22.2,12.9,35.6-21.7,42.6
		C160.8,94.4,131.4,94.4,104.3,88.9L104.3,88.9z"/>
	<path class="st1" d="M104.4,88.7c-34.6-7-43-20.3-21.7-42.5c30.8-31.9,96-31.9,126.8,0c21.3,22.1,12.9,35.5-21.7,42.5
		C160.8,94.2,131.4,94.2,104.4,88.7L104.4,88.7z"/>
	<path class="st1" d="M104.4,88.6c-34.5-6.9-42.9-20.3-21.6-42.3c30.7-31.8,95.9-31.8,126.6,0c21.3,22.1,12.9,35.4-21.6,42.3
		C160.8,94,131.4,94,104.4,88.6L104.4,88.6z"/>
	<path class="st1" d="M104.5,88.4c-34.4-6.9-42.8-20.2-21.6-42.2c30.7-31.7,95.7-31.7,126.4,0c21.3,22,12.9,35.3-21.6,42.2
		C160.8,93.8,131.4,93.8,104.5,88.4L104.5,88.4z"/>
	<path class="st1" d="M104.6,88.2c-34.4-6.9-42.8-20.1-21.6-42c30.6-31.6,95.5-31.6,126.2,0c21.2,21.9,12.8,35.1-21.6,42
		C160.7,93.6,131.5,93.6,104.6,88.2L104.6,88.2z"/>
	<path class="st2" d="M104.6,88C70.3,81.2,61.9,68,83.1,46.1c30.6-31.5,95.4-31.5,125.9,0c21.2,21.8,12.8,35-21.5,41.9
		C160.7,93.4,131.5,93.4,104.6,88L104.6,88z"/>
	<path class="st2" d="M104.7,87.9c-34.3-6.8-42.6-20-21.5-41.7c30.5-31.4,95.2-31.4,125.7,0c21.1,21.8,12.8,34.9-21.5,41.7
		C160.7,93.2,131.5,93.2,104.7,87.9L104.7,87.9z"/>
	<path class="st2" d="M104.8,87.7c-34.2-6.8-42.6-19.9-21.4-41.6c30.5-31.3,95-31.3,125.5,0c21.1,21.7,12.8,34.8-21.4,41.6
		C160.7,93,131.5,93,104.8,87.7L104.8,87.7z"/>
	<path class="st2" d="M104.9,87.5c-34.2-6.8-42.5-19.8-21.4-41.4c30.4-31.2,94.9-31.2,125.3,0c21.1,21.6,12.7,34.6-21.4,41.4
		C160.6,92.8,131.6,92.8,104.9,87.5L104.9,87.5z"/>
	<path class="st3" d="M104.9,87.3C70.8,80.6,62.5,67.6,83.6,46c30.4-31,94.7-31,125.1,0c21,21.5,12.7,34.5-21.4,41.3
		C160.6,92.6,131.6,92.6,104.9,87.3L104.9,87.3z"/>
	<path class="st4" d="M105,87.1C71,80.4,62.7,67.4,83.7,46c30.3-30.9,94.6-30.9,124.9,0c21,21.4,12.7,34.4-21.3,41.1
		C160.6,92.4,131.6,92.4,105,87.1L105,87.1z"/>
	<path class="st4" d="M105.1,87c-34-6.7-42.3-19.6-21.3-41c30.3-30.8,94.4-30.8,124.6,0c21,21.4,12.7,34.3-21.3,41
		C160.6,92.2,131.6,92.2,105.1,87L105.1,87z"/>
	<path class="st4" d="M105.1,86.8C71.2,80.1,63,67.2,83.9,46c30.2-30.7,94.2-30.7,124.4,0c20.9,21.3,12.7,34.1-21.3,40.8
		C160.5,92,131.7,92,105.1,86.8L105.1,86.8z"/>
	<path class="st4" d="M105.2,86.6C71.4,80,63.1,67.1,84,45.9c30.1-30.6,94.1-30.6,124.2,0c20.9,21.2,12.6,34-21.2,40.7
		C160.5,91.8,131.7,91.8,105.2,86.6L105.2,86.6z"/>
	<path class="st4" d="M105.3,86.4c-33.8-6.6-42-19.4-21.2-40.5c30.1-30.5,93.9-30.5,124,0C229,67,220.7,79.8,186.9,86.4
		C160.5,91.6,131.7,91.6,105.3,86.4L105.3,86.4z"/>
	<path class="st4" d="M105.4,86.3c-33.7-6.6-42-19.3-21.2-40.4c30-30.4,93.7-30.4,123.8,0c20.8,21.1,12.6,33.8-21.2,40.4
		C160.5,91.5,131.7,91.5,105.4,86.3L105.4,86.3z"/>
	<path class="st4" d="M105.4,86.1c-33.7-6.6-41.9-19.3-21.1-40.3c30-30.3,93.6-30.3,123.6,0c20.8,21,12.6,33.7-21.1,40.3
		C160.4,91.3,131.8,91.3,105.4,86.1L105.4,86.1z"/>
	<path class="st5" d="M105.5,85.9c-33.6-6.6-41.8-19.2-21.1-40.1c29.9-30.2,93.4-30.2,123.4,0c20.7,20.9,12.5,33.5-21.1,40.1
		C160.4,91.1,131.8,91.1,105.5,85.9L105.5,85.9z"/>
	<path class="st5" d="M105.6,85.7c-33.6-6.6-41.8-19.1-21-40c29.9-30,93.3-30,123.1,0c20.7,20.8,12.5,33.4-21,40
		C160.4,90.9,131.8,90.9,105.6,85.7L105.6,85.7z"/>
	<path class="st5" d="M105.6,85.6C72.1,79,64,66.5,84.6,45.8c29.8-29.9,93.1-29.9,122.9,0c20.7,20.7,12.5,33.3-21,39.8
		C160.4,90.7,131.8,90.7,105.6,85.6L105.6,85.6z"/>
	<path class="st6" d="M105.7,85.4c-33.5-6.5-41.6-19-21-39.7c29.8-29.8,92.9-29.8,122.7,0c20.6,20.7,12.5,33.2-21,39.7
		C160.3,90.5,131.9,90.5,105.7,85.4L105.7,85.4z"/>
	<path class="st6" d="M105.8,85.2c-33.4-6.5-41.5-18.9-20.9-39.5c29.7-29.7,92.8-29.7,122.5,0c20.6,20.6,12.5,33-20.9,39.5
		C160.3,90.3,131.9,90.3,105.8,85.2L105.8,85.2z"/>
	<path class="st6" d="M105.8,85C72.5,78.6,64.4,66.2,85,45.7c29.7-29.6,92.6-29.6,122.3,0c20.6,20.5,12.4,32.9-20.9,39.4
		C160.3,90.1,131.9,90.1,105.8,85L105.8,85z"/>
	<path class="st6" d="M105.9,84.9c-33.3-6.4-41.4-18.8-20.9-39.2c29.6-29.5,92.4-29.5,122.1,0c20.5,20.4,12.4,32.8-20.9,39.2
		C160.3,89.9,131.9,89.9,105.9,84.9L105.9,84.9z"/>
	<path class="st6" d="M106,84.7C72.8,78.3,64.7,66,85.2,45.6c29.6-29.4,92.3-29.4,121.9,0c20.5,20.4,12.4,32.7-20.8,39.1
		C160.2,89.7,132,89.7,106,84.7L106,84.7z"/>
	<path class="st6" d="M106.1,84.5c-33.2-6.4-41.2-18.6-20.8-38.9c29.5-29.3,92.1-29.3,121.6,0c20.5,20.3,12.4,32.5-20.8,38.9
		C160.2,89.5,132,89.5,106.1,84.5L106.1,84.5z"/>
	<path class="st6" d="M106.1,84.3C73,78,65,65.8,85.4,45.6c29.5-29.1,92-29.1,121.4,0c20.4,20.2,12.4,32.4-20.7,38.8
		C160.2,89.3,132,89.3,106.1,84.3L106.1,84.3z"/>
	<path class="st7" d="M106.2,84.2c-33-6.3-41.1-18.5-20.7-38.6c29.4-29,91.8-29,121.2,0C227.1,65.7,219,77.8,186,84.2
		C160.2,89.1,132,89.1,106.2,84.2L106.2,84.2z"/>
	<path class="st7" d="M106.3,84c-33-6.3-41-18.4-20.7-38.5c29.4-28.9,91.6-28.9,121,0c20.3,20.1,12.3,32.2-20.7,38.5
		C160.1,88.9,132.1,88.9,106.3,84L106.3,84z"/>
	<path class="st7" d="M106.3,83.8c-32.9-6.3-41-18.4-20.6-38.3c29.3-28.8,91.5-28.8,120.8,0c20.3,20,12.3,32-20.6,38.3
		C160.1,88.7,132.1,88.7,106.3,83.8L106.3,83.8z"/>
	<path class="st7" d="M106.4,83.6c-32.9-6.3-40.9-18.3-20.6-38.2c29.3-28.7,91.3-28.7,120.6,0c20.3,19.9,12.3,31.9-20.6,38.2
		C160.1,88.5,132.1,88.5,106.4,83.6L106.4,83.6z"/>
	<path class="st7" d="M106.5,83.5c-32.8-6.2-40.8-18.2-20.6-38c29.2-28.6,91.1-28.6,120.4,0c20.2,19.8,12.2,31.8-20.6,38
		C160.1,88.3,132.1,88.3,106.5,83.5L106.5,83.5z"/>
	<path class="st7" d="M106.6,83.3C73.8,77.1,65.8,65.1,86,45.4c29.2-28.5,91-28.5,120.1,0c20.2,19.7,12.2,31.7-20.5,37.9
		C160,88.1,132.2,88.1,106.6,83.3L106.6,83.3z"/>
	<path class="st7" d="M106.6,83.1C73.9,76.9,66,65,86.1,45.4C115.2,17,177,17,206.1,45.4c20.2,19.7,12.2,31.5-20.5,37.7
		C160,87.9,132.2,87.9,106.6,83.1L106.6,83.1z"/>
	<path class="st8" d="M106.7,82.9c-32.6-6.2-40.6-18-20.5-37.6c29.1-28.3,90.7-28.3,119.7,0c20.1,19.6,12.2,31.4-20.5,37.6
		C160,87.7,132.2,87.7,106.7,82.9L106.7,82.9z"/>
	<path class="st9" d="M106.8,82.8c-32.6-6.1-40.5-17.9-20.4-37.4c29-28.1,90.5-28.1,119.5,0c20.1,19.5,12.2,31.3-20.4,37.4
		C160,87.6,132.2,87.6,106.8,82.8L106.8,82.8z"/>
	<path class="st9" d="M106.8,82.6c-32.5-6.1-40.4-17.9-20.4-37.3c28.9-28,90.3-28,119.3,0c20.1,19.4,12.1,31.2-20.4,37.3
		C159.9,87.4,132.3,87.4,106.8,82.6L106.8,82.6z"/>
	<path class="st9" d="M106.9,82.4c-32.5-6.1-40.4-17.8-20.3-37.1c28.9-27.9,90.2-27.9,119.1,0c20,19.4,12.1,31.1-20.3,37.1
		C159.9,87.2,132.3,87.2,106.9,82.4L106.9,82.4z"/>
	<path class="st9" d="M107,82.2c-32.4-6.1-40.3-17.7-20.3-37c28.8-27.8,90-27.8,118.9,0c20,19.3,12.1,30.9-20.3,37
		C159.9,87,132.3,87,107,82.2L107,82.2z"/>
	<path class="st10" d="M107,82.1c-32.3-6-40.2-17.6-20.3-36.8c28.8-27.7,89.8-27.7,118.6,0c20,19.2,12.1,30.8-20.3,36.8
		C159.9,86.8,132.3,86.8,107,82.1L107,82.1z"/>
	<path class="st11" d="M107.1,81.9c-32.3-6-40.2-17.6-20.2-36.7c28.7-27.6,89.7-27.6,118.4,0c19.9,19.1,12,30.7-20.2,36.7
		C159.8,86.6,132.4,86.6,107.1,81.9L107.1,81.9z"/>
	<path class="st11" d="M107.2,81.7C75,75.7,67.1,64.2,87,45.2c28.7-27.5,89.5-27.5,118.2,0c19.9,19,12,30.6-20.2,36.5
		C159.8,86.4,132.4,86.4,107.2,81.7L107.2,81.7z"/>
	<path class="st12" d="M107.3,81.5c-32.2-6-40-17.4-20.2-36.4c28.6-27.4,89.4-27.4,118,0c19.8,19,12,30.4-20.2,36.4
		C159.8,86.2,132.4,86.2,107.3,81.5L107.3,81.5z"/>
	<path class="st12" d="M107.3,81.4C75.2,75.4,67.4,64,87.2,45.1c28.6-27.3,89.2-27.3,117.8,0c19.8,18.9,12,30.3-20.1,36.2
		C159.8,86,132.4,86,107.3,81.4L107.3,81.4z"/>
	<path class="st12" d="M107.4,81.2c-32-5.9-39.9-17.3-20.1-36.1c28.5-27.1,89-27.1,117.6,0c19.8,18.8,12,30.2-20.1,36.1
		C159.7,85.8,132.5,85.8,107.4,81.2L107.4,81.2z"/>
	<path class="st13" d="M107.5,81c-32-5.9-39.8-17.2-20.1-36c28.5-27,88.9-27,117.4,0c19.7,18.7,11.9,30.1-20.1,36
		C159.7,85.6,132.5,85.6,107.5,81L107.5,81z"/>
	<path class="st14" d="M107.5,80.8C75.6,75,67.8,63.7,87.5,45c28.4-26.9,88.7-26.9,117.1,0c19.7,18.7,11.9,29.9-20,35.8
		C159.7,85.4,132.5,85.4,107.5,80.8L107.5,80.8z"/>
	<path class="st14" d="M107.6,80.6C75.7,74.8,68,63.6,87.6,45c28.4-26.8,88.5-26.8,116.9,0c19.7,18.6,11.9,29.8-20,35.7
		C159.7,85.2,132.5,85.2,107.6,80.6L107.6,80.6z"/>
	<path class="st14" d="M107.7,80.5c-31.8-5.8-39.6-17-19.9-35.5c28.3-26.7,88.4-26.7,116.7,0c19.6,18.5,11.9,29.7-19.9,35.5
		C159.6,85,132.6,85,107.7,80.5L107.7,80.5z"/>
	<path class="st15" d="M107.8,80.3C76,74.5,68.3,63.4,87.9,44.9c28.3-26.6,88.2-26.6,116.5,0c19.6,18.4,11.8,29.6-19.9,35.4
		C159.6,84.8,132.6,84.8,107.8,80.3L107.8,80.3z"/>
	<path class="st15" d="M107.8,80.1C76.1,74.3,68.4,63.3,88,44.9c28.2-26.5,88.1-26.5,116.3,0c19.6,18.4,11.8,29.4-19.9,35.2
		C159.6,84.6,132.6,84.6,107.8,80.1L107.8,80.1z"/>
	<path class="st16" d="M107.9,79.9c-31.6-5.7-39.4-16.8-19.8-35.1c28.2-26.4,87.9-26.4,116.1,0c19.5,18.3,11.8,29.3-19.8,35.1
		C159.6,84.4,132.6,84.4,107.9,79.9L107.9,79.9z"/>
	<path class="st16" d="M108,79.8C76.4,74,68.7,63,88.2,44.9c28.1-26.3,87.7-26.3,115.8,0C223.5,63,215.8,74,184.2,79.8
		C159.5,84.2,132.7,84.2,108,79.8L108,79.8z"/>
	<path class="st17" d="M108,79.6c-31.5-5.7-39.2-16.6-19.8-34.8c28.1-26.1,87.6-26.1,115.6,0c19.4,18.1,11.8,29.1-19.8,34.8
		C159.5,84,132.7,84,108,79.6L108,79.6z"/>
	<path class="st17" d="M108.1,79.4C76.6,73.7,69,62.8,88.4,44.8c28-26,87.4-26,115.4,0c19.4,18,11.7,28.9-19.7,34.6
		C159.5,83.9,132.7,83.9,108.1,79.4L108.1,79.4z"/>
	<path class="st18" d="M108.2,79.2c-31.4-5.7-39.1-16.5-19.7-34.5c28-25.9,87.2-25.9,115.2,0c19.4,18,11.7,28.8-19.7,34.5
		C159.5,83.7,132.7,83.7,108.2,79.2L108.2,79.2z"/>
	<path class="st18" d="M108.3,79.1c-31.3-5.6-39-16.4-19.6-34.3c27.9-25.8,87.1-25.8,115,0c19.3,17.9,11.7,28.7-19.6,34.3
		C159.4,83.5,132.8,83.5,108.3,79.1L108.3,79.1z"/>
	<path class="st18" d="M108.3,78.9C77,73.3,69.4,62.5,88.7,44.7c27.9-25.7,86.9-25.7,114.8,0c19.3,17.8,11.7,28.6-19.6,34.2
		C159.4,83.3,132.8,83.3,108.3,78.9L108.3,78.9z"/>
	<path class="st19" d="M108.4,78.7c-31.2-5.6-38.8-16.3-19.6-34c27.8-25.6,86.8-25.6,114.6,0c19.3,17.7,11.7,28.4-19.6,34
		C159.4,83.1,132.8,83.1,108.4,78.7L108.4,78.7z"/>
	<path class="st19" d="M108.5,78.5C77.3,73,69.7,62.3,88.9,44.7c27.8-25.5,86.6-25.5,114.3,0c19.2,17.7,11.6,28.3-19.5,33.9
		C159.4,82.9,132.8,82.9,108.5,78.5L108.5,78.5z"/>
	<path class="st20" d="M108.5,78.4C77.4,72.8,69.8,62.2,89,44.6c27.7-25.4,86.4-25.4,114.1,0c19.2,17.6,11.6,28.2-19.5,33.7
		C159.3,82.7,132.9,82.7,108.5,78.4L108.5,78.4z"/>
	<path class="st21" d="M108.6,78.2C77.6,72.7,70,62.1,89.1,44.6c27.6-25.2,86.3-25.2,113.9,0c19.2,17.5,11.6,28.1-19.5,33.6
		C159.3,82.5,132.9,82.5,108.6,78.2L108.6,78.2z"/>
	<path class="st22" d="M108.7,78c-31-5.5-38.6-16-19.4-33.4c27.6-25.1,86.1-25.1,113.7,0c19.1,17.4,11.6,28-19.4,33.4
		C159.3,82.3,132.9,82.3,108.7,78L108.7,78z"/>
	<path class="st22" d="M108.7,77.8c-30.9-5.5-38.5-15.9-19.4-33.3c27.5-25,85.9-25,113.5,0c19.1,17.3,11.5,27.8-19.4,33.3
		C159.3,82.1,132.9,82.1,108.7,77.8L108.7,77.8z"/>
	<path class="st22" d="M108.8,77.7c-30.9-5.4-38.4-15.9-19.4-33.1c27.5-24.9,85.8-24.9,113.3,0c19,17.3,11.5,27.7-19.4,33.1
		C159.2,81.9,133,81.9,108.8,77.7L108.8,77.7z"/>
	<path class="st23" d="M108.9,77.5c-30.8-5.4-38.3-15.8-19.3-33c27.4-24.8,85.6-24.8,113.1,0c19,17.2,11.5,27.6-19.3,33
		C159.2,81.7,133,81.7,108.9,77.5L108.9,77.5z"/>
	<path class="st24" d="M109,77.3c-30.8-5.4-38.3-15.7-19.3-32.8c27.4-24.7,85.5-24.7,112.8,0c19,17.1,11.5,27.5-19.3,32.8
		C159.2,81.5,133,81.5,109,77.3L109,77.3z"/>
	<path class="st24" d="M109,77.1c-30.7-5.4-38.2-15.7-19.2-32.7c27.3-24.6,85.3-24.6,112.6,0c18.9,17,11.5,27.3-19.2,32.7
		C159.2,81.3,133,81.3,109,77.1L109,77.1z"/>
	<path class="st25" d="M109.1,77C78.5,71.6,71,61.4,89.9,44.4c27.3-24.5,85.1-24.5,112.4,0c18.9,17,11.4,27.2-19.2,32.5
		C159.1,81.1,133.1,81.1,109.1,77L109.1,77z"/>
	<path class="st26" d="M109.2,76.8c-30.6-5.3-38-15.5-19.2-32.4c27.2-24.4,85-24.4,112.2,0c18.9,16.9,11.4,27.1-19.2,32.4
		C159.1,80.9,133.1,80.9,109.2,76.8L109.2,76.8z"/>
	<path class="st27" d="M109.2,76.6c-30.5-5.3-38-15.4-19.1-32.2c27.2-24.2,84.8-24.2,112,0c18.8,16.8,11.4,27-19.1,32.2
		C159.1,80.7,133.1,80.7,109.2,76.6L109.2,76.6z"/>
	<path class="st27" d="M109.3,76.4c-30.5-5.3-37.9-15.4-19.1-32.1c27.1-24.1,84.6-24.1,111.8,0c18.8,16.7,11.4,26.8-19.1,32.1
		C159.1,80.5,133.1,80.5,109.3,76.4L109.3,76.4z"/>
	<path class="st28" d="M109.4,76.3C79,71,71.6,61,90.3,44.3c27.1-24,84.5-24,111.6,0C220.6,61,213.2,71,182.8,76.3
		C159,80.3,133.2,80.3,109.4,76.3L109.4,76.3z"/>
	<path class="st29" d="M109.5,76.1c-30.3-5.2-37.8-15.2-19-31.8c27-23.9,84.3-23.9,111.3,0c18.7,16.6,11.3,26.6-19,31.8
		C159,80.2,133.2,80.2,109.5,76.1L109.5,76.1z"/>
	<path class="st29" d="M109.5,75.9c-30.3-5.2-37.7-15.2-19-31.7c27-23.8,84.2-23.8,111.1,0c18.7,16.5,11.3,26.5-19,31.7
		C159,80,133.2,80,109.5,75.9L109.5,75.9z"/>
	<path class="st30" d="M109.6,75.7c-30.2-5.2-37.6-15.1-19-31.5c26.9-23.7,84-23.7,110.9,0c18.7,16.4,11.3,26.3-19,31.5
		C159,79.8,133.2,79.8,109.6,75.7L109.6,75.7z"/>
	<path class="st31" d="M109.7,75.6c-30.2-5.1-37.5-15-18.9-31.4c26.9-23.6,83.8-23.6,110.7,0c18.6,16.3,11.3,26.2-18.9,31.4
		C158.9,79.6,133.3,79.6,109.7,75.6L109.7,75.6z"/>
	<path class="st32" d="M109.7,75.4c-30.1-5.1-37.5-14.9-18.9-31.2c26.8-23.5,83.7-23.5,110.5,0c18.6,16.3,11.2,26.1-18.9,31.2
		C158.9,79.4,133.3,79.4,109.7,75.4L109.7,75.4z"/>
	<path class="st32" d="M109.8,75.2C79.7,70.1,72.4,60.3,91,44.1c26.8-23.4,83.5-23.4,110.3,0c18.5,16.2,11.2,26-18.8,31.1
		C158.9,79.2,133.3,79.2,109.8,75.2L109.8,75.2z"/>
	<path class="st33" d="M109.9,75c-30-5.1-37.3-14.8-18.8-30.9c26.7-23.2,83.3-23.2,110.1,0C219.6,60.2,212.3,70,182.3,75
		C158.9,79,133.3,79,109.9,75L109.9,75z"/>
	<path class="st33" d="M109.9,74.8c-29.9-5-37.2-14.7-18.8-30.8C117.8,21,174.4,21,201,44.1c18.5,16,11.2,25.7-18.8,30.8
		C158.8,78.8,133.4,78.8,109.9,74.8L109.9,74.8z"/>
	<path class="st34" d="M110,74.7c-29.9-5-37.2-14.7-18.7-30.6c26.6-23,83-23,109.6,0c18.4,16,11.1,25.6-18.7,30.6
		C158.8,78.6,133.4,78.6,110,74.7L110,74.7z"/>
	<path class="st34" d="M110.1,74.5C80.3,69.5,73,59.9,91.4,44c26.6-22.9,82.9-22.9,109.4,0c18.4,15.9,11.1,25.5-18.7,30.5
		C158.8,78.4,133.4,78.4,110.1,74.5L110.1,74.5z"/>
	<path class="st35" d="M110.2,74.3c-29.8-5-37-14.5-18.7-30.3c26.5-22.8,82.7-22.8,109.2,0c18.4,15.8,11.1,25.3-18.7,30.3
		C158.8,78.2,133.4,78.2,110.2,74.3L110.2,74.3z"/>
	<path class="st36" d="M110.2,74.1C80.5,69.2,73.3,59.7,91.6,44c26.4-22.7,82.5-22.7,109,0c18.3,15.7,11.1,25.2-18.6,30.2
		C158.7,78,133.5,78,110.2,74.1L110.2,74.1z"/>
	<path class="st37" d="M110.3,74c-29.6-4.9-36.9-14.4-18.6-30c26.4-22.6,82.4-22.6,108.8,0c18.3,15.6,11.1,25.1-18.6,30
		C158.7,77.8,133.5,77.8,110.3,74L110.3,74z"/>
	<path class="st37" d="M110.4,73.8c-29.6-4.9-36.8-14.3-18.5-29.9c26.3-22.5,82.2-22.5,108.6,0c18.3,15.6,11,25-18.5,29.9
		C158.7,77.6,133.5,77.6,110.4,73.8L110.4,73.8z"/>
	<path class="st38" d="M110.4,73.6c-29.5-4.9-36.7-14.2-18.5-29.7c26.3-22.3,82-22.3,108.3,0c18.2,15.5,11,24.9-18.5,29.7
		C158.7,77.4,133.5,77.4,110.4,73.6L110.4,73.6z"/>
	<path class="st39" d="M110.5,73.4C81,68.6,73.9,59.3,92,43.9c26.2-22.2,81.9-22.2,108.1,0c18.2,15.4,11,24.7-18.5,29.6
		C158.6,77.2,133.6,77.2,110.5,73.4L110.5,73.4z"/>
	<path class="st39" d="M110.6,73.3C81.2,68.4,74,59.2,92.1,43.8c26.2-22.1,81.7-22.1,107.9,0c18.1,15.3,11,24.6-18.4,29.4
		C158.6,77,133.6,77,110.6,73.3L110.6,73.3z"/>
	<path class="st40" d="M110.7,73.1c-29.4-4.8-36.5-14-18.4-29.3c26.1-22,81.6-22,107.7,0c18.1,15.3,11,24.5-18.4,29.3
		C158.6,76.8,133.6,76.8,110.7,73.1L110.7,73.1z"/>
	<path class="st40" d="M110.7,72.9C81.4,68.1,74.3,59,92.4,43.8c26.1-21.9,81.4-21.9,107.5,0c18.1,15.2,10.9,24.4-18.4,29.1
		C158.6,76.6,133.6,76.6,110.7,72.9L110.7,72.9z"/>
	<path class="st41" d="M110.8,72.7c-29.2-4.8-36.4-13.9-18.3-29c26-21.8,81.2-21.8,107.3,0c18,15.1,10.9,24.2-18.3,29
		C158.5,76.5,133.7,76.5,110.8,72.7L110.8,72.7z"/>
	<path class="st41" d="M110.9,72.6c-29.2-4.7-36.3-13.8-18.3-28.8c26-21.7,81.1-21.7,107,0c18,15,10.9,24.1-18.3,28.8
		C158.5,76.3,133.7,76.3,110.9,72.6L110.9,72.6z"/>
	<path class="st42" d="M110.9,72.4c-29.1-4.7-36.2-13.7-18.3-28.7c25.9-21.6,80.9-21.6,106.8,0c18,15,10.9,24-18.3,28.7
		C158.5,76.1,133.7,76.1,110.9,72.4L110.9,72.4z"/>
	<path class="st43" d="M111,72.2c-29.1-4.7-36.1-13.7-18.2-28.5c25.9-21.5,80.7-21.5,106.6,0c17.9,14.9,10.8,23.9-18.2,28.5
		C158.5,75.9,133.7,75.9,111,72.2L111,72.2z"/>
	<path class="st43" d="M111.1,72c-29-4.7-36.1-13.6-18.2-28.4c25.8-21.3,80.6-21.3,106.4,0c17.9,14.8,10.8,23.7-18.2,28.4
		C158.4,75.7,133.8,75.7,111.1,72L111.1,72z"/>
	<path class="st43" d="M111.1,71.9c-28.9-4.6-36-13.5-18.1-28.2c25.8-21.2,80.4-21.2,106.2,0C217.1,58.3,210,67.2,181,71.9
		C158.4,75.5,133.8,75.5,111.1,71.9L111.1,71.9z"/>
	<path class="st44" d="M111.2,71.7c-28.9-4.6-35.9-13.5-18.1-28.1c25.7-21.1,80.3-21.1,106,0c17.8,14.6,10.8,23.5-18.1,28.1
		C158.4,75.3,133.8,75.3,111.2,71.7L111.2,71.7z"/>
	<path class="st45" d="M111.3,71.5c-28.8-4.6-35.9-13.4-18.1-27.9c25.7-21,80.1-21,105.8,0c17.8,14.6,10.8,23.4-18.1,27.9
		C158.4,75.1,133.8,75.1,111.3,71.5L111.3,71.5z"/>
	<path class="st46" d="M111.4,71.3c-28.8-4.6-35.8-13.3-18-27.8c25.6-20.9,79.9-20.9,105.5,0c17.8,14.5,10.7,23.2-18,27.8
		C158.3,74.9,133.9,74.9,111.4,71.3L111.4,71.3z"/>
	<path class="st46" d="M111.4,71.2c-28.7-4.5-35.7-13.2-18-27.6c25.6-20.8,79.8-20.8,105.3,0c17.7,14.4,10.7,23.1-18,27.6
		C158.3,74.7,133.9,74.7,111.4,71.2L111.4,71.2z"/>
	<path class="st47" d="M111.5,71c-28.7-4.5-35.6-13.2-18-27.5c25.5-20.7,79.6-20.7,105.1,0c17.7,14.3,10.7,23-18,27.5
		C158.3,74.5,133.9,74.5,111.5,71L111.5,71z"/>
	<path class="st48" d="M111.6,70.8C83,66.3,76,57.7,93.6,43.5c25.5-20.6,79.4-20.6,104.9,0c17.6,14.3,10.7,22.9-17.9,27.4
		C158.3,74.3,133.9,74.3,111.6,70.8L111.6,70.8z"/>
	<path class="st48" d="M111.6,70.6c-28.5-4.5-35.5-13-17.9-27.2C119.2,23,173,23,198.4,43.4c17.6,14.2,10.6,22.7-17.9,27.2
		C158.2,74.1,134,74.1,111.6,70.6L111.6,70.6z"/>
	<path class="st49" d="M111.7,70.5c-28.5-4.4-35.4-13-17.9-27.1c25.4-20.3,79.1-20.3,104.5,0C215.9,57.5,209,66,180.5,70.5
		C158.2,73.9,134,73.9,111.7,70.5L111.7,70.5z"/>
	<path class="st50" d="M111.8,70.3C83.4,65.9,76.4,57.4,94,43.4c25.3-20.2,79-20.2,104.3,0c17.5,14,10.6,22.5-17.8,26.9
		C158.2,73.7,134,73.7,111.8,70.3L111.8,70.3z"/>
	<path class="st51" d="M111.9,70.1c-28.4-4.4-35.3-12.8-17.8-26.8c25.3-20.1,78.8-20.1,104,0c17.5,13.9,10.6,22.4-17.8,26.8
		C158.2,73.5,134,73.5,111.9,70.1L111.9,70.1z"/>
	<path class="st51" d="M111.9,69.9c-28.3-4.4-35.2-12.7-17.7-26.6c25.2-20,78.6-20,103.8,0c17.5,13.9,10.6,22.2-17.7,26.6
		C158.1,73.3,134.1,73.3,111.9,69.9L111.9,69.9z"/>
	<path class="st52" d="M112,69.8c-28.2-4.3-35.1-12.7-17.7-26.5c25.1-19.9,78.5-19.9,103.6,0c17.4,13.8,10.5,22.1-17.7,26.5
		C158.1,73.1,134.1,73.1,112,69.8L112,69.8z"/>
	<path class="st53" d="M112.1,69.6C83.9,65.3,77,57,94.4,43.3c25.1-19.8,78.3-19.8,103.4,0c17.4,13.7,10.5,22-17.7,26.3
		C158.1,72.9,134.1,72.9,112.1,69.6L112.1,69.6z"/>
	<path class="st54" d="M112.1,69.4c-28.1-4.3-35-12.5-17.6-26.2c25-19.7,78.1-19.7,103.2,0c17.4,13.6,10.5,21.9-17.6,26.2
		C158.1,72.8,134.1,72.8,112.1,69.4L112.1,69.4z"/>
	<path class="st54" d="M112.2,69.2c-28.1-4.3-34.9-12.5-17.6-26c25-19.6,78-19.6,103,0c17.3,13.6,10.5,21.8-17.6,26
		C158,72.6,134.2,72.6,112.2,69.2L112.2,69.2z"/>
	<path class="st55" d="M112.3,69c-28-4.2-34.8-12.4-17.6-25.9c24.9-19.5,77.8-19.5,102.8,0c17.3,13.5,10.5,21.6-17.6,25.9
		C158,72.4,134.2,72.4,112.3,69L112.3,69z"/>
	<path class="st56" d="M112.3,68.9c-28-4.2-34.8-12.3-17.5-25.7c24.9-19.3,77.7-19.3,102.5,0c17.2,13.4,10.4,21.5-17.5,25.7
		C158,72.2,134.2,72.2,112.3,68.9L112.3,68.9z"/>
	<path class="st57" d="M112.4,68.7c-27.9-4.2-34.7-12.2-17.5-25.6c24.8-19.2,77.5-19.2,102.3,0c17.2,13.3,10.4,21.4-17.5,25.6
		C158,72,134.2,72,112.4,68.7L112.4,68.7z"/>
	<path class="st57" d="M112.5,68.5C84.7,64.4,77.9,56.3,95,43.1c24.8-19.1,77.3-19.1,102.1,0c17.2,13.3,10.4,21.3-17.4,25.4
		C157.9,71.8,134.3,71.8,112.5,68.5L112.5,68.5z"/>
	<path class="st58" d="M112.6,68.3C84.8,64.2,78,56.2,95.1,43.1c24.7-19,77.2-19,101.9,0c17.1,13.2,10.4,21.1-17.4,25.3
		C157.9,71.6,134.3,71.6,112.6,68.3L112.6,68.3z"/>
	<path class="st59" d="M112.6,68.2C84.9,64,78.2,56.1,95.3,43c24.7-18.9,77-18.9,101.7,0c17.1,13.1,10.3,21-17.4,25.1
		C157.9,71.4,134.3,71.4,112.6,68.2L112.6,68.2z"/>
	<path class="st59" d="M112.7,68C85,63.9,78.3,56,95.4,43c24.6-18.8,76.8-18.8,101.5,0c17.1,13,10.3,20.9-17.3,25
		C157.9,71.2,134.3,71.2,112.7,68L112.7,68z"/>
	<path class="st60" d="M112.8,67.8C85.2,63.7,78.4,55.9,95.5,43c24.6-18.7,76.7-18.7,101.3,0c17,12.9,10.3,20.8-17.3,24.8
		C157.8,71,134.4,71,112.8,67.8L112.8,67.8z"/>
	<path class="st61" d="M112.8,67.6c-27.5-4-34.3-11.8-17.3-24.7c24.5-18.6,76.5-18.6,101,0c17,12.9,10.3,20.6-17.3,24.7
		C157.8,70.8,134.4,70.8,112.8,67.6L112.8,67.6z"/>
	<path class="st62" d="M112.9,67.5c-27.5-4-34.2-11.7-17.2-24.5c24.5-18.4,76.4-18.4,100.8,0c17,12.8,10.3,20.5-17.2,24.5
		C157.8,70.6,134.4,70.6,112.9,67.5L112.9,67.5z"/>
	<path class="st62" d="M113,67.3c-27.4-4-34.1-11.7-17.2-24.4c24.4-18.3,76.2-18.3,100.6,0c16.9,12.7,10.2,20.4-17.2,24.4
		C157.8,70.4,134.4,70.4,113,67.3L113,67.3z"/>
	<path class="st63" d="M113.1,67.1c-27.4-4-34-11.6-17.2-24.2c24.4-18.2,76-18.2,100.4,0c16.9,12.6,10.2,20.3-17.2,24.2
		C157.7,70.2,134.5,70.2,113.1,67.1L113.1,67.1z"/>
	<path class="st63" d="M113.1,66.9C85.8,63,79.2,55.4,96,42.8c24.3-18.1,75.9-18.1,100.2,0C213,55.4,206.4,63,179.1,66.9
		C157.7,70,134.5,70,113.1,66.9L113.1,66.9z"/>
	<path class="st64" d="M113.2,66.8c-27.2-3.9-33.9-11.5-17.1-23.9c24.3-18,75.7-18,100,0c16.8,12.5,10.2,20-17.1,23.9
		C157.7,69.8,134.5,69.8,113.2,66.8L113.2,66.8z"/>
	<path class="st64" d="M113.3,66.6c-27.2-3.9-33.8-11.4-17-23.8c24.2-17.9,75.5-17.9,99.8,0c16.8,12.4,10.1,19.9-17,23.8
		C157.7,69.6,134.5,69.6,113.3,66.6L113.3,66.6z"/>
	<path class="st65" d="M113.3,66.4c-27.1-3.9-33.7-11.3-17-23.6c24.2-17.8,75.4-17.8,99.5,0c16.7,12.3,10.1,19.8-17,23.6
		C157.6,69.4,134.5,69.4,113.3,66.4L113.3,66.4z"/>
	<path class="st65" d="M113.4,66.2c-27.1-3.9-33.7-11.3-17-23.5c24.1-17.7,75.2-17.7,99.3,0c16.7,12.2,10.1,19.6-17,23.5
		C157.6,69.2,134.6,69.2,113.4,66.2L113.4,66.2z"/>
	<path class="st66" d="M113.5,66.1c-27-3.8-33.6-11.2-16.9-23.3c24.1-17.6,75.1-17.6,99.1,0c16.7,12.2,10.1,19.5-16.9,23.3
		C157.6,69.1,134.6,69.1,113.5,66.1L113.5,66.1z"/>
	<path class="st66" d="M113.5,65.9c-27-3.8-33.5-11.1-16.9-23.2c24-17.4,74.9-17.4,98.9,0c16.6,12.1,10.1,19.4-16.9,23.2
		C157.6,68.9,134.6,68.9,113.5,65.9L113.5,65.9z"/>
	<path class="st67" d="M113.6,65.7c-26.9-3.8-33.5-11-16.9-23.1c23.9-17.3,74.7-17.3,98.7,0c16.6,12,10,19.3-16.9,23.1
		C157.5,68.7,134.6,68.7,113.6,65.7L113.6,65.7z"/>
	<path class="st68" d="M113.7,65.5c-26.8-3.8-33.4-11-16.8-22.9c23.9-17.2,74.6-17.2,98.5,0c16.6,11.9,10,19.1-16.8,22.9
		C157.5,68.5,134.7,68.5,113.7,65.5L113.7,65.5z"/>
	<path class="st68" d="M113.8,65.4C87,61.6,80.4,54.5,97,42.6c23.8-17.1,74.4-17.1,98.2,0c16.5,11.9,10,19-16.8,22.8
		C157.5,68.3,134.7,68.3,113.8,65.4L113.8,65.4z"/>
	<path class="st69" d="M113.8,65.2c-26.7-3.7-33.2-10.8-16.8-22.6c23.8-17,74.2-17,98,0c16.5,11.8,10,18.9-16.8,22.6
		C157.5,68.1,134.7,68.1,113.8,65.2L113.8,65.2z"/>
	<path class="st70" d="M113.9,65c-26.7-3.7-33.2-10.8-16.7-22.5c23.7-16.9,74.1-16.9,97.8,0c16.5,11.7,9.9,18.8-16.7,22.5
		C157.4,67.9,134.7,67.9,113.9,65L113.9,65z"/>
	<path class="st71" d="M114,64.8c-26.6-3.7-33.1-10.7-16.7-22.3c23.7-16.8,73.9-16.8,97.6,0c16.4,11.6,9.9,18.7-16.7,22.3
		C157.4,67.7,134.8,67.7,114,64.8L114,64.8z"/>
	<path class="st71" d="M114,64.7C87.5,61,81,54,97.4,42.5c23.6-16.7,73.8-16.7,97.4,0c16.4,11.6,9.9,18.5-16.6,22.2
		C157.4,67.5,134.8,67.5,114,64.7L114,64.7z"/>
	<path class="st72" d="M114.1,64.5c-26.5-3.6-32.9-10.5-16.6-22c23.6-16.6,73.6-16.6,97.2,0c16.3,11.5,9.9,18.4-16.6,22
		C157.4,67.3,134.8,67.3,114.1,64.5L114.1,64.5z"/>
	<path class="st73" d="M114.2,64.3c-26.4-3.6-32.9-10.5-16.6-21.9c23.5-16.4,73.4-16.4,97,0c16.3,11.4,9.9,18.3-16.6,21.9
		C157.3,67.1,134.8,67.1,114.2,64.3L114.2,64.3z"/>
	<path class="st74" d="M114.3,64.1c-26.4-3.6-32.8-10.4-16.5-21.7c23.5-16.3,73.3-16.3,96.7,0c16.3,11.3,9.8,18.2-16.5,21.7
		C157.3,66.9,134.9,66.9,114.3,64.1L114.3,64.1z"/>
	<path class="st74" d="M114.3,64C88,60.4,81.6,53.6,97.8,42.4c23.4-16.2,73.1-16.2,96.5,0c16.2,11.2,9.8,18-16.5,21.6
		C157.3,66.7,134.9,66.7,114.3,64L114.3,64z"/>
	<path class="st74" d="M114.4,63.8c-26.3-3.5-32.7-10.3-16.5-21.4c23.4-16.1,72.9-16.1,96.3,0c16.2,11.2,9.8,17.9-16.5,21.4
		C157.3,66.5,134.9,66.5,114.4,63.8L114.4,63.8z"/>
	<path class="st75" d="M114.5,63.6C88.3,60.1,81.9,53.4,98,42.3c23.3-16,72.8-16,96.1,0c16.2,11.1,9.8,17.8-16.4,21.3
		C157.2,66.3,134.9,66.3,114.5,63.6L114.5,63.6z"/>
	<path class="st76" d="M114.5,63.4C88.4,60,82,53.3,98.2,42.3c23.3-15.9,72.6-15.9,95.9,0c16.1,11,9.8,17.7-16.4,21.1
		C157.2,66.1,135,66.1,114.5,63.4L114.5,63.4z"/>
	<path class="st76" d="M114.6,63.2c-26.1-3.4-32.4-10-16.3-21c23.2-15.8,72.5-15.8,95.7,0c16.1,10.9,9.7,17.5-16.3,21
		C157.2,65.9,135,65.9,114.6,63.2L114.6,63.2z"/>
	<path class="st76" d="M114.7,63.1c-26-3.4-32.4-10-16.3-20.8c23.2-15.7,72.3-15.7,95.5,0c16.1,10.9,9.7,17.4-16.3,20.8
		C157.2,65.7,135,65.7,114.7,63.1L114.7,63.1z"/>
	<path class="st77" d="M114.7,62.9c-26-3.4-32.3-9.9-16.3-20.7c23.1-15.5,72.1-15.5,95.2,0c16,10.8,9.7,17.3-16.3,20.7
		C157.1,65.5,135,65.5,114.7,62.9L114.7,62.9z"/>
	<path class="st77" d="M114.8,62.7c-25.9-3.4-32.2-9.8-16.2-20.5c23.1-15.4,72-15.4,95,0c16,10.7,9.7,17.2-16.2,20.5
		C157.1,65.4,135.1,65.4,114.8,62.7L114.8,62.7z"/>
	<path class="st78" d="M114.9,62.5C89,59.2,82.7,52.8,98.7,42.2c23-15.3,71.8-15.3,94.8,0c15.9,10.6,9.6,17-16.2,20.4
		C157.1,65.2,135.1,65.2,114.9,62.5L114.9,62.5z"/>
	<path class="st79" d="M115,62.4c-25.8-3.3-32.1-9.7-16.2-20.2c23-15.2,71.6-15.2,94.6,0c15.9,10.5,9.6,16.9-16.2,20.2
		C157.1,65,135.1,65,115,62.4L115,62.4z"/>
	<path class="st80" d="M115,62.2c-25.7-3.3-32-9.6-16.1-20.1c22.9-15.1,71.5-15.1,94.4,0c15.9,10.5,9.6,16.8-16.1,20.1
		C157,64.8,135.1,64.8,115,62.2L115,62.2z"/>
	<path class="st80" d="M115.1,62C89.4,58.7,83.2,52.5,99,42.1c22.9-15,71.3-15,94.2,0c15.8,10.4,9.6,16.7-16.1,19.9
		C157,64.6,135.2,64.6,115.1,62L115.1,62z"/>
	<path class="st81" d="M115.2,61.8c-25.6-3.2-31.9-9.5-16.1-19.8c22.8-14.9,71.2-14.9,94,0c15.8,10.3,9.6,16.5-16.1,19.8
		C157,64.4,135.2,64.4,115.2,61.8L115.2,61.8z"/>
	<path class="st81" d="M115.2,61.7c-25.6-3.2-31.8-9.4-16-19.6c22.8-14.8,71-14.8,93.7,0c15.8,10.2,9.5,16.4-16,19.6
		C157,64.2,135.2,64.2,115.2,61.7L115.2,61.7z"/>
	<path class="st82" d="M115.3,61.5c-25.5-3.2-31.7-9.3-16-19.5c22.7-14.7,70.8-14.7,93.5,0c15.7,10.2,9.5,16.3-16,19.5
		C156.9,64,135.2,64,115.3,61.5L115.3,61.5z"/>
	<path class="st82" d="M115.4,61.3C89.9,58.1,83.7,52.1,99.4,42c22.6-14.5,70.7-14.5,93.3,0c15.7,10.1,9.5,16.2-15.9,19.3
		C156.9,63.8,135.3,63.8,115.4,61.3L115.4,61.3z"/>
	<path class="st82" d="M115.5,61.1C90.1,58,83.9,51.9,99.5,41.9c22.6-14.4,70.5-14.4,93.1,0c15.7,10,9.5,16.1-15.9,19.2
		C156.9,63.6,135.3,63.6,115.5,61.1L115.5,61.1z"/>
	<path class="st83" d="M115.5,61c-25.3-3.1-31.5-9.1-15.9-19c22.5-14.3,70.3-14.3,92.9,0c15.6,9.9,9.4,15.9-15.9,19
		C156.9,63.4,135.3,63.4,115.5,61L115.5,61z"/>
	<path class="st84" d="M115.6,60.8c-25.3-3.1-31.4-9.1-15.8-18.9c22.5-14.2,70.2-14.2,92.7,0c15.6,9.9,9.4,15.8-15.8,18.9
		C156.8,63.2,135.3,63.2,115.6,60.8L115.6,60.8z"/>
	<path class="st84" d="M115.7,60.6c-25.2-3.1-31.3-9-15.8-18.8c22.4-14.1,70-14.1,92.5,0c15.5,9.8,9.4,15.7-15.8,18.8
		C156.8,63,135.4,63,115.7,60.6L115.7,60.6z"/>
	<path class="st85" d="M115.7,60.4c-25.1-3-31.3-8.9-15.8-18.6c22.4-14,69.9-14,92.2,0c15.5,9.7,9.4,15.6-15.8,18.6
		C156.8,62.8,135.4,62.8,115.7,60.4L115.7,60.4z"/>
	<path class="st87" d="M115.8,60.3c-25.1-3-31.2-8.8-15.7-18.5c22.3-13.9,69.7-13.9,92,0c15.5,9.6,9.4,15.4-15.7,18.5
		C156.8,62.6,135.4,62.6,115.8,60.3L115.8,60.3z"/>
	<path class="st87" d="M115.9,60.1c-25-3-31.1-8.8-15.7-18.3c22.3-13.8,69.5-13.8,91.8,0c15.4,9.5,9.3,15.3-15.7,18.3
		C156.7,62.4,135.4,62.4,115.9,60.1L115.9,60.1z"/>
	<path class="st87" d="M116,59.9c-25-3-31.1-8.7-15.7-18.2c22.2-13.7,69.4-13.7,91.6,0c15.4,9.5,9.3,15.2-15.7,18.2
		C156.7,62.2,135.5,62.2,116,59.9L116,59.9z"/>
	<path class="st88" d="M116,59.7c-24.9-3-31-8.6-15.6-18c22.2-13.5,69.2-13.5,91.4,0c15.4,9.4,9.3,15.1-15.6,18
		C156.7,62,135.5,62,116,59.7L116,59.7z"/>
	<path class="st89" d="M116.1,59.6c-24.9-2.9-30.9-8.6-15.6-17.9c22.1-13.4,69-13.4,91.2,0C207,51,201,56.6,176.1,59.6
		C156.7,61.8,135.5,61.8,116.1,59.6L116.1,59.6z"/>
	<path class="st89" d="M116.2,59.4c-24.8-2.9-30.8-8.5-15.5-17.7c22.1-13.3,68.9-13.3,91,0c15.3,9.2,9.3,14.8-15.5,17.7
		C156.6,61.7,135.5,61.7,116.2,59.4L116.2,59.4z"/>
	<path class="st90" d="M116.2,59.2c-24.7-2.9-30.8-8.4-15.5-17.6c22-13.2,68.7-13.2,90.7,0c15.3,9.2,9.2,14.7-15.5,17.6
		C156.6,61.5,135.6,61.5,116.2,59.2L116.2,59.2z"/>
	<path class="st91" d="M116.3,59c-24.7-2.9-30.7-8.3-15.5-17.4c22-13.1,68.6-13.1,90.5,0c15.2,9.1,9.2,14.6-15.5,17.4
		C156.6,61.3,135.6,61.3,116.3,59L116.3,59z"/>
	<path class="st92" d="M116.4,58.9c-24.6-2.8-30.6-8.3-15.4-17.3c21.9-13,68.4-13,90.3,0c15.2,9,9.2,14.4-15.4,17.3
		C156.6,61.1,135.6,61.1,116.4,58.9L116.4,58.9z"/>
	<path class="st92" d="M116.4,58.7c-24.6-2.8-30.5-8.2-15.4-17.1c21.9-12.9,68.2-12.9,90.1,0c15.2,8.9,9.2,14.3-15.4,17.1
		C156.5,60.9,135.6,60.9,116.4,58.7L116.4,58.7z"/>
	<path class="st93" d="M116.5,58.5c-24.5-2.8-30.5-8.1-15.4-17c21.8-12.8,68.1-12.8,89.9,0c15.1,8.8,9.1,14.2-15.4,17
		C156.5,60.7,135.7,60.7,116.5,58.5L116.5,58.5z"/>
	<path class="st94" d="M116.6,58.3c-24.4-2.8-30.4-8.1-15.3-16.8c21.8-12.7,67.9-12.7,89.7,0c15.1,8.8,9.1,14.1-15.3,16.8
		C156.5,60.5,135.7,60.5,116.6,58.3L116.6,58.3z"/>
	<path class="st95" d="M116.7,58.2c-24.4-2.7-30.3-8-15.3-16.7c21.7-12.5,67.7-12.5,89.5,0c15,8.7,9.1,13.9-15.3,16.7
		C156.5,60.3,135.7,60.3,116.7,58.2L116.7,58.2z"/>
	<path class="st95" d="M116.7,58c-24.3-2.7-30.3-7.9-15.2-16.5c21.7-12.4,67.6-12.4,89.2,0c15,8.6,9.1,13.8-15.2,16.5
		C156.4,60.1,135.7,60.1,116.7,58L116.7,58z"/>
	<path class="st96" d="M116.8,57.8c-24.3-2.7-30.2-7.8-15.2-16.4c21.6-12.3,67.4-12.3,89,0c15,8.5,9.1,13.7-15.2,16.4
		C156.4,59.9,135.8,59.9,116.8,57.8L116.8,57.8z"/>
	<path class="st96" d="M116.9,57.6c-24.2-2.7-30.1-7.8-15.2-16.2c21.6-12.2,67.3-12.2,88.8,0c14.9,8.5,9,13.6-15.2,16.2
		C156.4,59.7,135.8,59.7,116.9,57.6L116.9,57.6z"/>
	<path class="st96" d="M116.9,57.4c-24.1-2.6-30-7.7-15.1-16.1c21.5-12.1,67.1-12.1,88.6,0c14.9,8.4,9,13.4-15.1,16.1
		C156.4,59.5,135.8,59.5,116.9,57.4L116.9,57.4z"/>
	<path class="st97" d="M117,57.3c-24.1-2.6-30-7.6-15.1-15.9c21.4-12,66.9-12,88.4,0c14.9,8.3,9,13.3-15.1,15.9
		C156.3,59.3,135.8,59.3,117,57.3L117,57.3z"/>
	<path class="st97" d="M117.1,57.1c-24-2.6-29.9-7.6-15.1-15.8c21.4-11.9,66.8-11.9,88.2,0c14.8,8.2,9,13.2-15.1,15.8
		C156.3,59.1,135.9,59.1,117.1,57.1L117.1,57.1z"/>
	<path class="st98" d="M117.2,56.9c-24-2.6-29.8-7.5-15-15.6c21.3-11.8,66.6-11.8,87.9,0c14.8,8.2,8.9,13.1-15,15.6
		C156.3,58.9,135.9,58.9,117.2,56.9L117.2,56.9z"/>
	<path class="st98" d="M117.2,56.7c-23.9-2.5-29.7-7.4-15-15.5c21.3-11.6,66.4-11.6,87.7,0c14.8,8.1,8.9,13-15,15.5
		C156.3,58.7,135.9,58.7,117.2,56.7L117.2,56.7z"/>
	<path class="st99" d="M117.3,56.6c-23.9-2.5-29.7-7.3-15-15.3c21.2-11.5,66.3-11.5,87.5,0c14.7,8,8.9,12.8-15,15.3
		C156.2,58.5,135.9,58.5,117.3,56.6L117.3,56.6z"/>
	<path class="st100" d="M117.4,56.4c-23.8-2.5-29.6-7.3-14.9-15.2c21.2-11.4,66.1-11.4,87.3,0c14.7,7.9,8.9,12.7-14.9,15.2
		C156.2,58.3,136,58.3,117.4,56.4L117.4,56.4z"/>
	<path class="st100" d="M117.4,56.2c-23.7-2.5-29.5-7.2-14.9-15c21.1-11.3,66-11.3,87.1,0c14.6,7.8,8.9,12.6-14.9,15
		C156.2,58.1,136,58.1,117.4,56.2L117.4,56.2z"/>
	<path class="st100" d="M117.5,56c-23.7-2.4-29.5-7.1-14.8-14.9c21.1-11.2,65.8-11.2,86.9,0c14.6,7.8,8.8,12.5-14.8,14.9
		C156.2,58,136,58,117.5,56L117.5,56z"/>
	<path class="st101" d="M117.6,55.9c-23.6-2.4-29.4-7.1-14.8-14.7c21-11.1,65.6-11.1,86.7,0c14.6,7.7,8.8,12.3-14.8,14.7
		C156.1,57.8,136,57.8,117.6,55.9L117.6,55.9z"/>
	<path class="st102" d="M117.6,55.7c-23.6-2.4-29.3-7-14.8-14.6c21-11,65.5-11,86.4,0c14.5,7.6,8.8,12.2-14.8,14.6
		C156.1,57.6,136.1,57.6,117.6,55.7L117.6,55.7z"/>
	<path class="st103" d="M117.7,55.5c-23.5-2.4-29.2-6.9-14.7-14.5c20.9-10.9,65.3-10.9,86.2,0c14.5,7.5,8.8,12.1-14.7,14.5
		C156.1,57.4,136.1,57.4,117.7,55.5L117.7,55.5z"/>
	<path class="st103" d="M117.8,55.3C94.3,53,88.6,48.5,103.1,41c20.9-10.8,65.1-10.8,86,0c14.5,7.5,8.7,12-14.7,14.3
		C156.1,57.2,136.1,57.2,117.8,55.3L117.8,55.3z"/>
	<path class="st104" d="M117.9,55.2c-23.4-2.3-29.1-6.8-14.7-14.2c20.8-10.6,65-10.6,85.8,0c14.4,7.4,8.7,11.8-14.7,14.2
		C156.1,57,136.1,57,117.9,55.2L117.9,55.2z"/>
	<path class="st104" d="M117.9,55c-23.3-2.3-29-6.7-14.6-14c20.8-10.5,64.8-10.5,85.6,0c14.4,7.3,8.7,11.7-14.6,14
		C156,56.8,136.2,56.8,117.9,55L117.9,55z"/>
	<path class="st104" d="M118,54.8c-23.3-2.3-28.9-6.6-14.6-13.9c20.7-10.4,64.7-10.4,85.4,0c14.4,7.2,8.7,11.6-14.6,13.9
		C156,56.6,136.2,56.6,118,54.8L118,54.8z"/>
	<path class="st105" d="M118.1,54.6c-23.2-2.2-28.9-6.6-14.6-13.7c20.7-10.3,64.5-10.3,85.2,0c14.3,7.1,8.7,11.5-14.6,13.7
		C156,56.4,136.2,56.4,118.1,54.6L118.1,54.6z"/>
	<path class="st106" d="M118.1,54.5C95,52.2,89.3,48,103.6,40.9c20.6-10.2,64.3-10.2,84.9,0c14.3,7.1,8.6,11.3-14.5,13.6
		C156,56.2,136.2,56.2,118.1,54.5L118.1,54.5z"/>
	<path class="st107" d="M118.2,54.3c-23.1-2.2-28.7-6.4-14.5-13.4c20.6-10.1,64.2-10.1,84.7,0c14.2,7,8.6,11.2-14.5,13.4
		C155.9,56,136.3,56,118.2,54.3L118.2,54.3z"/>
	<path class="st107" d="M118.3,54.1c-23-2.2-28.7-6.4-14.4-13.3c20.5-10,64-10,84.5,0c14.2,6.9,8.6,11.1-14.4,13.3
		C155.9,55.8,136.3,55.8,118.3,54.1L118.3,54.1z"/>
	<path class="st107" d="M118.4,53.9c-23-2.2-28.6-6.3-14.4-13.1c20.5-9.9,63.8-9.9,84.3,0c14.2,6.8,8.6,11-14.4,13.1
		C155.9,55.6,136.3,55.6,118.4,53.9L118.4,53.9z"/>
	<path class="st108" d="M118.4,53.8c-22.9-2.1-28.5-6.2-14.4-13c20.4-9.8,63.7-9.8,84.1,0c14.1,6.8,8.6,10.8-14.4,13
		C155.9,55.4,136.3,55.4,118.4,53.8L118.4,53.8z"/>
	<path class="st108" d="M118.5,53.6c-22.9-2.1-28.4-6.1-14.3-12.8c20.4-9.6,63.5-9.6,83.9,0c14.1,6.7,8.5,10.7-14.3,12.8
		C155.8,55.2,136.4,55.2,118.5,53.6L118.5,53.6z"/>
	<path class="st108" d="M118.6,53.4c-22.8-2.1-28.4-6.1-14.3-12.7c20.3-9.5,63.4-9.5,83.7,0c14.1,6.6,8.5,10.6-14.3,12.7
		C155.8,55,136.4,55,118.6,53.4L118.6,53.4z"/>
	<path class="st109" d="M118.6,53.2c-22.7-2.1-28.3-6-14.3-12.5c20.3-9.4,63.2-9.4,83.4,0c14,6.5,8.5,10.5-14.3,12.5
		C155.8,54.8,136.4,54.8,118.6,53.2L118.6,53.2z"/>
	<path class="st109" d="M118.7,53.1c-22.7-2-28.2-5.9-14.2-12.4c20.2-9.3,63-9.3,83.2,0c14,6.5,8.5,10.3-14.2,12.4
		C155.8,54.6,136.4,54.6,118.7,53.1L118.7,53.1z"/>
	<path class="st109" d="M118.8,52.9c-22.6-2-28.1-5.9-14.2-12.2c20.1-9.2,62.9-9.2,83,0c14,6.4,8.4,10.2-14.2,12.2
		C155.7,54.4,136.5,54.4,118.8,52.9L118.8,52.9z"/>
</g>
</svg>
