<svg id="Capa_1" data-name="Capa 1" xmlns="http://www.w3.org/2000/svg" viewBox="0 0 609.04 149.72"><defs><style>.cls-1{fill:#00245b;}.cls-2{fill:#ffe100;}.cls-3{fill:#fff;}</style></defs><title>mercado-libre-seeklogo.com</title><path class="cls-1" d="M229.32,91.3c0-38.24-47.5-69.41-106.11-69.41S17.1,53.06,17.1,91.3c0,1,0,3.72,0,4.06,0,40.57,41.52,73.42,106.11,73.42,65,0,106.12-32.84,106.12-73.41Z" transform="translate(-17.09 -19.06)"/><path class="cls-2" d="M225.26,91.27c0,36-45.68,65.27-102,65.27s-102-29.23-102-65.27S66.88,26,123.23,26,225.26,55.21,225.26,91.27Z" transform="translate(-17.09 -19.06)"/><path class="cls-3" d="M89.35,70.67c0,.1-1.07,1.16-.41,2,1.61,2.06,6.58,3.24,11.61,2.11,3-.67,6.83-3.72,10.55-6.67,4-3.21,8-6.41,12.05-7.69a13.73,13.73,0,0,1,8.78-.22c2,.59,4.3,1.89,8,4.67,7,5.25,35.05,29.75,39.9,34A241.83,241.83,0,0,1,224.7,84.42c-2-12.58-9.7-24.09-21.3-33.51-16.17,6.79-35.94,10.34-55.26.9-.1,0-10.56-5-20.88-4.75-15.33.35-22,7-29,14Z" transform="translate(-17.09 -19.06)"/><path class="cls-3" d="M178.7,101.52c-.33-.29-33-28.89-40.41-34.45-4.28-3.21-6.67-4-9.17-4.35a12.59,12.59,0,0,0-4.36.41c-3.44.94-8,3.95-12,7.12s-8,6.4-11.66,7.22c-4.63,1-10.28-.19-12.86-1.93a5.78,5.78,0,0,1-2.13-2.34c-1-2.21.81-4,1.09-4.27l9-9.76c1-1,2.11-2.09,3.19-3.12a58.47,58.47,0,0,0-8.22,1.85,35.88,35.88,0,0,1-9.59,1.79,92.88,92.88,0,0,1-9.79-1.53,146.5,146.5,0,0,1-26-9.41C33,58.3,24.44,70.23,22,83.38c1.84.48,4.81,1.37,6.05,1.64,29,6.45,38.05,13.1,39.69,14.49a9.59,9.59,0,0,1,15.05.88A11,11,0,0,1,89.68,98a12.93,12.93,0,0,1,4.15.73A9.55,9.55,0,0,1,99.67,104a9.85,9.85,0,0,1,4-.86,12.14,12.14,0,0,1,4.82,1.07c5.35,2.29,6.18,7.55,5.7,11.51a8.77,8.77,0,0,1,1.15-.06,11.49,11.49,0,0,1,10.13,16.93c1.72,1,6.12,3.17,10,2.68,3.09-.39,4.26-1.44,4.68-2,.29-.41.59-.88.31-1.22l-8.19-9.1s-1.35-1.27-.9-1.77,1.29.22,1.88.72c4.17,3.48,9.25,8.73,9.25,8.73s.43.72,2.31,1.06a8.51,8.51,0,0,0,6.47-1.51,9.83,9.83,0,0,0,1.42-1.46l-.09.08c2.09-2.68-.23-5.39-.23-5.39l-9.56-10.74s-1.37-1.26-.9-1.77,1.29.23,1.89.73c3,2.53,7.3,6.82,11.4,10.83.8.59,4.4,2.81,9.17-.32,2.89-1.9,3.47-4.23,3.39-6a6.83,6.83,0,0,0-2-4L152.72,99s-1.38-1.18-.89-1.78,1.29.23,1.88.72c4.16,3.48,15.42,13.8,15.42,13.8a7.91,7.91,0,0,0,8.85-.18,5.89,5.89,0,0,0,2.91-4.68A6.88,6.88,0,0,0,178.7,101.52Z" transform="translate(-17.09 -19.06)"/><path class="cls-3" d="M115.38,118.16c-2,0-4.24,1.18-4.53,1s.13-.92.32-1.38,2.85-8.49-3.64-11.28c-5-2.13-8,.27-9.06,1.35-.27.29-.4.27-.43-.1a7.16,7.16,0,0,0-5-6.66,9.82,9.82,0,0,0-11.07,4,7.08,7.08,0,1,0-2.11,6s.05.1,0,.24c-.3,1.76-.85,8.16,5.85,10.76A7,7,0,0,0,92.57,121c.57-.4.66-.23.58.3-.25,1.65.06,5.17,5,7.17a6.35,6.35,0,0,0,7.44-1.38c.63-.58.81-.49.84.41a9,9,0,1,0,8.95-9.36Z" transform="translate(-17.09 -19.06)"/><path class="cls-1" d="M180,98.1c-10.06-8.79-33.33-29-39.63-33.74-3.6-2.71-6.05-4.14-8.21-4.78a13.31,13.31,0,0,0-4-.63,17,17,0,0,0-5.12.86c-4.07,1.29-8.13,4.52-12,7.63l-.21.16c-3.65,2.91-7.43,5.91-10.29,6.55a17.45,17.45,0,0,1-3.81.43c-3.2,0-6.08-.93-7.16-2.3-.17-.23-.06-.6.36-1.13l0-.07,8.86-9.54c6.93-6.94,13.48-13.49,28.56-13.84H128c9.38,0,18.77,4.21,19.82,4.7a61.49,61.49,0,0,0,27,6.48c9.52,0,19.34-2.35,29.66-7.11-1.15-1-2.35-1.91-3.59-2.84-9.07,3.93-17.71,5.92-26,5.92a57.54,57.54,0,0,1-25.29-6.08c-.44-.21-10.8-5.1-21.58-5.1h-.85c-12.67.29-19.8,4.79-24.6,8.73a48.91,48.91,0,0,0-12.27,2.24,33.28,33.28,0,0,1-8.65,1.66c-1.11,0-3.11-.1-3.29-.11-3.09-.09-18.69-3.92-31.1-8.62-1.27.9-2.49,1.83-3.67,2.77,13,5.31,28.73,9.42,33.71,9.75,1.39.09,2.86.24,4.34.25a36.88,36.88,0,0,0,9.76-1.82c1.88-.53,4-1.1,6.13-1.52q-.87.86-1.74,1.74l-9,9.73a4.52,4.52,0,0,0-1.23,5,6.29,6.29,0,0,0,2.36,2.63c2.15,1.44,6,2.42,9.55,2.42a17,17,0,0,0,3.81-.4c3.78-.84,7.73-4,11.92-7.32,3.34-2.66,8.09-6,11.72-7a13.6,13.6,0,0,1,3.26-.44,7.69,7.69,0,0,1,.85,0c2.4.31,4.72,1.13,8.86,4.23C145.29,73.13,178,101.72,178.3,102a6.28,6.28,0,0,1,2,4.8,5.21,5.21,0,0,1-2.61,4.17,7.94,7.94,0,0,1-4.29,1.34,7.11,7.11,0,0,1-3.79-1.1c-.12-.1-11.32-10.37-15.43-13.81a3.45,3.45,0,0,0-1.95-1,1.06,1.06,0,0,0-.85.41c-.65.8.08,1.9.93,2.63l13.08,13.15a6.16,6.16,0,0,1,1.81,3.54,6,6,0,0,1-3.1,5.42,8.43,8.43,0,0,1-4.64,1.53,6.7,6.7,0,0,1-3.73-1.13l-1.88-1.85c-3.43-3.37-7-6.86-9.56-9a3.45,3.45,0,0,0-1.95-1,1.1,1.1,0,0,0-.82.35c-.3.33-.51.92.23,1.9a6.06,6.06,0,0,0,.66.73l9.55,10.72c.08.1,2,2.34.21,4.58l-.33.42a10.14,10.14,0,0,1-.89.86,7.63,7.63,0,0,1-4.67,1.48A7.39,7.39,0,0,1,145,131a3.21,3.21,0,0,1-1.88-.8l-.11-.11c-.53-.54-5.34-5.45-9.32-8.78a3.28,3.28,0,0,0-1.85-1,1.15,1.15,0,0,0-.87.38c-.78.87.4,2.16.9,2.63l8.14,9a1.91,1.91,0,0,1-.31.55c-.29.4-1.28,1.39-4.23,1.76a9.64,9.64,0,0,1-1.08.06,18.75,18.75,0,0,1-8-2.36,12.14,12.14,0,0,0-11-17.32H115c.22-3.06-.21-8.85-6.16-11.4a12.75,12.75,0,0,0-5.07-1.12,10.4,10.4,0,0,0-3.73.67,10.2,10.2,0,0,0-5.94-5,13.33,13.33,0,0,0-4.36-.77,11.48,11.48,0,0,0-6.79,2.17,10.23,10.23,0,0,0-15.24-.86C65.13,96.7,55.08,90.31,28.17,84.2c-1.3-.29-4.29-1.15-6.12-1.68a40.46,40.46,0,0,0-.69,4.41s5,1.19,5.94,1.41c27.48,6.1,36.56,12.45,38.1,13.65a10.3,10.3,0,0,0,9.5,14.26,9.92,9.92,0,0,0,1.89-.17,12,12,0,0,0,7.77,9,10.22,10.22,0,0,0,3.67.71,9.8,9.8,0,0,0,2.34-.29A11.92,11.92,0,0,0,101,132.28a9,9,0,0,0,3.14-.56,12.12,12.12,0,0,0,19.93,3.85c2,1.09,6.1,3.06,10.28,3.07a13.19,13.19,0,0,0,1.56-.1c4.15-.53,6.08-2.15,7-3.41a6.25,6.25,0,0,0,.43-.7,11.76,11.76,0,0,0,3.29.51,11.11,11.11,0,0,0,6.65-2.37c2.16-1.56,3.7-3.8,3.92-5.7,0,0,0-.06,0-.09a11,11,0,0,0,2.22.23,12.42,12.42,0,0,0,6.83-2.16,9.87,9.87,0,0,0,4.9-8.78,10.62,10.62,0,0,0,2.25.24,11.76,11.76,0,0,0,6.39-2,9.32,9.32,0,0,0,4.44-7.24,9.65,9.65,0,0,0-1.41-5.84A265,265,0,0,1,225.21,88a43.44,43.44,0,0,0-.59-4.4A243.66,243.66,0,0,0,180,98.1Zm-64.58,37.33a8.26,8.26,0,0,1-8.3-7.93c0-.38,0-1.4-.9-1.4a1.59,1.59,0,0,0-1,.53,5.85,5.85,0,0,1-4.08,1.85,6.94,6.94,0,0,1-2.69-.59c-4.74-1.91-4.8-5.17-4.61-6.48a1.19,1.19,0,0,0-.17-1l-.29-.26H93a1.43,1.43,0,0,0-.83.34,6.91,6.91,0,0,1-4,1.42,6.31,6.31,0,0,1-2.25-.43c-6.23-2.43-5.74-8.32-5.44-10.09a.83.83,0,0,0-.27-.82l-.44-.37-.41.4a6.48,6.48,0,1,1,1.92-5.48l.22,1.73,1-1.47A9.48,9.48,0,0,1,90,101.27a9.73,9.73,0,0,1,2.82.44,6.55,6.55,0,0,1,4.58,6.1c.07.84.67.88.79.88a1.08,1.08,0,0,0,.75-.39,6.51,6.51,0,0,1,4.76-2,9.12,9.12,0,0,1,3.57.8c6.1,2.62,3.34,10.36,3.3,10.45-.52,1.28-.54,1.84,0,2.17l.24.12H111a4.44,4.44,0,0,0,1.18-.31,10.38,10.38,0,0,1,3.25-.72h0a8.32,8.32,0,1,1,0,16.63Z" transform="translate(-17.09 -19.06)"/><path class="cls-1" d="M272,53V84.25H259.56V55.53c0-14,7-20.88,21-20.88,6.28,0,11.08,1.39,14.59,4.16,3.51-2.68,8.31-4,14.59-4,14,0,20.87,6.93,20.78,20.87V84.43h-6.37c-4.06-.28-6.1-2.21-6.1-6.09V53.22c-.27-5.08-3-7.58-8.49-7.58s-8.22,2.5-8.31,7.58v31H288.84V53c-.28-5.08-3-7.57-8.5-7.57S272.12,48,272,53Z" transform="translate(-17.09 -19.06)"/><path class="cls-1" d="M390.71,59.23c.37-15.8,8.17-24.58,24.52-24.58h3.71V47.4l-5.71.12c-6.83,0-10.05,4.41-10.05,11.52v25.4H390.71Z" transform="translate(-17.09 -19.06)"/><path class="cls-1" d="M487.71,50l-11.44,0c.44-9.43,5.19-15.72,19.14-15.72,13.48,0,20.32,4.43,20.59,13.48V64.34c0,13.48-8.12,19.49-21.33,20.41-11.73.92-19.86-4.52-19.86-15.33.28-11.73,8.78-14.87,21.15-16.07,5.27-.64,7.94-2.22,7.94-4.89-.27-2.77-2.86-4.09-7.94-4.16C490.21,44.23,488.36,47.67,487.71,50Zm16.38,13.81v-4c-2.86,1.2-6.19,1.69-9.79,2.43-4.89.92-7.39,3.23-7.39,6.83.28,3.88,2.31,5.73,6.19,5.73C499.93,74.78,504.09,70.71,504.09,63.79Z" transform="translate(-17.09 -19.06)"/><path class="cls-1" d="M568.68,19.06v44c0,14.68-7.66,22-22.9,21.89-15.14-.28-22.72-8.5-22.72-24.75,0-16.63,6.47-25.12,19.49-25.59,6.09,0,10.8,2.5,13.94,7.58V26.66l0-1.38C560.58,19.22,568.68,19.06,568.68,19.06Zm-33,40.62c-.1,9.89,3.23,14.87,10.25,14.87s10.52-5,10.52-14.87c-.27-9.42-3.69-14-10.34-14S536.08,50.26,535.72,59.68Z" transform="translate(-17.09 -19.06)"/><path class="cls-1" d="M350,91.88h3.21v64.7H340.89V99.78C340.89,97.94,344.71,91.88,350,91.88Z" transform="translate(-17.09 -19.06)"/><path class="cls-1" d="M416.88,106.24c-6.1,0-10.72,2.5-13.86,7.58V91.88h-1.39c-6.12.07-9.34,3.34-10.89,6v36.8c0,14.68,7.67,22,22.9,21.89,15.15-.28,22.72-8.5,22.72-24.75C436.36,115.2,429.9,106.7,416.88,106.24Zm-3.6,39.9c-7,0-10.35-5-10.26-14.87.37-9.42,3.79-14,10.44-14s10.07,4.62,10.34,14C423.8,141.15,420.29,146.14,413.28,146.14Z" transform="translate(-17.09 -19.06)"/><path class="cls-1" d="M352.39,72c2,1.91,4.79,2.86,8.47,2.86a11.64,11.64,0,0,0,6.81-2,8.2,8.2,0,0,0,3.5-4.19h11.51q-2.76,8.57-8.47,12.24a24.91,24.91,0,0,1-13.81,3.69,27.16,27.16,0,0,1-10.13-1.8,21,21,0,0,1-7.64-5.11,22.86,22.86,0,0,1-4.83-7.92,28.81,28.81,0,0,1-1.71-10.12,27.94,27.94,0,0,1,1.75-10A23,23,0,0,1,350.5,36.43a24.83,24.83,0,0,1,9.9-1.93A22.59,22.59,0,0,1,371,36.85a21,21,0,0,1,7.41,6.31,26,26,0,0,1,4.19,9,33.43,33.43,0,0,1,.92,10.59H349.17Q349.44,69.11,352.39,72Zm14.78-25q-2.35-2.58-7.14-2.58a11.43,11.43,0,0,0-5.2,1.06A9.79,9.79,0,0,0,351.52,48a9.38,9.38,0,0,0-1.75,3.31,14.82,14.82,0,0,0-.6,3.13h21.27A15.24,15.24,0,0,0,367.17,46.93Z" transform="translate(-17.09 -19.06)"/><path class="cls-1" d="M446.59,44.2a9.26,9.26,0,0,0-5.3,1.44,11.41,11.41,0,0,0-3.49,3.72,16,16,0,0,0-1.91,5,27.46,27.46,0,0,0-.56,5.44,26.17,26.17,0,0,0,.56,5.3A16.33,16.33,0,0,0,437.71,70a10.36,10.36,0,0,0,3.39,3.58A9.33,9.33,0,0,0,446.31,75q4.74,0,7.3-2.65a12.62,12.62,0,0,0,3.21-7.11h12.74q-1.31,9.57-7.44,14.6t-15.72,5A26.27,26.27,0,0,1,436.5,83,22,22,0,0,1,428.82,78a23.23,23.23,0,0,1-4.93-7.77,27.06,27.06,0,0,1-1.76-9.9,31.89,31.89,0,0,1,1.63-10.37,23.31,23.31,0,0,1,4.79-8.28,21.92,21.92,0,0,1,7.71-5.44,26.27,26.27,0,0,1,10.42-2,30.33,30.33,0,0,1,8.23,1.11,22.07,22.07,0,0,1,7.07,3.4,17.53,17.53,0,0,1,7.3,13.72H456.35Q455,44.2,446.59,44.2Z" transform="translate(-17.09 -19.06)"/><path class="cls-1" d="M578.14,49.17A22,22,0,0,1,591,36.06a27.46,27.46,0,0,1,10.23-1.81,27.84,27.84,0,0,1,10.28,1.81,21.92,21.92,0,0,1,12.88,13.11,29.75,29.75,0,0,1,1.76,10.47,29.29,29.29,0,0,1-1.76,10.41,22.6,22.6,0,0,1-5,8,21.75,21.75,0,0,1-7.86,5.07,28.47,28.47,0,0,1-10.28,1.77A28.08,28.08,0,0,1,591,83.07,21.72,21.72,0,0,1,583.16,78a22.46,22.46,0,0,1-5-8,29.07,29.07,0,0,1-1.77-10.41A29.52,29.52,0,0,1,578.14,49.17Zm12,16.09A15.08,15.08,0,0,0,592,70.19a10.14,10.14,0,0,0,3.58,3.49A10.92,10.92,0,0,0,601.2,75a11.19,11.19,0,0,0,5.63-1.3,10,10,0,0,0,3.62-3.49,14.87,14.87,0,0,0,1.91-4.93,28.19,28.19,0,0,0,.56-5.62,29.1,29.1,0,0,0-.56-5.68A14.45,14.45,0,0,0,610.45,49a10.6,10.6,0,0,0-3.62-3.48,10.89,10.89,0,0,0-5.63-1.35,10.63,10.63,0,0,0-5.58,1.35A10.74,10.74,0,0,0,592,49,14.66,14.66,0,0,0,590.13,54a29.09,29.09,0,0,0-.55,5.68A28.19,28.19,0,0,0,590.13,65.26Z" transform="translate(-17.09 -19.06)"/><path class="cls-1" d="M443.59,131.23c.37-15.8,8.17-24.57,24.52-24.57h3.7V119.4l-5.7.12c-6.84,0-10.06,4.41-10.06,11.52v25.4H443.59Z" transform="translate(-17.09 -19.06)"/><path class="cls-1" d="M491.25,144c2,1.9,4.79,2.85,8.47,2.85a11.64,11.64,0,0,0,6.81-2,8.25,8.25,0,0,0,3.5-4.19h11.51q-2.76,8.57-8.47,12.25a25,25,0,0,1-13.81,3.68,27.12,27.12,0,0,1-10.13-1.8,20.88,20.88,0,0,1-7.64-5.11,23,23,0,0,1-4.84-7.91,29.14,29.14,0,0,1-1.7-10.13,27.72,27.72,0,0,1,1.75-9.95,23,23,0,0,1,12.66-13.25,24.67,24.67,0,0,1,9.9-1.94,22.72,22.72,0,0,1,10.59,2.35,21.3,21.3,0,0,1,7.41,6.31,26,26,0,0,1,4.19,9,33.78,33.78,0,0,1,.92,10.59H488Q488.3,141.12,491.25,144Zm14.78-25c-1.57-1.71-3.95-2.58-7.14-2.58a11.43,11.43,0,0,0-5.2,1.06,9.93,9.93,0,0,0-3.32,2.63,9.64,9.64,0,0,0-1.75,3.31,15.41,15.41,0,0,0-.59,3.13h21.26A15.15,15.15,0,0,0,506,118.93Z" transform="translate(-17.09 -19.06)"/><rect class="cls-1" x="349.26" y="72.81" width="12.29" height="11.19"/><rect class="cls-1" x="349.26" y="89.63" width="12.29" height="47.89"/></svg>