<?xml version="1.0" encoding="utf-8"?>
<!-- Generator: Adobe Illustrator 23.0.2, SVG Export Plug-In . SVG Version: 6.00 Build 0)  -->
<svg version="1.1" id="Capa_1" xmlns="http://www.w3.org/2000/svg" xmlns:xlink="http://www.w3.org/1999/xlink" x="0px" y="0px"
	 viewBox="0 0 682 242" style="enable-background:new 0 0 682 242;" xml:space="preserve">
<style type="text/css">
	.st0{fill:#035582;}
	.st1{fill:#3E93C1;}
	.st2{fill:#F7B733;}
	.st3{fill:#FFFFFF;}
	.st4{fill-rule:evenodd;clip-rule:evenodd;fill:#FFFFFF;}
</style>
<g>
	<g>
		<path class="st0" d="M257.2,155.4v-2.9c0-0.8-0.8-1.4-1.9-1.4s-1.9,0.6-1.9,1.4v2.4c0,1.4,1.5,3.3,1.5,3.3l4.2,5.7
			c1.7,2.3,1.6,3.9,1.6,3.9v3.1c0,1.7-1.9,3.1-4.4,3.1h-2.2c-2.3-0.1-4.2-1.4-4.2-3.1v-2.5c0-0.8,0.5-1.2,1-1.4
			c0.3-0.1,1.7-0.5,2.6-0.8v4.3c0,0.7,0.8,1.3,1.9,1.3c1.1,0,1.9-0.6,1.9-1.4v-2.8c0-1.4-1.5-3.3-1.5-3.3l-4.2-5.7
			c-1.7-2.3-1.6-3.9-1.6-3.9v-2.5c0-1.7,1.9-3.3,4.4-3.3h2.2c2.3,0,4.2,1.6,4.2,3.3v1c0,0.8-0.5,1.2-1,1.4
			C259.5,154.7,258.1,155.2,257.2,155.4z"/>
		<path class="st0" d="M290.5,173.9h-3.9l-3.1-17l-3.1,17h-3.9l5.2-24.7h1.9c1.5,0,1.7,0.7,1.9,1.3L290.5,173.9z"/>
		<path class="st0" d="M313.3,173.9h-1.5h-0.2c-1.8,0-2-1.5-2.1-1.7l-4.9-22.9h2.7c0.2,0,0.8,0.1,1,1l3.3,15.5l3.5-16.4h3.5
			L313.3,173.9z"/>
		<path class="st0" d="M347.2,171.4c-0.4,0.6-1,1.6-1.1,1.8c-0.2,0.3-0.8,0.7-1.9,0.7h-7.8v-24c0-0.4,0.5-0.7,1.1-0.7h9.1l-1.2,1.8
			c-0.2,0.3-0.7,0.7-1.9,0.7h-2.8c-0.5,0-0.8,0.2-0.8,0.6v7.3h5.3c-0.4,0.6-1,1.7-1.1,1.9c-0.2,0.3-0.7,0.7-1.9,0.7h-1.5
			c-0.4,0-0.8,0.3-0.8,0.6v8.6L347.2,171.4L347.2,171.4z"/>
		<path class="st0" d="M407,173.9h-3.5v-12.7l-2.6,8.5h-1.1c-2,0-2.4-1.5-2.6-2l-2-6.5v12.7h-3.5v-24.7h2.1c1.4,0,1.6,0.9,1.6,0.9
			l4,14.2l3.8-14.2c0-0.1,0.3-0.9,1.6-0.9h2.1v24.7H407z"/>
		<path class="st0" d="M430.5,149c2.3,0.1,4.2,1.4,4.2,3.1V171c0,1.7-1.9,3-4.2,3.1h-2.7c-2.4,0-4.3-1.4-4.4-3.1v-18.9
			c0-1.7,1.9-3.1,4.4-3.1H430.5z M429.3,171.9c1,0,1.9-0.6,1.9-1.4v-18c0-0.8-0.8-1.4-1.9-1.4h-0.5c-1,0-1.9,0.6-1.9,1.4v18
			c0,0.7,0.8,1.3,1.9,1.4H429.3z"/>
		<path class="st0" d="M463.9,173.9h-1.6c-1.9,0-2.2-1.1-2.3-1.6l-3.8-12.2v13.8h-3.5v-24.7h1.6c1.9,0,2.3,0.7,2.5,1.4l3.6,12.8
			v-14.2h3.5L463.9,173.9L463.9,173.9z"/>
		<path class="st0" d="M494.4,171.4c-0.4,0.6-1,1.6-1.1,1.8c-0.2,0.3-0.8,0.7-1.9,0.7h-7.8v-24c0-0.4,0.5-0.7,1.1-0.7h9.1l-1.2,1.8
			c-0.2,0.3-0.7,0.7-1.9,0.7h-2.8c-0.5,0-0.8,0.2-0.8,0.6v7.3h5.3c-0.4,0.6-1,1.7-1.1,1.9c-0.2,0.3-0.7,0.7-1.9,0.7h-1.5
			c-0.4,0-0.8,0.3-0.8,0.6v8.6L494.4,171.4L494.4,171.4z"/>
		<path class="st0" d="M517.3,163.7V174h-2.5c-0.5,0-1-0.3-1-0.7v-9.5l-4.2-14.4h2.6c0.1,0,1,0,1.1,0.8l2.2,9.3l2.2-9.3
			c0.1-0.8,1-0.8,1.1-0.8h2.6L517.3,163.7z"/>
		<path class="st0" d="M578.5,151.1c-0.2,0.3-0.7,0.7-1.9,0.7h-2.7c-0.5,0-0.8,0.3-0.9,0.6V174h-2.5c-0.8,0-1-0.4-1-0.5v-21.6h-4.9
			V150c0-0.4,0.5-0.8,1.1-0.8h13.9L578.5,151.1z"/>
		<path class="st0" d="M606.5,171.4c-0.4,0.6-1,1.6-1.1,1.8c-0.2,0.3-0.8,0.7-1.9,0.7h-7.8v-24c0-0.4,0.5-0.7,1.1-0.7h9.1l-1.2,1.8
			c-0.2,0.3-0.7,0.7-1.9,0.7H600c-0.5,0-0.8,0.2-0.8,0.6v7.3h5.3c-0.4,0.6-1,1.7-1.1,1.9c-0.2,0.3-0.7,0.7-1.9,0.7H600
			c-0.4,0-0.8,0.3-0.8,0.6v8.6L606.5,171.4L606.5,171.4z"/>
		<path class="st0" d="M634.3,171c0,1.7-1.9,3.1-4.2,3.1H628c-2.4,0-4.4-1.4-4.4-3.1v-18.9c0-1.7,1.9-3.1,4.4-3.1h2.1
			c2.3,0,4.2,1.4,4.2,3.1v3.8c0,0.8-0.5,1.2-0.9,1.3l-2.5,0.8v-5.5c0-0.7-0.8-1.3-1.9-1.3c-1,0-1.9,0.6-1.9,1.3v18
			c0,0.8,0.8,1.4,1.9,1.4c1.1,0,1.9-0.6,1.9-1.4v-3.3c0-0.8,0.5-1.2,0.9-1.4c0.3-0.1,1.7-0.5,2.5-0.8V171z"/>
		<path class="st0" d="M662.6,149.2c1.1,0,1.4,0.6,1.4,1v23.7h-3.5v-10.8c0-0.3-0.4-0.6-0.8-0.6h-3.8v11.3h-3.5v-23.7
			c0-0.4,0.3-1,1.4-1h2.1v10c0,0.7,0.4,0.9,1.2,0.9h3.4v-10.9h2.1V149.2z"/>
	</g>
	<g>
		<path class="st1" d="M262.3,103.7c-2.7-1-5-2.3-7-3.9s-3.5-3.4-4.7-5.5c-1.1-2.1-1.7-4.6-1.7-7.4s0.6-5.4,1.8-7.8
			c1.2-2.3,2.8-4.4,4.8-6.1s4.3-3,6.9-3.9s5.3-1.4,8.2-1.4c2,0,4,0.2,6,0.6s3.8,1,5.5,1.8s3.3,1.8,4.7,3c1.4,1.2,2.6,2.6,3.5,4.2
			c0.3,0.5,0.5,1,0.5,1.5c0.1,0.5,0,1-0.1,1.5s-0.3,0.9-0.5,1.3s-0.5,0.8-0.8,1.1c-0.3,0.3-0.8,0.6-1.3,0.9c-0.5,0.2-1,0.4-1.6,0.4
			c-0.6,0.1-1.2,0-1.8-0.1c-0.6-0.1-1.2-0.4-1.8-0.8c-1-0.9-1.9-1.6-2.7-2.3c-0.9-0.6-1.8-1.2-2.7-1.6c-0.9-0.4-2-0.7-3.1-0.9
			c-1.1-0.2-2.3-0.3-3.8-0.3c-1.6,0-3,0.2-4.4,0.6s-2.6,1-3.7,1.7c-1.1,0.8-1.9,1.7-2.5,2.7c-0.6,1.1-0.9,2.3-0.9,3.6
			c0,1.6,0.4,2.8,1.2,3.8c0.8,1,1.9,1.8,3.3,2.5s3,1.2,4.8,1.7c1.8,0.4,3.7,0.9,5.8,1.3c2.4,0.7,4.8,1.4,7.1,2.4
			c2.3,0.9,4.4,2.1,6.2,3.6c1.8,1.4,3.3,3.2,4.4,5.3c1.1,2.1,1.7,4.5,1.7,7.4s-0.6,5.6-1.8,8.1c-1.2,2.5-2.8,4.6-4.9,6.4
			c-2.1,1.8-4.5,3.2-7.4,4.3c-2.8,1-5.8,1.6-9,1.6c-2.6,0-5.1-0.3-7.4-1c-2.4-0.7-4.5-1.6-6.5-2.7s-3.7-2.5-5.2-4.1s-2.6-3.2-3.4-5
			c-0.4-0.8-0.6-1.6-0.7-2.4c0-0.7,0.1-1.4,0.3-2s0.5-1.1,1-1.6c0.4-0.4,0.9-0.8,1.5-1.1c1.3-0.7,2.5-0.8,3.6-0.4s2.3,1.4,3.4,2.8
			c1.4,2.3,3.3,4,5.7,5.3c2.3,1.2,5.1,1.9,8.2,1.9c1.5,0,3-0.2,4.5-0.6s2.8-1,4-1.8s2.1-1.8,2.8-3c0.7-1.2,1.1-2.5,1.1-4.1
			s-0.4-2.9-1.1-3.9s-1.7-1.9-2.9-2.6c-1.2-0.7-2.5-1.2-4-1.6s-2.9-0.8-4.4-1.2C267.9,105.5,265,104.7,262.3,103.7z"/>
		<path class="st1" d="M298.7,110.5c0-3.4,0.6-6.6,1.9-9.6s3.1-5.6,5.3-7.8c2.2-2.2,4.9-4,7.9-5.3s6.2-1.9,9.6-1.9s6.6,0.6,9.5,1.9
			c3,1.3,5.6,3,7.8,5.3s4,4.8,5.3,7.8s2,6.1,2,9.5v19c0,0.7-0.1,1.4-0.4,2s-0.6,1.2-1.1,1.7s-1,0.9-1.7,1.1
			c-0.7,0.3-1.3,0.4-2.1,0.4c-1.4,0-2.5-0.5-3.4-1.4s-1.4-2-1.6-3.3c-2,1.6-4.3,2.9-6.7,3.9c-2.4,0.9-5,1.4-7.7,1.4
			c-3.4,0-6.6-0.6-9.6-1.9c-3-1.3-5.6-3.1-7.9-5.3c-2.2-2.2-4-4.9-5.3-7.8C299.3,117.1,298.7,113.9,298.7,110.5z M309,110.5
			c0,2,0.4,3.8,1.1,5.6s1.8,3.3,3.1,4.6c1.3,1.3,2.8,2.3,4.6,3.1c1.7,0.8,3.6,1.1,5.6,1.1s3.9-0.4,5.6-1.1c1.7-0.8,3.3-1.8,4.6-3.1
			c1.3-1.3,2.3-2.8,3.1-4.6c0.7-1.7,1.1-3.6,1.1-5.6s-0.4-3.9-1.1-5.6s-1.8-3.2-3.1-4.5c-1.3-1.3-2.8-2.3-4.6-3.1s-3.6-1.1-5.6-1.1
			s-3.8,0.4-5.6,1.1s-3.3,1.8-4.6,3.1c-1.3,1.3-2.3,2.8-3.1,4.5S309,108.5,309,110.5z"/>
		<path class="st1" d="M396.3,129.5c0,1.4-0.5,2.7-1.5,3.6c-1,1-2.2,1.4-3.6,1.4c-0.7,0-1.4-0.1-2-0.4s-1.2-0.6-1.7-1.1
			s-0.9-1-1.1-1.6c-0.3-0.6-0.4-1.3-0.4-2v-25.3c0-1.2-0.3-2.3-0.6-3.2c-0.4-1-0.9-1.8-1.6-2.6c-0.7-0.7-1.5-1.3-2.5-1.7
			c-1-0.4-2-0.6-3.2-0.6s-2.3,0.2-3.4,0.6s-2.1,1-3,1.7s-1.6,1.6-2.2,2.6s-0.9,2-0.9,3.1v0.3c0,0,0,0.1,0,0.2s0,0.2,0,0.4v24.4
			c0,1.4-0.5,2.7-1.5,3.6s-2.2,1.5-3.7,1.5c-0.7,0-1.4-0.1-2-0.4c-0.6-0.3-1.2-0.6-1.7-1.1s-0.8-1-1.1-1.6s-0.4-1.3-0.4-2V91
			c0-0.7,0.1-1.4,0.4-2s0.7-1.2,1.1-1.6c0.5-0.5,1-0.8,1.7-1.1s1.3-0.4,2-0.4c1.3,0,2.4,0.4,3.3,1.2c0.9,0.8,1.5,1.8,1.7,3
			c1.4-1.3,3-2.3,4.7-3.1c1.7-0.8,3.5-1.2,5.5-1.2c2.8,0,5.3,0.5,7.5,1.6s4.1,2.6,5.7,4.4c2-1.9,4.3-3.3,6.9-4.4s5.2-1.6,7.9-1.6
			c2.6,0,5,0.5,7.1,1.5s4,2.3,5.5,4s2.7,3.7,3.5,6s1.2,4.7,1.2,7.3v24.9c0,1.4-0.5,2.7-1.5,3.6c-1,1-2.2,1.4-3.6,1.4
			c-0.7,0-1.4-0.1-2-0.4c-0.6-0.3-1.2-0.6-1.7-1.1s-0.9-1-1.1-1.6c-0.3-0.6-0.4-1.3-0.4-2v-25.1c0-1.2-0.2-2.3-0.6-3.3
			s-0.9-1.9-1.6-2.6s-1.5-1.3-2.5-1.7s-2-0.6-3.2-0.6c-1.1,0-2.3,0.2-3.4,0.6s-2.1,1-3,1.7s-1.6,1.6-2.1,2.6c-0.6,1-0.9,2-0.9,3.1
			L396.3,129.5L396.3,129.5z"/>
		<path class="st1" d="M432.7,100.9c1.3-3,3.1-5.6,5.3-7.8c2.2-2.2,4.9-4,7.9-5.3s6.2-1.9,9.6-1.9s6.6,0.6,9.6,1.9s5.6,3.1,7.8,5.3
			c2.2,2.2,4,4.9,5.3,7.8c1.3,3,1.9,6.2,1.9,9.6s-0.6,6.6-1.9,9.6s-3.1,5.6-5.3,7.8c-2.2,2.2-4.8,4-7.8,5.3s-6.2,1.9-9.6,1.9
			s-6.6-0.6-9.6-1.9s-5.6-3.1-7.9-5.3c-2.2-2.2-4-4.9-5.3-7.8c-1.3-3-1.9-6.2-1.9-9.6C430.8,107.1,431.4,103.9,432.7,100.9z
			 M442.3,116.1c0.8,1.7,1.8,3.3,3.1,4.6c1.3,1.3,2.8,2.3,4.6,3.1c1.7,0.8,3.6,1.1,5.6,1.1s3.9-0.4,5.6-1.1c1.7-0.8,3.3-1.8,4.6-3.1
			c1.3-1.3,2.3-2.8,3.1-4.6c0.7-1.7,1.1-3.6,1.1-5.6s-0.4-3.9-1.1-5.6s-1.8-3.2-3.1-4.5c-1.3-1.3-2.8-2.3-4.6-3.1
			c-1.7-0.7-3.6-1.1-5.6-1.1s-3.8,0.4-5.6,1.1c-1.7,0.7-3.3,1.8-4.6,3.1c-1.3,1.3-2.3,2.8-3.1,4.5c-0.8,1.7-1.1,3.6-1.1,5.6
			C441.1,112.5,441.5,114.3,442.3,116.1z"/>
		<path class="st2" d="M502,78.6v50.9c0,1.4-0.5,2.7-1.5,3.6c-1,1-2.2,1.4-3.7,1.4s-2.6-0.5-3.5-1.4c-0.9-1-1.4-2.2-1.4-3.6V78.6
			h-13.8c-1.4,0-2.7-0.5-3.6-1.5c-1-1-1.5-2.2-1.5-3.6s0.5-2.7,1.5-3.6c1-1,2.2-1.5,3.6-1.5h37.7c1.4,0,2.7,0.5,3.6,1.5
			c1,1,1.5,2.2,1.5,3.7c0,0.7-0.1,1.4-0.4,2c-0.3,0.6-0.6,1.2-1.1,1.6s-1,0.8-1.6,1.1s-1.3,0.4-2,0.4L502,78.6L502,78.6z"/>
		<path class="st2" d="M524,115.2c0.4,1.4,1,2.8,1.9,4s1.9,2.3,3,3.2c1.2,0.9,2.5,1.6,3.9,2.1s2.9,0.8,4.5,0.8c2.2,0,4.1-0.3,5.5-1
			c1.5-0.7,2.7-1.6,3.7-2.7c0.9-0.7,1.8-1.1,2.6-1.2s1.7,0,2.5,0.2c0.6,0.2,1,0.5,1.4,0.9s0.8,0.8,1,1.3c0.7,1,0.9,2.1,0.9,3.4
			c-0.1,1.3-0.7,2.4-1.9,3.4c-0.8,0.8-1.7,1.5-2.7,2.1c-1,0.7-2.1,1.3-3.4,1.8c-1.3,0.5-2.7,0.9-4.3,1.2s-3.4,0.4-5.3,0.4
			c-3.4,0-6.6-0.6-9.6-1.9c-3-1.3-5.6-3-7.9-5.3c-2.2-2.2-4-4.8-5.3-7.8s-2-6.2-2-9.6s0.7-6.6,2-9.6s3.1-5.6,5.3-7.8s4.9-4,7.9-5.3
			s6.2-1.9,9.6-1.9c3.4,0,6.6,0.6,9.6,1.9s5.6,3,7.8,5.2s4,4.8,5.4,7.8c1.3,3,2,6.1,2,9.5c0,1.4-0.5,2.6-1.4,3.5
			c-1,0.9-2.2,1.4-3.7,1.4C557,115.2,524,115.2,524,115.2z M551.6,106.6c-0.4-1.6-1-3-1.8-4.4c-0.8-1.3-1.9-2.5-3.1-3.4
			c-1.2-1-2.6-1.7-4.2-2.3c-1.6-0.6-3.2-0.8-4.9-0.8s-3.4,0.3-4.9,0.8c-1.5,0.6-2.9,1.3-4.1,2.3c-1.2,1-2.2,2.1-3.1,3.5
			c-0.8,1.3-1.4,2.8-1.8,4.3H551.6z"/>
		<path class="st2" d="M577.2,110.4L577.2,110.4v0.2c0,1.8,0.3,3.5,1,5.2s1.6,3.2,2.8,4.5s2.6,2.4,4.3,3.2c1.6,0.8,3.4,1.2,5.4,1.3
			c1.8,0.1,3.5-0.1,5.1-0.6s3.2-1.4,4.8-2.7c0.5-0.4,1.1-0.8,1.7-1.2c0.6-0.4,1.2-0.7,1.9-0.8s1.4-0.1,2.2,0
			c0.8,0.2,1.6,0.6,2.4,1.3c0.6,0.5,1,1.1,1.2,1.7c0.3,0.7,0.4,1.3,0.4,2s-0.2,1.4-0.5,2.1s-0.8,1.4-1.4,2c-2.1,2.2-4.6,3.8-7.6,4.9
			c-2.9,1.1-6,1.7-9.3,1.7c-3.5,0-6.7-0.6-9.7-1.9c-3-1.3-5.7-3-7.9-5.2c-2.3-2.2-4-4.8-5.4-7.8c-1.3-3-2-6.2-2-9.6v-0.1l0.1-0.1
			l-0.1-0.1c0-3.5,0.7-6.7,2-9.7s3.1-5.6,5.4-7.9c2.3-2.2,4.9-4,7.9-5.3s6.3-1.9,9.7-1.9c3.2,0,6.3,0.6,9.3,1.7
			c2.9,1.1,5.5,2.8,7.6,4.9c0.6,0.6,1.1,1.3,1.4,2c0.3,0.7,0.5,1.4,0.5,2.1s-0.1,1.4-0.4,2c-0.3,0.7-0.7,1.2-1.2,1.7
			c-0.8,0.7-1.6,1.2-2.4,1.3c-0.8,0.2-1.5,0.2-2.2,0s-1.3-0.5-1.9-0.9c-0.6-0.4-1.2-0.8-1.7-1.2c-1.6-1.3-3.1-2.2-4.8-2.6
			c-1.6-0.5-3.3-0.7-5.1-0.7c-1.9,0.1-3.7,0.5-5.3,1.3s-3.1,1.9-4.3,3.2c-1.2,1.3-2.2,2.8-2.8,4.5
			C577.5,106.9,577.2,108.6,577.2,110.4z"/>
		<path class="st2" d="M628,91.6c1.9-1.8,3.9-3.2,6.2-4.3s4.6-1.6,7.1-1.6c3,0,5.8,0.6,8.2,1.8c2.5,1.2,4.6,2.9,6.4,5
			c1.8,2.1,3.1,4.6,4.1,7.6c1,2.9,1.5,6.1,1.5,9.6v19.9c0,1.5-0.5,2.7-1.5,3.6c-1,1-2.2,1.5-3.7,1.5s-2.7-0.5-3.7-1.4
			c-1-1-1.5-2.2-1.5-3.6V110c0-2.1-0.2-4-0.8-5.7c-0.5-1.7-1.2-3.2-2.2-4.4c-0.9-1.2-2.1-2.2-3.5-2.8c-1.4-0.7-2.9-1-4.7-1
			c-1.7,0-3.3,0.3-4.7,1s-2.7,1.6-3.8,2.7s-1.9,2.5-2.5,4.1s-1,3.3-1,5.1v20.6c0,1.4-0.5,2.7-1.5,3.6s-2.2,1.5-3.7,1.5
			c-0.7,0-1.4-0.1-2-0.4s-1.2-0.6-1.7-1.1s-0.8-1-1.1-1.6s-0.4-1.3-0.4-2V73.5c0-0.7,0.1-1.4,0.4-2c0.3-0.6,0.6-1.2,1.1-1.7
			s1-0.8,1.7-1.1c0.6-0.3,1.3-0.4,2-0.4s1.4,0.1,2,0.4s1.2,0.6,1.6,1.1c0.5,0.5,0.8,1,1.1,1.7c0.3,0.6,0.4,1.3,0.4,2v18.1H628z"/>
	</g>
</g>
<g>
	<g>
		<path class="st1" d="M217.2,43.3H28c-5.5,0-10,4.5-10,10v133.3c0,5.5,4.5,10,9,10h75.6l-3.1,12.5H144l-3.1-12.5h75.3
			c6.5,0,11-4.5,11-10V53.3C227.2,47.8,222.7,43.3,217.2,43.3z M215.2,173c0,5.5-4.5,10-10,10H40c-5.5,0-10-4.5-10-10V65.8
			c0-5.5,4.5-10,10-10h165.2c5.5,0,10,4.5,10,10V173z"/>
		<path class="st1" d="M171.2,209.2H72.8c-2.7,0-4.9,2.3-4.9,5.1s2.2,5.1,4.9,5.1h98.3c2.7,0,4.9-2.3,4.9-5.1
			C176.1,211.5,173.9,209.2,171.2,209.2z"/>
	</g>
	<path class="st3" d="M55.4,173.1h134.5c0,0,8.6,1.7,6.9-6.9c-1.7-8.6-10.4-132.8-10.4-132.8s2.8-10.7-5.9-10.7
		c-8.6,0-117.1,0-117.1,0s-4.7-1.2-4.7,9.2S47.6,163.6,47.6,163.6S44.2,172.2,55.4,173.1z"/>
	<path class="st2" d="M60.3,167.3h124.5c0,0,8,1.6,6.4-6.4S180.8,27.6,180.8,27.6s0-4.8-8-4.8S69,22.8,69,22.8s-4.8-1.6-4.8,8
		s-11,127.7-11,127.7S50,166.5,60.3,167.3z"/>
	<g>
		<g>
			<g>
				<g>
					<g>
						<path class="st4" d="M153.3,46.4c-1.3-0.2-2.2-1.4-2.1-2.7c0.2-1.3,1.4-2.2,2.7-2.1c1.3,0.2,2.2,1.4,2.1,2.7
							C155.9,45.7,154.7,46.6,153.3,46.4z"/>
						<path class="st4" d="M154.1,41.3c1.6,0.2,1.8,1.6,1.5,2.7c-0.6,1.9-3.4,1.5-3.8-0.4C151.5,42.4,152.3,41.1,154.1,41.3z"/>
					</g>
					<path class="st4" d="M153.2,47.4c-1.9-0.3-3.3-2-3-3.9s2-3.3,3.9-3s3.3,2,3,3.9C156.9,46.3,155.2,47.7,153.2,47.4L153.2,47.4z
						 M153.5,45.9c1.1,0.1,2.1-0.6,2.2-1.7c0.1-1.1-0.6-2.1-1.7-2.2c-1.1-0.1-2.1,0.6-2.2,1.7C151.6,44.8,152.4,45.7,153.5,45.9z"/>
				</g>
				<g>
					<g>
						<path class="st4" d="M92.3,44c-1.3-0.2-2.2-1.4-2.1-2.7c0.2-1.3,1.4-2.2,2.7-2.1c1.3,0.2,2.2,1.4,2.1,2.7
							C94.8,43.2,93.6,44.1,92.3,44z"/>
						<path class="st4" d="M93,38.9c1.6,0.2,1.8,1.6,1.5,2.7c-0.6,1.9-3.4,1.5-3.8-0.4C90.4,40,91.3,38.6,93,38.9z"/>
					</g>
					<path class="st4" d="M92.2,45c-1.9-0.3-3.3-2-3-4c0.3-1.9,2-3.3,4-3c1.9,0.3,3.3,2,3,4C95.9,43.9,94.1,45.2,92.2,45L92.2,45z
						 M92.4,43.4c1.1,0.1,2.1-0.6,2.2-1.7c0.1-1.1-0.6-2.1-1.7-2.2c-1.1-0.1-2.1,0.6-2.2,1.7C90.6,42.3,91.3,43.3,92.4,43.4z"/>
				</g>
			</g>
			<path class="st3" d="M155.6,44c-3.6,18-19.6,74.3-48.7,69.1c-4.6-0.8-8.8-3.6-12.1-8.3c-7.7-11.1-8.6-31.7-4-63.7
				c0.4-2.4,3.9-1.8,3.8,0.2c-6.9,31-5.2,51.4,2.2,62c2.9,4.2,6.5,6.6,10.5,7.3c27.7,5,41.5-51,44.7-67.5
				C152.3,41.4,155.8,41.6,155.6,44z"/>
		</g>
	</g>
</g>
</svg>
